<svg width="114" height="75" viewBox="0 0 114 75" fill="none" xmlns="http://www.w3.org/2000/svg">
<path d="M112.967 60.9315H109.726H108.042C107.883 60.1077 107.661 59.5373 107.311 59.2205C106.771 58.6818 105.882 58.4283 104.642 58.4283C103.403 58.4283 102.577 58.6184 102.101 59.0303C101.751 59.3472 101.561 59.7591 101.561 60.2978C101.561 61.0582 102.609 61.6286 104.642 62.1039C106.994 62.6108 108.677 63.0544 109.726 63.403C110.012 63.498 110.234 63.5931 110.393 63.6881C112.49 64.6704 113.507 66.1596 113.507 68.1558C113.507 70.5956 112.49 72.37 110.457 73.5107C110.203 73.6374 109.948 73.7642 109.694 73.8909C108.392 74.4613 106.866 74.7464 105.151 74.7464C102.577 74.7464 100.512 74.3028 98.9234 73.384C97.9385 72.8136 97.176 72.0848 96.6994 71.1976C96.191 70.3104 95.9686 69.2965 95.9686 68.1241H101.147C101.147 69.0113 101.465 69.7084 102.101 70.1837C102.736 70.6907 103.816 70.9442 105.31 70.9442C106.453 70.9442 107.311 70.6907 107.851 70.2471C108.296 69.8668 108.487 69.4549 108.487 68.9796C108.487 68.1875 107.47 67.5538 105.437 67.1102C102.418 66.4765 100.512 65.9378 99.7177 65.5576C97.6525 64.607 96.6358 63.0861 96.6358 61.0265C96.6358 59.3789 97.176 57.953 98.2562 56.8123C99.6224 55.3548 101.656 54.6577 104.356 54.6577C106.581 54.6577 108.36 54.9746 109.726 55.6083C109.853 55.6717 109.948 55.7033 110.044 55.7667C110.997 56.3054 111.728 57.0025 112.236 57.858C112.713 58.7135 112.967 59.7274 112.967 60.9315Z" fill="#59595B"/>
<path d="M110.33 48.9227C110.33 48.8276 110.298 48.7326 110.266 48.6692C110.203 48.5741 110.139 48.5425 110.044 48.5108C109.98 48.4791 109.885 48.4791 109.726 48.4474H109.535H108.932V49.398H109.567C109.631 49.398 109.694 49.398 109.726 49.398C109.948 49.3663 110.107 49.3346 110.171 49.2712C110.266 49.1762 110.33 49.0494 110.33 48.9227ZM110.743 48.4157C110.838 48.5425 110.902 48.7009 110.902 48.8593C110.902 49.0811 110.806 49.3029 110.647 49.4613C110.489 49.6198 110.266 49.7465 109.98 49.7465C110.107 49.8099 110.171 49.8416 110.266 49.9049L110.743 50.5387L111.124 51.1724H110.52L110.234 50.6654C110.044 50.3485 109.885 50.0951 109.758 50C109.726 49.9683 109.726 49.9683 109.694 49.9366L109.281 49.8099H108.964V51.1724H108.455V47.9721H109.567C109.631 47.9721 109.694 48.0038 109.758 48.0038C110.044 48.0038 110.234 48.0355 110.362 48.0989C110.489 48.1622 110.616 48.2573 110.743 48.4157Z" fill="#59595B"/>
<path d="M112.172 49.5881C112.172 49.1445 112.077 48.7326 111.855 48.3524C111.632 47.9722 111.315 47.6553 110.933 47.4335C110.552 47.2434 110.139 47.1166 109.726 47.1166C109.694 47.1166 109.694 47.1166 109.694 47.1166C109.281 47.1166 108.868 47.2434 108.487 47.4335C108.106 47.6553 107.788 47.9722 107.566 48.3524C107.343 48.7326 107.216 49.1445 107.216 49.5881C107.216 50 107.343 50.4119 107.566 50.8239C107.756 51.2041 108.074 51.4893 108.455 51.7111C108.836 51.9329 109.249 52.0279 109.694 52.0279C109.694 52.0279 109.694 52.0279 109.726 52.0279C110.139 52.0279 110.552 51.9329 110.965 51.7111C111.346 51.4893 111.664 51.1724 111.855 50.8239C112.077 50.4119 112.172 50 112.172 49.5881ZM112.681 49.5881C112.681 50.0951 112.554 50.5704 112.3 51.0457C112.045 51.5209 111.696 51.8695 111.219 52.123C110.743 52.4081 110.266 52.5032 109.758 52.5032C109.726 52.5032 109.726 52.5032 109.726 52.5032C109.218 52.5032 108.741 52.3765 108.265 52.123C107.788 51.8695 107.438 51.5209 107.184 51.0457C106.898 50.5704 106.803 50.0951 106.803 49.5881C106.803 49.0495 106.93 48.5742 107.184 48.0989C107.47 47.6236 107.82 47.2751 108.296 47.0216C108.773 46.7681 109.249 46.6414 109.726 46.6414C109.726 46.6414 109.726 46.6414 109.758 46.6414C110.266 46.6414 110.743 46.7681 111.219 47.0216C111.696 47.2751 112.077 47.6236 112.331 48.0989C112.554 48.5425 112.681 49.0495 112.681 49.5881Z" fill="#59595B"/>
<path d="M83.7362 25.602L97.716 48.7959H83.7362H75.2848L61.9405 26.6477L51.8369 9.88593L61.9405 3.80228L68.2949 0L83.7362 25.602Z" fill="#59595B"/>
<path d="M93.8717 64.924V74.4297H89.233V73.3841C87.6762 74.398 85.8016 75.0001 83.8 75.0001C83.7682 75.0001 83.7682 75.0001 83.7364 75.0001C78.2081 74.9684 73.6964 70.469 73.6964 64.924C73.6964 59.4107 78.2081 54.8796 83.7364 54.848C83.7682 54.848 83.7682 54.848 83.8 54.848C85.8016 54.848 87.6762 55.45 89.233 56.4639V55.3549H93.8717V64.924ZM89.233 65.9696V63.8784C88.7246 61.3435 86.4688 59.4107 83.8 59.4107C83.7682 59.4107 83.7682 59.4107 83.7364 59.4107C80.6863 59.4424 78.2398 61.9139 78.2398 64.924C78.2398 67.9658 80.7181 70.4373 83.7364 70.469C83.7682 70.469 83.7682 70.469 83.8 70.469C86.4688 70.469 88.7246 68.5045 89.233 65.9696Z" fill="#59595B"/>
<path d="M72.076 64.924V74.4297H67.4372V73.384C65.8486 74.398 64.0058 75 62.0042 75C61.9724 75 61.9724 75 61.9406 75C56.4123 74.9683 51.9006 70.469 51.9006 64.924C51.9006 59.4107 56.4123 54.8796 61.9406 54.8479C61.9724 54.8479 61.9724 54.8479 62.0042 54.8479C64.0058 54.8479 65.8804 55.45 67.4372 56.4639V48.796H72.076V64.924ZM67.4372 65.9696V63.8783C66.9289 61.3435 64.6731 59.4107 62.0042 59.4107C61.9724 59.4107 61.9724 59.4107 61.9406 59.4107C58.8905 59.4423 56.4441 61.9138 56.4441 64.924C56.4441 67.9658 58.9223 70.4373 61.9406 70.469C61.9724 70.469 61.9724 70.469 62.0042 70.469C64.6731 70.469 66.9289 68.5045 67.4372 65.9696Z" fill="#59595B"/>
<path d="M61.9406 39.6704L67.4055 48.7958H61.9406H45.0061L32.5514 28.1685L32.0112 27.2496L32.5514 26.9327L48.501 17.3636L61.9406 39.6704Z" fill="#59595B"/>
<path d="M50.0576 54.848H45.0059V74.4297H50.0576V54.848Z" fill="#59595B"/>
<path d="M50.0576 48.9227H45.0059V53.3587H50.0576V48.9227Z" fill="#59595B"/>
<path d="M42.6866 64.924V74.4297H38.0479V73.384C36.4593 74.398 34.5847 75 32.5831 75C32.5513 75 32.5513 75 32.5195 75C26.9911 74.9683 22.4795 70.469 22.4795 64.924C22.4795 59.4107 26.9911 54.8796 32.5195 54.8479C32.5513 54.8479 32.5513 54.8479 32.5831 54.8479C34.5847 54.8479 36.4593 55.45 38.0479 56.4639V48.796H42.6866V64.924ZM38.0479 65.9696V63.8783C37.5395 61.3435 35.2837 59.4107 32.5831 59.4107C32.5513 59.4107 32.5513 59.4107 32.5195 59.4107C29.4694 59.4423 27.0229 61.9138 27.0229 64.924C27.0229 67.9658 29.5012 70.4373 32.5195 70.469C32.5513 70.469 32.5513 70.469 32.5831 70.469C35.3155 70.469 37.5713 68.5045 38.0479 65.9696Z" fill="#59595B"/>
<path d="M32.5513 41.1913L37.1265 48.7959H32.5513H14.6953L12.1853 44.6134L28.6751 34.7592L32.5513 41.1913Z" fill="#59595B"/>
<path d="M20.6685 64.924V74.4297H16.0298V73.3841C14.4412 74.398 12.5666 75.0001 10.5649 75.0001C10.5332 75.0001 10.5332 75.0001 10.5014 75.0001C5.00482 74.9684 0.493164 70.4373 0.493164 64.924C0.493164 59.4107 5.00482 54.8796 10.5332 54.848C10.5649 54.848 10.5649 54.848 10.5967 54.848C12.5984 54.848 14.4729 55.45 16.0615 56.4639V55.3549H20.7003V64.924H20.6685ZM16.0298 65.9696V63.8784C15.5214 61.3435 13.2656 59.4107 10.5649 59.4107C10.5332 59.4107 10.5332 59.4107 10.5014 59.4107C7.48305 59.4424 5.00482 61.9139 5.00482 64.924C5.00482 67.9658 7.48305 70.4373 10.5014 70.469C10.5332 70.469 10.5332 70.469 10.5649 70.469C13.2974 70.469 15.5532 68.5045 16.0298 65.9696Z" fill="#59595B"/>
</svg>
