<svg width="32" height="29" viewBox="0 0 32 29" fill="none" xmlns="http://www.w3.org/2000/svg">
<path d="M1.23597 0.588355C1.08217 0.586234 0.929482 0.613941 0.786765 0.669865C0.644048 0.72579 0.514153 0.808816 0.404627 0.914121C0.295102 1.01942 0.208131 1.14491 0.148769 1.28327C0.0894072 1.42164 0.0588379 1.57013 0.0588379 1.72012C0.0588379 1.8701 0.0894072 2.01859 0.148769 2.15696C0.208131 2.29532 0.295102 2.42081 0.404627 2.52611C0.514153 2.63141 0.644048 2.71444 0.786765 2.77036C0.929482 2.82629 1.08217 2.854 1.23597 2.85188H3.41662C3.67881 2.85188 3.89758 3.01198 3.97199 3.2586L8.91814 19.6559C9.35224 21.0951 10.7174 22.0918 12.2571 22.0918H24.9965C26.5615 22.0918 27.9433 21.0604 28.3559 19.5895L31.3707 8.80909C31.4178 8.64115 31.4245 8.46489 31.3903 8.29402C31.3561 8.12315 31.282 7.96227 31.1736 7.8239C31.0653 7.68553 30.9257 7.5734 30.7656 7.49622C30.6056 7.41904 30.4295 7.3789 30.251 7.37892H7.63513L6.20025 2.61978C6.19949 2.61978 6.19874 2.61978 6.19798 2.61978C5.836 1.42001 4.69804 0.588355 3.41662 0.588355H1.23597ZM12.842 24.3553C12.2263 24.3553 11.6359 24.5938 11.2006 25.0183C10.7653 25.4428 10.5208 26.0185 10.5208 26.6188C10.5208 27.2192 10.7653 27.7949 11.2006 28.2194C11.6359 28.6439 12.2263 28.8824 12.842 28.8824C13.4576 28.8824 14.048 28.6439 14.4833 28.2194C14.9186 27.7949 15.1632 27.2192 15.1632 26.6188C15.1632 26.0185 14.9186 25.4428 14.4833 25.0183C14.048 24.5938 13.4576 24.3553 12.842 24.3553ZM24.448 24.3553C23.8323 24.3553 23.2419 24.5938 22.8066 25.0183C22.3713 25.4428 22.1268 26.0185 22.1268 26.6188C22.1268 27.2192 22.3713 27.7949 22.8066 28.2194C23.2419 28.6439 23.8323 28.8824 24.448 28.8824C25.0636 28.8824 25.654 28.6439 26.0893 28.2194C26.5246 27.7949 26.7692 27.2192 26.7692 26.6188C26.7692 26.0185 26.5246 25.4428 26.0893 25.0183C25.654 24.5938 25.0636 24.3553 24.448 24.3553Z" fill="white"/>
</svg>
