<svg width="149" height="50" viewBox="0 0 149 50" fill="none" xmlns="http://www.w3.org/2000/svg">
<path fill-rule="evenodd" clip-rule="evenodd" d="M50.0461 23.6595V19.2632C50.0461 19.1687 50.1176 19.1214 50.1891 19.1214H54.2164C56.1943 19.1214 57.3381 19.9723 57.3381 21.4613C57.3381 22.9977 56.2896 23.8249 54.3117 23.8249H50.1652C50.1176 23.8249 50.0461 23.754 50.0461 23.6595ZM50.0461 14.7724V10.5888C50.0461 10.4943 50.1176 10.447 50.1891 10.447H54.3355C55.7177 10.447 56.647 11.3688 56.647 12.7161C56.647 13.7797 55.813 14.9142 54.2402 14.9142H50.2129C50.1176 14.9142 50.0461 14.8433 50.0461 14.7724ZM44.8035 6.0744V28.1739H56.1943C59.5067 28.1739 63.0812 25.834 63.0812 22.0759C63.0812 18.4832 60.3407 17.2305 59.1492 16.8524C59.0539 16.8287 58.9586 16.8051 58.9586 16.6869C58.9586 16.616 59.0062 16.5687 59.0539 16.5451C59.173 16.4978 62.0565 15.4815 62.0565 12.0779C62.0565 8.31981 59.4828 6.0744 55.1934 6.0744H44.8035Z" fill="#59595B"/>
<path fill-rule="evenodd" clip-rule="evenodd" d="M70.7306 17.1123C70.7306 13.1651 72.6608 10.6124 75.6872 10.6124C78.7137 10.6124 80.6677 13.1651 80.6677 17.1123C80.6677 21.0831 78.7137 23.6358 75.6872 23.6358C72.6846 23.6594 70.7306 21.0831 70.7306 17.1123ZM65.4641 17.1123C65.4641 24.0376 69.5867 28.6939 75.6872 28.6939C81.8116 28.6939 85.9104 24.0376 85.9104 17.1123C85.9104 10.187 81.7878 5.50708 75.6872 5.50708C69.5629 5.53072 65.4641 10.187 65.4641 17.1123Z" fill="#59595B"/>
<path fill-rule="evenodd" clip-rule="evenodd" d="M88.5556 12.4088C88.5556 16.7578 92.0109 18.4123 94.9182 19.0032L95.7046 19.1686C98.5404 19.7595 99.8511 20.2086 99.8511 21.7922C99.8511 23.2103 98.5642 24.1558 96.6578 24.1558C94.4178 24.1558 92.4399 23.1867 90.9386 21.3431C90.7241 21.5558 87.7453 24.463 87.5547 24.6285C89.3658 26.7321 91.7488 28.6702 96.7293 28.6702C100.995 28.6702 105.308 26.2121 105.308 21.5086C105.308 16.6869 101.996 15.5996 98.3259 14.8433L97.5395 14.6778C95.7285 14.2996 93.9888 13.8033 93.9888 12.2906C93.9888 10.7543 95.4425 10.0452 96.8961 10.0452C98.5881 10.0452 100.256 10.7779 101.519 12.0779C101.71 11.8888 104.617 9.02884 104.808 8.83975C103.378 7.27978 100.876 5.48346 96.777 5.48346C91.8441 5.53073 88.5556 8.29612 88.5556 12.4088Z" fill="#59595B"/>
<path fill-rule="evenodd" clip-rule="evenodd" d="M107.715 16.9941C107.715 23.8958 111.957 28.7175 118.01 28.7175C122.514 28.7175 124.587 27.063 126.732 24.0376C126.493 23.8722 122.633 21.2959 122.394 21.1304C121.417 22.6904 120.369 23.6594 118.272 23.6594C115.746 23.6594 113.029 21.5795 113.029 16.9941C113.029 12.8106 115.579 10.6125 118.105 10.6125C119.94 10.6125 121.227 11.3688 122.251 13.0706C122.49 12.9051 126.326 10.3997 126.565 10.2343C124.349 7.0198 121.751 5.55438 118.081 5.55438C110.908 5.55438 107.715 11.2979 107.715 16.9941Z" fill="#59595B"/>
<path fill-rule="evenodd" clip-rule="evenodd" d="M142.317 6.0744V14.1815C142.317 14.276 142.245 14.3233 142.174 14.3233H135.334C135.239 14.3233 135.191 14.2524 135.191 14.1815V6.0744H129.567V28.1739H135.191V19.4996C135.191 19.405 135.263 19.3578 135.334 19.3578H142.174C142.269 19.3578 142.317 19.4287 142.317 19.4996V28.1739H147.964V6.0744H142.317Z" fill="#59595B"/>
<path d="M45.9472 38.5027H44.5651V48.9497H45.9472V38.5027Z" fill="#59595B"/>
<path d="M130.64 38.0773H129.496V48.8316H130.64V38.0773Z" fill="#59595B"/>
<path d="M52.024 41.2208C50.8563 41.2208 50.0938 41.7881 49.7363 42.4972V41.3626H48.5448V48.8788H49.7363V44.2935C49.7363 42.9462 50.6657 42.2844 51.7142 42.2844C52.8342 42.2844 53.3585 42.8281 53.3585 44.1517V48.8788H54.55V44.1989C54.5262 42.0244 53.4538 41.2208 52.024 41.2208Z" fill="#59595B"/>
<path d="M59.3637 47.6499L57.3381 41.3628H56.0513L58.6249 48.8554H60.0547L62.6046 41.3628H61.3416L59.3637 47.6499Z" fill="#59595B"/>
<path d="M67.1324 41.2208C65.1068 41.2208 63.7008 42.8281 63.7008 45.1207C63.7008 47.4371 65.1783 48.9734 67.2753 48.9734C68.8481 48.9734 69.7775 48.1934 70.2779 47.2716L69.3009 46.728C68.8958 47.4371 68.3715 47.9807 67.2992 47.9807C65.774 47.9807 65.0115 47.0352 64.9638 45.3335H70.3733V44.9553C70.3733 42.2608 68.8243 41.2208 67.1324 41.2208ZM67.1324 42.2135C68.3477 42.2135 69.0388 42.8281 69.1579 44.388H64.9876C65.1783 43.0408 65.9408 42.2135 67.1324 42.2135Z" fill="#59595B"/>
<path d="M75.9018 41.2208C74.7341 41.2208 73.9716 41.7881 73.6141 42.4972V41.3626H72.4226V48.8788H73.6141V44.2935C73.6141 42.9462 74.5435 42.2844 75.592 42.2844C76.7121 42.2844 77.2363 42.8281 77.2363 44.1517V48.8788H78.4278V44.1989C78.4278 42.0244 77.3316 41.2208 75.9018 41.2208Z" fill="#59595B"/>
<path d="M83.4084 47.9807C82.8126 47.9807 82.5505 47.6262 82.5505 46.9171V42.3554H84.4569V41.3627H82.5505V39.1173L81.359 39.4009V41.3627H80.1913V42.3791H81.359V47.1771C81.359 48.2644 82.0739 49.0207 83.3607 49.0207C84.1709 49.0207 84.6237 48.7135 84.9335 48.5007L84.4807 47.6735C84.2424 47.7917 83.9565 47.9807 83.4084 47.9807Z" fill="#59595B"/>
<path d="M89.3898 41.2208C87.3642 41.2208 85.9583 42.8281 85.9583 45.1207C85.9583 47.4371 87.4357 48.9734 89.5328 48.9734C91.1056 48.9734 92.035 48.1934 92.5354 47.2716L91.5584 46.728C91.1533 47.4371 90.629 47.9807 89.5566 47.9807C88.0315 47.9807 87.2689 47.0352 87.2213 45.3335H92.6546V44.9553C92.6546 42.2608 91.1056 41.2208 89.3898 41.2208ZM89.3898 42.2135C90.6052 42.2135 91.2962 42.8281 91.4154 44.388H87.2451C87.4596 43.0408 88.2221 42.2135 89.3898 42.2135Z" fill="#59595B"/>
<path d="M100.089 42.5918C99.6604 41.8591 98.7549 41.2209 97.611 41.2209C95.7523 41.2209 94.3463 42.6154 94.3463 45.0499C94.3463 47.4371 95.6093 48.9735 97.611 48.9735C98.7549 48.9735 99.6604 48.3826 100.089 47.6499V48.8553H101.281V38.0537H100.089V42.5918ZM97.7778 48.0044C96.3004 48.0044 95.6093 47.0117 95.6093 45.1208C95.6093 43.1591 96.5387 42.2136 97.8017 42.2136C99.1123 42.2136 100.161 43.1118 100.161 45.1208C100.161 47.1299 99.1362 48.0044 97.7778 48.0044Z" fill="#59595B"/>
<path d="M107.667 40.299V41.339H106.571V42.3554H107.667V48.8552H108.859V42.3554H110.598V41.3627H108.859V40.1809C108.859 39.4245 109.24 38.8809 109.955 38.8809C110.455 38.8809 110.741 39.0463 110.98 39.1645L111.29 38.2427C110.932 38.03 110.503 37.8882 109.931 37.8882C108.478 37.8882 107.667 38.7863 107.667 40.299Z" fill="#59595B"/>
<path d="M115.245 41.2208C113.196 41.2208 111.671 42.8044 111.671 45.1207C111.671 47.3661 113.172 48.997 115.245 48.997C117.295 48.997 118.844 47.4134 118.844 45.0971C118.82 42.8044 117.271 41.2208 115.245 41.2208ZM115.245 48.0043C113.792 48.0043 112.91 46.8698 112.91 45.1207C112.91 43.3481 113.792 42.2135 115.245 42.2135C116.675 42.2135 117.581 43.3481 117.581 45.1207C117.557 46.8462 116.675 48.0043 115.245 48.0043Z" fill="#59595B"/>
<path d="M122.061 42.5681V41.3627H120.869V48.8789H122.061V44.7662C122.061 42.9226 123.086 42.3317 123.896 42.3317C124.372 42.3317 124.587 42.4263 124.825 42.5681L125.326 41.5754C124.968 41.3627 124.563 41.2681 124.063 41.2681C123.133 41.2209 122.466 41.7881 122.061 42.5681Z" fill="#59595B"/>
<path d="M134.619 41.3628H133.428V48.879H134.619V41.3628Z" fill="#59595B"/>
<path d="M134 37.9119C133.571 37.9119 133.213 38.2664 133.213 38.6919C133.213 39.1173 133.571 39.4718 134 39.4718C134.429 39.4718 134.786 39.1173 134.786 38.6919C134.786 38.29 134.429 37.9119 134 37.9119Z" fill="#59595B"/>
<path d="M137.622 40.299V41.339H136.526V42.3554H137.622V48.8552H138.814V42.3554H140.553V41.3627H138.814V40.1809C138.814 39.4245 139.195 38.8809 139.886 38.8809C140.386 38.8809 140.672 39.0463 140.911 39.1645L141.22 38.2427C140.863 38.03 140.434 37.8882 139.862 37.8882C138.432 37.8882 137.622 38.7863 137.622 40.299Z" fill="#59595B"/>
<path d="M148.131 44.9553C148.131 42.2608 146.582 41.2208 144.866 41.2208C142.841 41.2208 141.435 42.8281 141.435 45.1207C141.435 47.4371 142.912 48.9734 145.009 48.9734C146.582 48.9734 147.511 48.1934 148.012 47.2716L147.035 46.728C146.63 47.4371 146.106 47.9807 145.033 47.9807C143.508 47.9807 142.745 47.0352 142.698 45.3335H148.131V44.9553ZM144.866 42.2135C146.082 42.2135 146.773 42.8281 146.892 44.388H142.722C142.936 43.0408 143.675 42.2135 144.866 42.2135Z" fill="#59595B"/>
<path fill-rule="evenodd" clip-rule="evenodd" d="M63.2241 22.0758C63.2241 25.8576 59.7211 28.3393 56.1704 28.3393H44.6366V5.93256H55.2172C59.2921 5.93256 62.2233 7.9416 62.2233 12.0779C62.2233 15.6233 59.1253 16.6869 59.1253 16.6869C59.1253 16.7105 63.2241 17.6559 63.2241 22.0758ZM56.4802 12.716C56.4802 11.4633 55.6223 10.5888 54.3355 10.5888H50.189V14.7487H54.2163C55.6938 14.7724 56.4802 13.7087 56.4802 12.716ZM57.2189 21.4613C57.2189 20.1613 56.2657 19.2868 54.2402 19.2868H50.2129V23.6831H54.3593C56.0274 23.6594 57.2189 23.0685 57.2189 21.4613Z" fill="#59595B"/>
<path fill-rule="evenodd" clip-rule="evenodd" d="M86.0773 17.1123C86.0773 23.7067 82.2644 28.8593 75.6873 28.8593C69.134 28.8593 65.2974 23.7067 65.2974 17.1123C65.2974 10.5652 69.134 5.3653 75.6873 5.3653C82.2644 5.3653 86.0773 10.5652 86.0773 17.1123ZM80.5248 17.1123C80.5248 13.6142 78.9044 10.7543 75.6873 10.7543C72.4702 10.7543 70.8975 13.5906 70.8975 17.1123C70.8975 20.6577 72.4941 23.494 75.6873 23.494C78.8806 23.494 80.5248 20.6577 80.5248 17.1123Z" fill="#59595B"/>
<path fill-rule="evenodd" clip-rule="evenodd" d="M105.475 21.5559C105.475 26.4957 100.971 28.8593 96.7533 28.8593C91.8682 28.8593 89.3422 27.0157 87.3643 24.6521L90.9626 21.154C92.4877 23.0685 94.4656 24.0376 96.6818 24.0376C98.4929 24.0376 99.7321 23.1395 99.7321 21.8158C99.7321 20.3977 98.6597 19.9486 95.7048 19.3341L94.9184 19.1686C91.3677 18.4359 88.4366 16.4269 88.4366 12.4088C88.4366 8.01251 92.035 5.3653 96.801 5.3653C100.828 5.3653 103.45 7.09071 105.046 8.8634L101.543 12.3142C100.447 11.1561 98.8027 10.2343 96.9201 10.2343C95.6333 10.2343 94.1797 10.8252 94.1797 12.3142C94.1797 13.6615 95.7048 14.1578 97.6112 14.5596L98.3976 14.7251C101.567 15.4105 105.475 16.3796 105.475 21.5559Z" fill="#59595B"/>
<path fill-rule="evenodd" clip-rule="evenodd" d="M126.946 23.9904C124.635 27.2994 122.49 28.8594 118.01 28.8594C111.671 28.8594 107.548 23.6358 107.548 16.9942C107.548 10.6834 111.242 5.4126 118.057 5.4126C121.799 5.4126 124.468 6.87802 126.755 10.2816L122.18 13.2833C121.251 11.6997 120.059 10.7779 118.081 10.7779C115.579 10.7779 113.148 12.9997 113.148 16.9942C113.148 21.4613 115.77 23.5177 118.248 23.5177C120.393 23.5177 121.394 22.454 122.323 20.9413L126.946 23.9904Z" fill="#59595B"/>
<path fill-rule="evenodd" clip-rule="evenodd" d="M148.131 28.3393H142.173V19.4995H135.334V28.3393H129.401V5.93256H135.334V14.1815H142.173V5.93256H148.131V28.3393Z" fill="#59595B"/>
<path fill-rule="evenodd" clip-rule="evenodd" d="M23.2106 26.2358V22.9977H10.8904V25.9285V28.1976L9.05546 26.8976C7.62565 25.5976 6.43415 24.0849 5.55243 22.4541C4.78986 20.7523 4.36092 19.0032 4.36092 16.9469C4.36092 14.9851 4.78986 13.2833 5.55243 11.5579C6.43415 9.92705 7.62565 8.31982 9.05546 7.11439L10.8904 5.81442V8.08346V11.6525H23.2106V7.77619V5.6017L24.9264 6.90167C26.4753 8.1071 27.786 9.59615 28.763 11.4397C29.5256 13.0706 29.9545 14.9142 29.9545 16.9469C29.9545 19.0032 29.5256 20.9414 28.763 22.5722C27.786 24.3922 26.4753 25.9285 24.9264 27.1103L23.2106 28.4103V26.2358ZM25.3791 10.258V23.754C25.8319 23.1159 26.3562 22.4541 26.6898 21.7213C27.4524 20.3032 27.786 18.696 27.786 16.9469C27.786 15.316 27.4524 13.7088 26.6898 12.3143C26.38 11.5343 25.8319 10.8961 25.3791 10.258ZM10.8904 13.827V20.8468H22.9723V13.827H10.8904ZM8.60269 23.3286V22.9977V21.9104V12.7397V11.6761V10.707C8.26907 11.3452 7.84013 11.8888 7.5065 12.527C6.95841 13.827 6.52947 15.4342 6.52947 16.9469C6.52947 18.5541 6.98224 20.185 7.5065 21.485C7.84013 22.1232 8.2929 22.6668 8.60269 23.3286ZM17.2292 0C22.0191 0 26.2608 1.93814 29.3111 4.93989C32.3614 8.08346 34.3393 12.2906 34.3393 16.9233C34.3393 21.6977 32.3852 25.9049 29.3111 29.0248C26.2608 32.0502 22.0191 33.9883 17.2292 33.9883C12.4155 33.9883 8.17375 32.0502 5.14732 29.0248C1.95407 25.9285 0 21.6977 0 16.9469C0 12.3143 1.95407 8.10709 5.12349 4.96353C8.17375 1.93814 12.4155 0 17.2292 0ZM27.786 6.47622C25.0693 3.7581 21.3518 2.15086 17.2054 2.15086C13.0589 2.15086 9.36526 3.7581 6.50564 6.47622C3.93198 9.28889 2.19238 12.8343 2.19238 16.9469C2.19238 21.0595 3.93198 24.7231 6.52947 27.5358C9.36526 30.2302 13.0589 31.8375 17.2292 31.8375C21.3518 31.8375 25.0693 30.2066 27.8098 27.5358C30.5264 24.7231 32.1469 21.0595 32.1469 16.9469C32.1469 12.8343 30.5026 9.28889 27.786 6.47622Z" fill="#59595B"/>
</svg>
