<svg width="23" height="21" viewBox="0 0 23 21" fill="none" xmlns="http://www.w3.org/2000/svg">
<path fill-rule="evenodd" clip-rule="evenodd" d="M0.533995 0.0605814C0.63869 0.019074 0.750702 -0.00149019 0.863522 8.40058e-05H2.46322C3.40324 8.40058e-05 4.23803 0.617342 4.50357 1.50781H4.50524L5.55784 5.04006H22.1484C22.2794 5.04005 22.4086 5.06984 22.526 5.12713C22.6434 5.18441 22.7458 5.26764 22.8253 5.37034C22.9048 5.47304 22.9592 5.59244 22.9842 5.71926C23.0093 5.84608 23.0044 5.9769 22.9699 6.10154L20.7583 14.1028C20.4556 15.1945 19.4419 15.96 18.2939 15.96H8.94846C7.81893 15.96 6.81749 15.2203 6.49904 14.1521L2.87062 1.98195C2.81604 1.79891 2.65555 1.68008 2.46322 1.68008H0.863522C0.750702 1.68165 0.63869 1.66109 0.533995 1.61958C0.429301 1.57807 0.334011 1.51645 0.253665 1.43829C0.173319 1.36014 0.109519 1.267 0.0659721 1.16431C0.0224251 1.06161 0 0.951401 0 0.840081C0 0.72876 0.0224251 0.618549 0.0659721 0.515854C0.109519 0.413158 0.173319 0.320026 0.253665 0.241869C0.334011 0.163712 0.429301 0.102089 0.533995 0.0605814ZM13.5 7C13.2239 7 13 7.22386 13 7.5V9.5H11C10.7239 9.5 10.5 9.72386 10.5 10C10.5 10.2761 10.7239 10.5 11 10.5H13V12.5C13 12.7761 13.2239 13 13.5 13C13.7761 13 14 12.7761 14 12.5V10.5H16C16.2761 10.5 16.5 10.2761 16.5 10C16.5 9.72386 16.2761 9.5 16 9.5H14V7.5C14 7.22386 13.7761 7 13.5 7Z" fill="white"/>
<path d="M8.17343 18.1321C8.49277 17.817 8.92588 17.64 9.37749 17.64C9.82909 17.64 10.2622 17.817 10.5815 18.1321C10.9009 18.4471 11.0803 18.8744 11.0803 19.32C11.0803 19.7656 10.9009 20.1929 10.5815 20.5079C10.2622 20.823 9.82909 21 9.37749 21C8.92588 21 8.49277 20.823 8.17343 20.5079C7.85409 20.1929 7.67469 19.7656 7.67469 19.32C7.67469 18.8744 7.85409 18.4471 8.17343 18.1321Z" fill="white"/>
<path d="M16.6874 18.1321C17.0067 17.817 17.4398 17.64 17.8915 17.64C18.3431 17.64 18.7762 17.817 19.0955 18.1321C19.4148 18.4471 19.5942 18.8744 19.5942 19.32C19.5942 19.7656 19.4148 20.1929 19.0955 20.5079C18.7762 20.823 18.3431 21 17.8915 21C17.4398 21 17.0067 20.823 16.6874 20.5079C16.3681 20.1929 16.1887 19.7656 16.1887 19.32C16.1887 18.8744 16.3681 18.4471 16.6874 18.1321Z" fill="white"/>
</svg>
