<svg width="34" height="42" viewBox="0 0 34 42" fill="none" xmlns="http://www.w3.org/2000/svg">
<path d="M3 0C1.34766 0 0 1.34766 0 3V39C0 40.6523 1.34766 42 3 42H31C32.6523 42 34 40.6523 34 39V3C34 1.34766 32.6523 0 31 0H3ZM6 5H28V13H6V5ZM16 8V10H18V8H16ZM20 8V10H22V8H20ZM24 8V10H26V8H24ZM6 20H10V24H6V20ZM12 20H16V24H12V20ZM18 20H22V24H18V20ZM24 20H28V24H24V20ZM6 26H10V30H6V26ZM12 26H16V30H12V26ZM18 26H22V30H18V26ZM24 26H28V30H24V26ZM6 32H10V36H6V32ZM12 32H16V36H12V32ZM18 32H22V36H18V32ZM24 32H28V36H24V32Z" fill="#FF6600"/>
</svg>
