<svg width="26" height="26" viewBox="0 0 26 26" fill="white" xmlns="http://www.w3.org/2000/svg">
<path d="M19.4794 0H6.5C2.93016 0 0 2.93016 0 6.52064V19.5C0 23.0698 2.93016 26 6.5 26H19.4794C23.0698 26 26 23.0698 26 19.4794V6.52064C26 2.93016 23.0698 0 19.4794 0ZM12.2984 5.34444C12.3397 4.70476 12.9381 4.93175 13.2476 4.89048C17.127 5.01429 20.4698 8.50159 20.4286 12.2571C20.4286 12.6286 20.5524 13.1651 19.9952 13.1651C19.4587 13.1651 19.6032 12.6079 19.5413 12.2365C19.0254 8.25397 17.1683 6.37619 13.1238 5.75714C12.7937 5.71587 12.2778 5.77778 12.2984 5.34444ZM18.0968 12.4222C17.4778 12.5048 17.6016 11.9683 17.5397 11.6175C17.127 9.18254 16.2603 8.29524 13.7635 7.75873C13.3921 7.67619 12.8143 7.7381 12.9175 7.18095C13 6.64444 13.5159 6.83016 13.9079 6.87143C16.4048 7.16032 18.4476 9.28571 18.427 11.6175C18.3857 11.8651 18.5508 12.3397 18.0968 12.4222ZM16.5492 11.1429C16.5492 11.473 16.5079 11.7825 16.1365 11.8238C15.8683 11.8651 15.7032 11.6381 15.6619 11.3698C15.5587 10.3794 15.0222 9.78095 13.9905 9.61587C13.681 9.5746 13.3921 9.47143 13.5365 9.05873C13.6397 8.79048 13.8873 8.74921 14.1556 8.74921C15.2698 8.72857 16.5492 10.0286 16.5492 11.1429ZM20.4698 18.7571C20.0365 19.9333 18.5714 21.1302 17.3127 21.1095C17.127 21.0683 16.7762 21.0063 16.4667 20.8825C10.9365 18.5508 6.9127 14.7127 4.64286 9.22381C3.87937 7.3873 4.68413 5.81905 6.60317 5.2C6.95397 5.07619 7.28413 5.07619 7.63492 5.2C8.46032 5.48889 10.5444 8.31587 10.5857 9.14127C10.627 9.78095 10.173 10.1317 9.73968 10.4206C8.89365 10.9778 8.89365 11.6794 9.26508 12.4841C10.0698 14.2587 11.4524 15.4968 13.2476 16.281C13.8873 16.5698 14.527 16.5492 14.9603 15.8889C15.7444 14.7127 16.7143 14.7746 17.7667 15.4968C18.3032 15.8683 18.8397 16.219 19.3349 16.6111C20.0159 17.1683 20.8825 17.6222 20.4698 18.7571Z" />
</svg>
