<svg width="14" height="13" viewBox="0 0 14 13" fill="none" xmlns="http://www.w3.org/2000/svg">
<path d="M3.49609 1.15551e-05C3.36417 0.00105534 3.238 0.0541926 3.14508 0.147846C3.05216 0.2415 3.00001 0.368081 3 0.500012V6.00001H2V5.00001H1V6.00001H0.75C0.341469 6.00001 0 6.34148 0 6.75001V13H5H10.5H14V4.75001C14 4.34148 13.6585 4.00001 13.25 4.00001H11V2.60548C11 2.49813 10.9654 2.39364 10.9014 2.30746C10.8373 2.22129 10.7473 2.158 10.6445 2.12696L10 1.93361V1.15551e-05H9V1.63282L8 1.33204V1.15551e-05H7V1.03126L3.64453 0.0214959C3.59641 0.00691265 3.54637 -0.000330245 3.49609 1.15551e-05ZM4 1.17189L10 2.97853V12H8V10.9121C8.29211 10.8088 8.54508 10.6176 8.72414 10.3648C8.9032 10.1119 8.99957 9.80984 9 9.50001C9 9.10219 8.84196 8.72066 8.56066 8.43935C8.27936 8.15805 7.89782 8.00001 7.5 8.00001C7.10218 8.00001 6.72064 8.15805 6.43934 8.43935C6.15804 8.72066 6 9.10219 6 9.50001C6.00043 9.80984 6.0968 10.1119 6.27586 10.3648C6.45492 10.6176 6.70789 10.8088 7 10.9121V12H5V6.75001C5 6.34148 4.65853 6.00001 4.25 6.00001H4V1.17189ZM5 4.00001V5.00001H9V4.00001H5ZM11 5.00001H13V12H11V11H12V10H11V9.00001H12V8.00001H11V7.00001H12V6.00001H11V5.00001ZM6 6.00001V7.00001H9V6.00001H6ZM1 7.00001H4V12H1V7.00001ZM2 8.00001V9.00001H3V8.00001H2ZM2 10V11H3V10H2Z" fill="#757575"/>
</svg>
