<svg width="30" height="30" viewBox="0 0 30 30" fill="none" xmlns="http://www.w3.org/2000/svg">
<path d="M19.7619 13.815C19.7619 13.6806 19.7082 13.5525 19.6138 13.4575L16.5425 10.3881C16.3456 10.1912 16.0257 10.1912 15.8282 10.3881C15.8282 10.3881 7.21565 19.1225 6.33752 20.0006C6.33752 20.0006 6.46315 19.8637 6.33752 20.0006H13.8475L19.6138 14.1725C19.7082 14.0769 19.7619 13.9481 19.7619 13.815Z" fill="#90CAF9"/>
<path d="M21.9387 12.5156C21.8044 12.5156 21.6762 12.4619 21.5812 12.3669L17.6344 8.42C17.4375 8.22312 17.4375 7.90312 17.6344 7.705C17.6344 7.705 21.1887 4.15125 21.2462 4.0925C21.8706 3.46812 22.6987 3.125 23.5794 3.125C24.4606 3.125 25.2881 3.46813 25.9106 4.09062C27.1962 5.37625 27.1962 7.4675 25.9106 8.75375C25.8481 8.815 22.2962 12.3669 22.2962 12.3669C22.2006 12.4619 22.0725 12.5156 21.9387 12.5156Z" fill="#767676"/>
<path d="M20.5725 15.3794C20.2725 15.3794 19.9887 15.2619 19.7768 15.0506L14.9506 10.2244C14.7387 10.0125 14.6212 9.72937 14.6212 9.42874C14.6212 9.12874 14.7387 8.84499 14.9506 8.63312L16.2668 7.31749C16.6925 6.89187 17.4325 6.89187 17.8593 7.31749L22.685 12.1431C23.1237 12.5825 23.1237 13.2969 22.685 13.735L21.37 15.0506C21.1562 15.2625 20.8725 15.3794 20.5725 15.3794Z" fill="#505050"/>
<path d="M6.3381 20C6.18935 20.1619 5.87122 20.4787 5.74872 20.625C5.0856 21.4137 4.77935 21.9981 4.6706 22.5412C4.5731 23.0281 4.48122 23.4887 3.27372 24.6956C3.24497 24.725 3.19122 24.775 3.12622 24.8337L5.15747 26.8662C5.22685 26.8012 5.2831 26.7481 5.30372 26.7269C6.51185 25.5175 6.97122 25.4269 7.4581 25.3294C8.1881 25.1837 8.80685 24.9775 10.1287 23.6556L13.8475 19.9987L6.3381 20Z" fill="#FF6600"/>
</svg>
