<svg width="40" height="42" viewBox="0 0 40 42" fill="none" xmlns="http://www.w3.org/2000/svg">
  <path d="M16.1332 33.88C22.466 33.88 27.5998 28.4895 27.5998 21.84C27.5998 15.1905 22.466 9.79999 16.1332 9.79999C9.8003 9.79999 4.6665 15.1905 4.6665 21.84C4.6665 28.4895 9.8003 33.88 16.1332 33.88Z" fill="#FFE8D9"/>
  <path d="M8.13343 7.84001C7.8389 7.84001 7.6001 7.58927 7.6001 7.28001V5.60001C7.6001 5.29075 7.8389 5.04001 8.13343 5.04001C8.42796 5.04001 8.66676 5.29075 8.66676 5.60001V7.28001C8.66676 7.58927 8.42796 7.84001 8.13343 7.84001Z" fill="#2E2E2E"/>
  <path d="M8.13343 11.76C7.8389 11.76 7.6001 11.5093 7.6001 11.2V9.51999C7.6001 9.21073 7.8389 8.95999 8.13343 8.95999C8.42796 8.95999 8.66676 9.21073 8.66676 9.51999V11.2C8.66676 11.5093 8.42796 11.76 8.13343 11.76Z" fill="#2E2E2E"/>
  <path d="M7.06669 8.95999H5.46668C5.17215 8.95999 4.93335 8.70926 4.93335 8.4C4.93335 8.09074 5.17215 7.84 5.46668 7.84H7.06669C7.36122 7.84 7.60002 8.09074 7.60002 8.4C7.60002 8.70926 7.36122 8.95999 7.06669 8.95999Z" fill="#2E2E2E"/>
  <path d="M10.8001 8.95999H9.20008C8.90555 8.95999 8.66675 8.70926 8.66675 8.4C8.66675 8.09074 8.90555 7.84 9.20008 7.84H10.8001C11.0946 7.84 11.3334 8.09074 11.3334 8.4C11.3334 8.70926 11.0946 8.95999 10.8001 8.95999Z" fill="#2E2E2E"/>
  <path d="M29.4667 30.24C29.1722 30.24 28.9333 29.9893 28.9333 29.68V28C28.9333 27.6907 29.1722 27.44 29.4667 27.44C29.7612 27.44 30 27.6907 30 28V29.68C30 29.9893 29.7612 30.24 29.4667 30.24Z" fill="#2E2E2E"/>
  <path d="M29.4667 34.16C29.1722 34.16 28.9333 33.9093 28.9333 33.6V31.92C28.9333 31.6108 29.1722 31.36 29.4667 31.36C29.7612 31.36 30 31.6108 30 31.92V33.6C30 33.9093 29.7612 34.16 29.4667 34.16Z" fill="#2E2E2E"/>
  <path d="M28.3999 31.36H26.7999C26.5054 31.36 26.2666 31.1093 26.2666 30.8C26.2666 30.4908 26.5054 30.24 26.7999 30.24H28.3999C28.6945 30.24 28.9333 30.4908 28.9333 30.8C28.9333 31.1093 28.6945 31.36 28.3999 31.36Z" fill="#2E2E2E"/>
  <path d="M32.1333 31.36H30.5333C30.2388 31.36 30 31.1093 30 30.8C30 30.4908 30.2388 30.24 30.5333 30.24H32.1333C32.4279 30.24 32.6667 30.4908 32.6667 30.8C32.6667 31.1093 32.4279 31.36 32.1333 31.36Z" fill="#2E2E2E"/>
  <path d="M33.4668 10.08C32.4374 10.08 31.6001 9.2008 31.6001 8.12C31.6001 7.0392 32.4374 6.16 33.4668 6.16C34.4961 6.16 35.3334 7.0392 35.3334 8.12C35.3334 9.2008 34.4961 10.08 33.4668 10.08ZM33.4668 7.28C33.0256 7.28 32.6668 7.65674 32.6668 8.12C32.6668 8.58326 33.0256 8.96 33.4668 8.96C33.908 8.96 34.2668 8.58326 34.2668 8.12C34.2668 7.65674 33.9078 7.28 33.4668 7.28Z" fill="#2E2E2E"/>
  <path d="M6.80002 29.68C5.77068 29.68 4.93335 28.8008 4.93335 27.72C4.93335 26.6392 5.77068 25.76 6.80002 25.76C7.82935 25.76 8.66668 26.6392 8.66668 27.72C8.66668 28.8008 7.82935 29.68 6.80002 29.68ZM6.80002 26.88C6.35882 26.88 6.00002 27.2567 6.00002 27.72C6.00002 28.1833 6.35882 28.56 6.80002 28.56C7.24122 28.56 7.60002 28.1833 7.60002 27.72C7.60002 27.2567 7.24108 26.88 6.80002 26.88Z" fill="#2E2E2E"/>
  <path d="M6.00013 18.48C6.29468 18.48 6.53346 18.2293 6.53346 17.92C6.53346 17.6107 6.29468 17.36 6.00013 17.36C5.70558 17.36 5.4668 17.6107 5.4668 17.92C5.4668 18.2293 5.70558 18.48 6.00013 18.48Z" fill="#2E2E2E"/>
  <path d="M32.1334 19.04C32.428 19.04 32.6668 18.7893 32.6668 18.48C32.6668 18.1707 32.428 17.92 32.1334 17.92C31.8389 17.92 31.6001 18.1707 31.6001 18.48C31.6001 18.7893 31.8389 19.04 32.1334 19.04Z" fill="#2E2E2E"/>
  <path d="M23.0668 36.96C23.3613 36.96 23.6001 36.7093 23.6001 36.4C23.6001 36.0907 23.3613 35.84 23.0668 35.84C22.7722 35.84 22.5334 36.0907 22.5334 36.4C22.5334 36.7093 22.7722 36.96 23.0668 36.96Z" fill="#2E2E2E"/>
  <path d="M17.8788 8.95999H25.3455L23.0183 13.8473H26.897L20.691 21.9927H25.3455L13.7091 35.84L17.5879 25.251H13.7091L16.8122 17.1055H12.9333L17.8788 8.95999Z" fill="#FF6600"/>
  <path d="M13.7087 36.4C13.6139 36.4 13.5183 36.3736 13.4325 36.3188C13.2118 36.1783 13.1186 35.8919 13.2113 35.639L16.8113 25.811H13.709C13.5321 25.811 13.3666 25.7188 13.2674 25.565C13.1682 25.4111 13.1481 25.2155 13.2139 25.0431L16.0243 17.6655H12.9333C12.7385 17.6655 12.5593 17.5541 12.4657 17.3747C12.3719 17.1955 12.3789 16.9768 12.4835 16.8044L17.429 8.65887C17.5269 8.49759 17.6966 8.39987 17.8787 8.39987H25.3454C25.5303 8.39987 25.7019 8.50039 25.799 8.66545C25.8962 8.83051 25.905 9.03673 25.8225 9.21033L23.881 13.2873H26.8969C27.1019 13.2873 27.2887 13.4106 27.3775 13.6047C27.4663 13.7987 27.4414 14.029 27.3133 14.197L21.8005 21.4326H25.3453C25.5549 21.4326 25.7451 21.5616 25.8314 21.7622C25.9177 21.9629 25.8841 22.198 25.7453 22.363L14.109 36.2103C14.0046 36.3346 13.8575 36.4 13.7087 36.4ZM14.4967 24.691H17.5878C17.7634 24.691 17.9279 24.7818 18.0274 24.9339C18.1269 25.0859 18.1486 25.2798 18.0857 25.452L15.2718 33.1342L24.1635 22.5528H20.691C20.4859 22.5528 20.2991 22.4294 20.2103 22.2354C20.1215 22.0413 20.1465 21.811 20.2746 21.643L25.7874 14.4074H23.0182C22.8333 14.4074 22.6617 14.3069 22.5646 14.1418C22.4674 13.9768 22.4586 13.7706 22.5411 13.597L24.4825 9.52001H18.1711L13.9058 16.5455H16.8121C16.989 16.5455 17.1545 16.6376 17.2537 16.7915C17.3529 16.9453 17.373 17.1409 17.3071 17.3134L14.4967 24.691Z" fill="#2E2E2E"/>
</svg>
