<svg width="40" height="42" viewBox="0 0 40 42" fill="none" xmlns="http://www.w3.org/2000/svg">
  <path d="M8.13294 7.84C7.83841 7.84 7.59961 7.58926 7.59961 7.28V5.59999C7.59961 5.29073 7.83841 5.03999 8.13294 5.03999C8.42748 5.03999 8.66628 5.29073 8.66628 5.59999V7.28C8.66628 7.58926 8.42748 7.84 8.13294 7.84Z" fill="white"/>
  <path d="M8.13294 11.76C7.83841 11.76 7.59961 11.5092 7.59961 11.2V9.51998C7.59961 9.21072 7.83841 8.95998 8.13294 8.95998C8.42748 8.95998 8.66628 9.21072 8.66628 9.51998V11.2C8.66628 11.5092 8.42748 11.76 8.13294 11.76Z" fill="white"/>
  <path d="M7.06644 8.95999H5.46644C5.17191 8.95999 4.93311 8.70926 4.93311 8.4C4.93311 8.09074 5.17191 7.84 5.46644 7.84H7.06644C7.36097 7.84 7.59977 8.09074 7.59977 8.4C7.59977 8.70926 7.36097 8.95999 7.06644 8.95999Z" fill="white"/>
  <path d="M10.7998 8.95999H9.19984C8.9053 8.95999 8.6665 8.70926 8.6665 8.4C8.6665 8.09074 8.9053 7.84 9.19984 7.84H10.7998C11.0944 7.84 11.3332 8.09074 11.3332 8.4C11.3332 8.70926 11.0944 8.95999 10.7998 8.95999Z" fill="white"/>
  <path d="M29.4664 30.24C29.1719 30.24 28.9331 29.9892 28.9331 29.68V28C28.9331 27.6907 29.1719 27.44 29.4664 27.44C29.761 27.44 29.9998 27.6907 29.9998 28V29.68C29.9998 29.9892 29.761 30.24 29.4664 30.24Z" fill="white"/>
  <path d="M29.4664 34.16C29.1719 34.16 28.9331 33.9092 28.9331 33.6V31.92C28.9331 31.6107 29.1719 31.36 29.4664 31.36C29.761 31.36 29.9998 31.6107 29.9998 31.92V33.6C29.9998 33.9092 29.761 34.16 29.4664 34.16Z" fill="white"/>
  <path d="M28.3999 31.36H26.7999C26.5054 31.36 26.2666 31.1093 26.2666 30.8C26.2666 30.4907 26.5054 30.24 26.7999 30.24H28.3999C28.6945 30.24 28.9333 30.4907 28.9333 30.8C28.9333 31.1093 28.6945 31.36 28.3999 31.36Z" fill="white"/>
  <path d="M32.1333 31.36H30.5333C30.2388 31.36 30 31.1093 30 30.8C30 30.4907 30.2388 30.24 30.5333 30.24H32.1333C32.4279 30.24 32.6667 30.4907 32.6667 30.8C32.6667 31.1093 32.4279 31.36 32.1333 31.36Z" fill="white"/>
  <path d="M33.4663 10.08C32.4369 10.08 31.5996 9.2008 31.5996 8.12C31.5996 7.0392 32.4369 6.16 33.4663 6.16C34.4956 6.16 35.3329 7.0392 35.3329 8.12C35.3329 9.2008 34.4956 10.08 33.4663 10.08ZM33.4663 7.28C33.0251 7.28 32.6663 7.65674 32.6663 8.12C32.6663 8.58326 33.0251 8.96 33.4663 8.96C33.9075 8.96 34.2663 8.58326 34.2663 8.12C34.2663 7.65674 33.9073 7.28 33.4663 7.28Z" fill="white"/>
  <path d="M6.79977 29.68C5.77044 29.68 4.93311 28.8008 4.93311 27.72C4.93311 26.6392 5.77044 25.76 6.79977 25.76C7.82911 25.76 8.66644 26.6392 8.66644 27.72C8.66644 28.8008 7.82911 29.68 6.79977 29.68ZM6.79977 26.88C6.35857 26.88 5.99977 27.2567 5.99977 27.72C5.99977 28.1832 6.35857 28.56 6.79977 28.56C7.24097 28.56 7.59977 28.1832 7.59977 27.72C7.59977 27.2567 7.24084 26.88 6.79977 26.88Z" fill="white"/>
  <path d="M5.99964 18.48C6.29419 18.48 6.53297 18.2293 6.53297 17.92C6.53297 17.6107 6.29419 17.36 5.99964 17.36C5.70509 17.36 5.46631 17.6107 5.46631 17.92C5.46631 18.2293 5.70509 18.48 5.99964 18.48Z" fill="white"/>
  <path d="M32.1329 19.04C32.4275 19.04 32.6663 18.7893 32.6663 18.48C32.6663 18.1707 32.4275 17.92 32.1329 17.92C31.8384 17.92 31.5996 18.1707 31.5996 18.48C31.5996 18.7893 31.8384 19.04 32.1329 19.04Z" fill="white"/>
  <path d="M23.0665 36.96C23.3611 36.96 23.5999 36.7093 23.5999 36.4C23.5999 36.0907 23.3611 35.84 23.0665 35.84C22.772 35.84 22.5332 36.0907 22.5332 36.4C22.5332 36.7093 22.772 36.96 23.0665 36.96Z" fill="white"/>
  <path d="M17.8786 8.96001H25.3452L23.018 13.8473H26.8967L20.6907 21.9927H25.3452L13.7088 35.84L17.5876 25.251H13.7088L16.8119 17.1055H12.9331L17.8786 8.96001Z" fill="white"/>
  <path d="M13.7087 36.4C13.6139 36.4 13.5183 36.3736 13.4325 36.3188C13.2118 36.1783 13.1186 35.8919 13.2113 35.639L16.8113 25.811H13.709C13.5321 25.811 13.3666 25.7188 13.2674 25.565C13.1682 25.4111 13.1481 25.2155 13.2139 25.0431L16.0243 17.6655H12.9333C12.7385 17.6655 12.5593 17.5541 12.4657 17.3747C12.3719 17.1955 12.3789 16.9768 12.4835 16.8044L17.429 8.65887C17.5269 8.49759 17.6966 8.39987 17.8787 8.39987H25.3454C25.5303 8.39987 25.7019 8.50039 25.799 8.66545C25.8962 8.83051 25.905 9.03673 25.8225 9.21033L23.881 13.2873H26.8969C27.1019 13.2873 27.2887 13.4106 27.3775 13.6047C27.4663 13.7987 27.4414 14.029 27.3133 14.197L21.8005 21.4326H25.3453C25.5549 21.4326 25.7451 21.5616 25.8314 21.7622C25.9177 21.9629 25.8841 22.198 25.7453 22.363L14.109 36.2103C14.0046 36.3346 13.8575 36.4 13.7087 36.4ZM14.4967 24.691H17.5878C17.7634 24.691 17.9279 24.7818 18.0274 24.9339C18.1269 25.0859 18.1486 25.2798 18.0857 25.452L15.2718 33.1342L24.1635 22.5528H20.691C20.4859 22.5528 20.2991 22.4294 20.2103 22.2354C20.1215 22.0413 20.1465 21.811 20.2746 21.643L25.7874 14.4074H23.0182C22.8333 14.4074 22.6617 14.3069 22.5646 14.1418C22.4674 13.9768 22.4586 13.7706 22.5411 13.597L24.4825 9.52001H18.1711L13.9058 16.5455H16.8121C16.989 16.5455 17.1545 16.6376 17.2537 16.7915C17.3529 16.9453 17.373 17.1409 17.3071 17.3134L14.4967 24.691Z" fill="white"/>
</svg>
