<svg width="15" height="21" viewBox="0 0 15 21" fill="none" xmlns="http://www.w3.org/2000/svg">
<path d="M11.25 10.5V13H3.75V10.5H11.25ZM14.7266 4.60156C14.9089 4.78385 15 5.00521 15 5.26562V5.5H10V0.5H10.2344C10.4948 0.5 10.7161 0.591146 10.8984 0.773438L14.7266 4.60156ZM8.75 5.8125C8.75 6.07292 8.84115 6.29427 9.02344 6.47656C9.20573 6.65885 9.42708 6.75 9.6875 6.75H15V19.5625C15 19.8229 14.9089 20.0443 14.7266 20.2266C14.5443 20.4089 14.3229 20.5 14.0625 20.5H0.9375C0.677083 20.5 0.455729 20.4089 0.273438 20.2266C0.0911458 20.0443 0 19.8229 0 19.5625V1.4375C0 1.17708 0.0911458 0.955729 0.273438 0.773438C0.455729 0.591146 0.677083 0.5 0.9375 0.5H8.75V5.8125ZM2.5 3.3125V3.9375C2.5 4.14583 2.60417 4.25 2.8125 4.25H5.9375C6.14583 4.25 6.25 4.14583 6.25 3.9375V3.3125C6.25 3.10417 6.14583 3 5.9375 3H2.8125C2.60417 3 2.5 3.10417 2.5 3.3125ZM2.5 5.8125V6.4375C2.5 6.64583 2.60417 6.75 2.8125 6.75H5.9375C6.14583 6.75 6.25 6.64583 6.25 6.4375V5.8125C6.25 5.60417 6.14583 5.5 5.9375 5.5H2.8125C2.60417 5.5 2.5 5.60417 2.5 5.8125ZM12.5 17.6875V17.0625C12.5 16.8542 12.3958 16.75 12.1875 16.75H9.0625C8.85417 16.75 8.75 16.8542 8.75 17.0625V17.6875C8.75 17.8958 8.85417 18 9.0625 18H12.1875C12.3958 18 12.5 17.8958 12.5 17.6875ZM12.5 9.875C12.5 9.69271 12.4349 9.54948 12.3047 9.44531C12.2005 9.3151 12.0573 9.25 11.875 9.25H3.125C2.94271 9.25 2.78646 9.3151 2.65625 9.44531C2.55208 9.54948 2.5 9.69271 2.5 9.875V13.625C2.5 13.8073 2.55208 13.9635 2.65625 14.0938C2.78646 14.1979 2.94271 14.25 3.125 14.25H11.875C12.0573 14.25 12.2005 14.1979 12.3047 14.0938C12.4349 13.9635 12.5 13.8073 12.5 13.625V9.875Z" fill="white"/>
</svg>
