<svg width="134" height="32" viewBox="0 0 134 32" fill="none" xmlns="http://www.w3.org/2000/svg">
<path d="M18.0007 0.509888H0V31.8659H7.99534V14.9149L16.482 14.9372V11.4979H8.10701V3.90456H18.0007V0.509888Z" fill="#59595B"/>
<path d="M32.1378 20.6991L31.7804 19.8728C31.7804 19.8728 35.6441 18.6891 35.7558 14.4235C35.9121 8.75079 31.1551 7.47778 31.1551 7.47778H19.0281V31.8658H25.2591L25.2367 20.3865H28.4304L33.4554 31.8658H37.4978L32.1378 20.6991ZM25.2814 17.7958V10.5151L30.4404 10.4928C31.9591 11.2075 32.8971 12.7485 32.8524 14.4011C32.8078 16.9918 30.3064 17.7958 30.3064 17.7958H25.2814Z" fill="#59595B"/>
<path d="M42.5899 8.23718H39.2622V31.8659H42.6122L42.5899 8.23718Z" fill="#59595B"/>
<path d="M58.3571 8.21497H44.8008V31.866H58.4018L58.3795 29.2083H51.0318V19.2923H57.2851V16.7016H51.0318L51.0541 10.828H58.3795L58.3571 8.21497Z" fill="#59595B"/>
<path d="M81.7625 8.23729V31.866H84.7551L84.7998 17.6843L89.1101 24.027L93.1971 17.595L93.2418 31.866H98.4678L98.4231 8.19263L95.5421 8.23729L90.2491 16.456L85.3135 8.23729H81.7625Z" fill="#59595B"/>
<path d="M79.3282 17.461C79.1942 16.2773 78.4795 13.9546 76.1122 11.498C74.6382 9.97929 72.8069 8.86263 70.7969 8.19263L60.9032 8.21495L60.8809 31.866H70.5289C70.5289 31.866 73.4992 30.727 75.6209 28.6946C78.3679 26.0816 79.0379 23.4686 79.1495 22.9996C79.7525 20.6993 79.5069 18.868 79.3282 17.461ZM70.5289 29.0743H67.3799V10.5376H71.2435C71.2435 10.5376 77.2289 13.1283 77.1395 19.739C77.0502 26.171 70.5289 29.0743 70.5289 29.0743Z" fill="#59595B"/>
<path d="M111.622 8.21497H107.58L100.455 31.866H103.537L105.034 26.573H110.818L112.381 31.8437H118.344L111.622 8.21497ZM105.681 23.9823L107.937 16.0986L110.237 23.9823H105.681Z" fill="#59595B"/>
<path d="M120.779 8.23718V31.8659H123.034V16.9472L131.61 31.8659H134V8.23718H131.789L131.744 22.4635L123.034 8.23718H120.779Z" fill="#59595B"/>
</svg>
