<svg width="15" height="14" viewBox="0 0 15 14" fill="none" xmlns="http://www.w3.org/2000/svg">
<path fill-rule="evenodd" clip-rule="evenodd" d="M8.94176 0.998401L9.65082 3.16818C9.83991 3.76833 10.4544 4.18382 11.1162 4.18382H13.4798C14.9452 4.18382 15.5597 6.03044 14.3779 6.86141L12.4871 8.20021C11.9671 8.56954 11.7307 9.26202 11.9198 9.86217L12.6289 12.0319C13.1016 13.4169 11.4944 14.5249 10.3126 13.6939L8.42178 12.3551C7.9018 11.9858 7.14547 11.9858 6.62549 12.3551L4.73465 13.6939C3.50561 14.571 1.8984 13.4169 2.37111 12.0781L3.08017 9.90833C3.26926 9.30818 3.08017 8.6157 2.51292 8.24638L0.622086 6.90758C-0.559686 6.0766 0.0548358 4.22998 1.52023 4.22998H3.88378C4.54557 4.22998 5.11282 3.81449 5.34917 3.21434L6.05824 1.04457C6.48368 -0.340397 8.46905 -0.340397 8.94176 0.998401Z" fill="white"/>
</svg>
