<svg width="44" height="30" viewBox="0 0 44 30" fill="none" xmlns="http://www.w3.org/2000/svg">
<path d="M0.5 3C0.5 1.61929 1.61929 0.5 3 0.5H41C42.3807 0.5 43.5 1.61929 43.5 3V27C43.5 28.3807 42.3807 29.5 41 29.5H3C1.61929 29.5 0.5 28.3807 0.5 27V3Z" fill="white" stroke="#E6E7E8"/>
<path fill-rule="evenodd" clip-rule="evenodd" d="M21.3505 17.5477V14.8999V14.8993H22.8147C23.4184 14.8997 23.9257 14.7141 24.3367 14.3427C24.7521 13.9901 24.9843 13.4832 24.9725 12.9548C24.9807 12.4294 24.7489 11.9262 24.3367 11.5748C23.9293 11.2013 23.3814 10.9975 22.8147 11.0087H20.4642V17.5477H21.3505ZM21.3505 14.0963V11.8137V11.8132H22.8367C23.168 11.8044 23.4873 11.9307 23.7136 12.1602C23.9413 12.37 24.0698 12.6582 24.0698 12.9592C24.0698 13.2602 23.9413 13.5484 23.7136 13.7582C23.4845 13.9829 23.1662 14.1056 22.8367 14.0963H21.3505Z" fill="#5F6368"/>
<path fill-rule="evenodd" clip-rule="evenodd" d="M28.5659 13.4255C28.1868 13.0936 27.6698 12.9277 27.0147 12.9277C26.1732 12.9277 25.5378 13.2199 25.1085 13.8043L25.889 14.2702C26.1775 13.8743 26.5692 13.6764 27.0643 13.6764C27.3799 13.6729 27.6853 13.7823 27.9197 13.9827C28.1533 14.1658 28.2878 14.4388 28.2857 14.7262V14.9182C27.9452 14.7356 27.5118 14.6443 26.9855 14.6443C26.369 14.645 25.8762 14.782 25.507 15.0554C25.1378 15.3288 24.9532 15.697 24.9532 16.1599C24.9452 16.5815 25.1381 16.984 25.4784 17.2556C25.8285 17.5477 26.2635 17.6938 26.7835 17.6938C27.3927 17.6938 27.8808 17.4382 28.2477 16.9269H28.2863V17.5477H29.134V14.7903C29.1343 14.2123 28.945 13.7573 28.5659 13.4255ZM26.162 16.726C25.9763 16.5991 25.8668 16.395 25.8681 16.1781C25.8681 15.9345 25.9886 15.7315 26.2314 15.5646C26.4717 15.4 26.7719 15.3178 27.1319 15.3178C27.6262 15.3178 28.0115 15.4221 28.2879 15.6308C28.2879 15.9835 28.1411 16.2908 27.8475 16.5527C27.5831 16.8034 27.2246 16.9445 26.8506 16.9451C26.6013 16.9495 26.358 16.8721 26.162 16.726Z" fill="#5F6368"/>
<path fill-rule="evenodd" clip-rule="evenodd" d="M34 13.0737L31.0408 19.5198H30.1259L31.2241 17.2643L29.2782 13.0737H30.2415L31.6479 16.2876H31.6672L33.0351 13.0737H34Z" fill="#5F6368"/>
<path fill-rule="evenodd" clip-rule="evenodd" d="M17.7691 14.329C17.7695 14.073 17.7466 13.8175 17.7009 13.5652H13.9633V15.012H16.104C16.0155 15.4789 15.7295 15.8913 15.3124 16.1535V17.0927H16.59C17.3381 16.4389 17.7691 15.4721 17.7691 14.329Z" fill="#4285F4"/>
<path fill-rule="evenodd" clip-rule="evenodd" d="M13.9633 18C15.0329 18 15.9334 17.6671 16.5901 17.0932L15.3125 16.1541C14.9569 16.3826 14.4989 16.513 13.9633 16.513C12.9296 16.513 12.0521 15.8525 11.7384 14.9624H10.4222V15.9302C11.095 17.1991 12.4651 17.9999 13.9633 18Z" fill="#34A853"/>
<path fill-rule="evenodd" clip-rule="evenodd" d="M11.7383 14.9624C11.5724 14.496 11.5724 13.9909 11.7383 13.5245V12.5566H10.4221C9.85945 13.6179 9.85945 14.8689 10.4221 15.9302L11.7383 14.9624Z" fill="#FBBC04"/>
<path fill-rule="evenodd" clip-rule="evenodd" d="M13.9633 11.9738C14.5285 11.965 15.0747 12.1674 15.4837 12.5373L16.6149 11.4651C15.8976 10.8265 14.9474 10.4759 13.9633 10.4868C12.4651 10.4869 11.095 11.2877 10.4222 12.5566L11.7384 13.5244C12.0521 12.6343 12.9296 11.9738 13.9633 11.9738Z" fill="#EA4335"/>
</svg>
