<svg width="61" height="61" viewBox="0 0 61 61" fill="none" xmlns="http://www.w3.org/2000/svg">
<circle cx="30.3055" cy="30.5828" r="30.1834" fill="#A7A7A7"/>
<path d="M27.8382 25.6721C27.8382 24.87 27.6194 24.2242 27.1819 23.7346C26.7444 23.245 26.1689 23.0002 25.4554 23.0002C24.721 23.0002 24.1481 23.2268 23.7366 23.6799C23.3252 24.1331 23.1194 24.7659 23.1194 25.5784C23.1194 26.443 23.3252 27.1096 23.7366 27.5784C24.1533 28.0471 24.7418 28.2815 25.5023 28.2815C26.2314 28.2815 26.8017 28.0523 27.2132 27.594C27.6299 27.1305 27.8382 26.4898 27.8382 25.6721ZM29.0257 22.0784V29.1018C29.0257 29.8778 28.9736 30.4299 28.8694 30.7581C28.7653 31.0862 28.5934 31.3805 28.3538 31.6409C28.0205 32.0002 27.6116 32.2685 27.1273 32.4456C26.6481 32.6226 26.096 32.7112 25.471 32.7112C24.3877 32.7112 23.5413 32.4638 22.9319 31.969C22.3278 31.4742 22.0127 30.7737 21.9866 29.8674H23.3616V29.9612C23.3616 30.4976 23.5465 30.9117 23.9163 31.2034C24.2861 31.495 24.8095 31.6409 25.4866 31.6409C25.9762 31.6409 26.3929 31.5601 26.7366 31.3987C27.0856 31.2424 27.3512 31.0081 27.5335 30.6956C27.6429 30.5185 27.721 30.3127 27.7679 30.0784C27.8148 29.844 27.8382 29.5081 27.8382 29.0706V28.5081V27.8674C27.5621 28.3778 27.2002 28.7711 26.7523 29.0471C26.3043 29.318 25.8017 29.4534 25.2444 29.4534C24.2184 29.4534 23.3903 29.1044 22.7601 28.4065C22.1351 27.7086 21.8226 26.7815 21.8226 25.6252C21.8226 24.4586 22.1273 23.5341 22.7366 22.8518C23.346 22.1643 24.1611 21.8206 25.1819 21.8206C25.7757 21.8206 26.2965 21.956 26.7444 22.2268C27.1924 22.4924 27.5465 22.8857 27.8069 23.4065V22.0784H29.0257ZM32.2288 25.6721C32.2288 26.4273 32.4814 27.068 32.9866 27.594C33.4918 28.1148 34.1038 28.3752 34.8226 28.3752C35.5361 28.3752 36.1429 28.1148 36.6429 27.594C37.1429 27.068 37.3929 26.4273 37.3929 25.6721C37.3929 24.9169 37.1429 24.2789 36.6429 23.7581C36.1429 23.232 35.5361 22.969 34.8226 22.969C34.0986 22.969 33.484 23.232 32.9788 23.7581C32.4788 24.2789 32.2288 24.9169 32.2288 25.6721ZM30.9319 25.6721C30.9319 25.1461 31.0283 24.6513 31.221 24.1877C31.4137 23.719 31.695 23.3023 32.0648 22.9377C32.4345 22.5732 32.8538 22.2971 33.3226 22.1096C33.7913 21.9169 34.2913 21.8206 34.8226 21.8206C35.3434 21.8206 35.8356 21.9169 36.2991 22.1096C36.7679 22.3023 37.1924 22.5836 37.5726 22.9534C37.9424 23.3127 38.2236 23.7268 38.4163 24.1956C38.609 24.6591 38.7054 25.1513 38.7054 25.6721C38.7054 26.193 38.609 26.6851 38.4163 27.1487C38.2236 27.607 37.9424 28.0159 37.5726 28.3752C37.1924 28.7502 36.7653 29.0367 36.2913 29.2346C35.8226 29.4325 35.333 29.5315 34.8226 29.5315C34.2965 29.5315 33.7965 29.4325 33.3226 29.2346C32.8538 29.0419 32.4345 28.7633 32.0648 28.3987C31.695 28.0237 31.4137 27.607 31.221 27.1487C31.0283 26.6903 30.9319 26.1982 30.9319 25.6721ZM23.6898 35.0784V38.594C23.6898 39.62 23.8408 40.3388 24.1429 40.7502C24.4502 41.1565 24.9658 41.3596 25.6898 41.3596C26.4137 41.3596 26.9241 41.1591 27.221 40.7581C27.5231 40.3518 27.6741 39.6305 27.6741 38.594V35.0784H28.9241V39.2502C28.9241 40.3284 28.6481 41.1461 28.096 41.7034C27.5439 42.2555 26.7314 42.5315 25.6585 42.5315C24.596 42.5315 23.7887 42.2528 23.2366 41.6956C22.6845 41.1383 22.4085 40.3232 22.4085 39.2502V35.0784H23.6898ZM32.471 38.6721C32.471 39.4742 32.6924 40.1174 33.1351 40.6018C33.5778 41.0862 34.1637 41.3284 34.8929 41.3284C35.6064 41.3284 36.1663 41.107 36.5726 40.6643C36.984 40.2216 37.1898 39.607 37.1898 38.8206C37.1898 37.9403 36.984 37.2502 36.5726 36.7502C36.1663 36.2502 35.5986 36.0002 34.8694 36.0002C34.1246 36.0002 33.5387 36.2372 33.1116 36.7112C32.6845 37.1851 32.471 37.8388 32.471 38.6721ZM31.2913 45.7112V35.0784H32.4554V36.4221C32.7314 35.9065 33.096 35.5107 33.5491 35.2346C34.0023 34.9586 34.5075 34.8206 35.0648 34.8206C36.096 34.8206 36.9241 35.1721 37.5491 35.8752C38.1741 36.5784 38.4866 37.5107 38.4866 38.6721C38.4866 39.8544 38.1793 40.7945 37.5648 41.4924C36.9554 42.1851 36.1377 42.5315 35.1116 42.5315C34.5231 42.5315 34.0101 42.3987 33.5726 42.1331C33.1351 41.8622 32.7783 41.4612 32.5023 40.9299V45.7112H31.2913Z" fill="white"/>
<path d="M14.4518 22.7025L30.7855 13.9338L47.1192 22.7025" stroke="white" stroke-width="1.3"/>
<line x1="22.4375" y1="48.2463" x2="38.5625" y2="48.2463" stroke="white"/>
</svg>
