<svg width="34" height="42" viewBox="0 0 34 42" fill="none" xmlns="http://www.w3.org/2000/svg">
<path d="M5.56003 33.32H33.72V0.76001H5.56003C2.64847 0.76001 0.280029 3.12845 0.280029 6.04001V36.3278C0.280029 39.0366 2.64847 41.24 5.56003 41.24H33.72V39.48H5.56003C3.65222 39.48 2.04003 38.0363 2.04003 36.3278C2.04003 34.64 3.5869 33.32 5.56003 33.32ZM7.32003 8.24001C7.32003 7.99595 7.51597 7.80001 7.76003 7.80001H27.12C27.3641 7.80001 27.56 7.99595 27.56 8.24001V12.64C27.56 12.8841 27.3641 13.08 27.12 13.08H7.76003C7.51597 13.08 7.32003 12.8841 7.32003 12.64V8.24001Z" fill="#333333"/>
</svg>
