<svg width="109" height="79" viewBox="0 0 109 79" fill="none" xmlns="http://www.w3.org/2000/svg">
<path d="M54.2844 0.000276451C37.0399 0.0362837 23.1005 14.0791 23.1364 31.3986C23.1723 48.6821 37.1836 62.653 54.464 62.617C71.7086 62.581 85.648 48.5381 85.612 31.2546C85.5761 13.9351 71.529 -0.0717381 54.2844 0.000276451ZM54.2485 1.90866C62.8348 1.87266 70.559 5.5454 75.9479 11.4146L63.5534 11.4506L61.757 26.4296L48.2847 26.4656L50.081 11.5946L36.5728 11.6306L34.7765 26.5016H33.3035C31.2557 26.5016 29.4235 28.158 29.2079 30.1744C28.9565 32.2268 30.3935 33.8471 32.4413 33.8471H33.9143L31.9383 50.3745C27.6272 45.2614 25.0046 38.6361 25.0046 31.4346C24.9327 15.1593 38.0099 1.94467 54.2485 1.90866ZM54.3922 60.7806C46.2729 60.8166 38.9439 57.5399 33.5909 52.2469L45.1951 52.2108L47.3866 33.8471L60.8589 33.8111L58.6674 52.0668L72.1756 52.0308L76.882 12.5668C81.0853 17.6439 83.6361 24.1612 83.6361 31.2546C83.7439 47.5299 70.5949 60.7446 54.3922 60.7806Z" fill="#59595B"/>
<path d="M0 67.91H3.34113V71.7988H10.4186V67.91H13.7597V78.8563H10.4186V74.7154H3.34113V78.8563H0V67.91Z" fill="#59595B"/>
<path d="M15.8075 71.7628C15.8075 68.5582 17.6038 67.802 20.6216 67.802H26.0105C29.0283 67.802 30.8247 68.5582 30.8247 71.7628V75.0395C30.8247 78.2441 29.0283 79.0003 26.0105 79.0003H20.6216C17.6038 79.0003 15.8075 78.2441 15.8075 75.0395V71.7628ZM19.2205 73.9953C19.2205 75.5796 19.5438 76.1917 21.1246 76.1917H25.3998C26.9806 76.1917 27.3039 75.5796 27.3039 73.9953V72.807C27.3039 71.4387 26.9806 70.6106 25.2202 70.6106H21.3401C19.5798 70.6106 19.2564 71.4387 19.2564 72.807V73.9953H19.2205Z" fill="#59595B"/>
<path d="M32.6209 75.2915H35.9621C35.9621 76.4438 36.4291 76.5518 37.3991 76.5518H41.4947C42.2132 76.5518 42.9317 76.4798 42.9317 75.6156C42.9317 74.6794 42.5366 74.6074 38.2254 74.6074C33.1958 74.6074 32.6209 73.9953 32.6209 71.2947C32.6209 69.3143 32.8006 67.802 37.0399 67.802H41.7103C45.5903 67.802 45.9495 69.1343 45.9495 71.0427V71.4027H42.6084C42.6084 70.6106 42.5006 70.2505 40.9917 70.2505H37.2913C36.5369 70.2505 36.0339 70.5025 36.0339 71.0787C36.0339 72.0148 36.4291 72.0509 40.0217 72.0509C45.231 72.0509 46.4525 72.3389 46.4525 75.5436C46.4525 78.4962 45.4466 78.9643 40.9917 78.9643H36.9321C33.8783 78.9643 32.6569 78.3881 32.6569 76.0117V75.2915H32.6209Z" fill="#59595B"/>
<path d="M48.5003 67.91H57.6256C60.823 67.91 61.5775 69.5304 61.5775 71.6548V72.591C61.5775 74.2113 60.8589 76.0837 58.4878 76.0837H51.8415V78.8202H48.5003V67.91ZM51.8415 73.3831H57.0508C57.8411 73.3831 58.1285 72.879 58.1285 72.2309V71.7988C58.1285 71.0427 57.7693 70.6466 56.7634 70.6466H51.8415V73.3831Z" fill="#59595B"/>
<path d="M63.5893 67.91H66.9305V78.8563H63.5893V67.91Z" fill="#59595B"/>
<path d="M68.583 67.91H81.3368V70.6466H76.6305V78.8563H73.2894V70.6106H68.583V67.91Z" fill="#59595B"/>
<path d="M86.5461 67.91H90.8932L96.8929 78.8563H93.1565L92.1147 76.9119H85.3246L84.3546 78.8563H80.6183L86.5461 67.91ZM86.5821 74.5714H90.8932L88.7376 70.4666L86.5821 74.5714Z" fill="#59595B"/>
<path d="M98.1144 67.91H101.456V76.0477H109V78.8563H98.1144V67.91Z" fill="#59595B"/>
</svg>
