<svg width="170" height="31" viewBox="0 0 170 31" fill="none" xmlns="http://www.w3.org/2000/svg">
<path d="M125.933 1.5395L111.622 15.4757L125.933 29.4098V1.5395V1.5395ZM125.936 1.5395L140.244 15.4752L125.935 29.4081H154.555L140.245 15.4752L154.556 1.5395H125.936ZM154.556 1.5395V29.4092L168.867 15.4752L154.556 1.5395ZM101.765 2.00411L102.179 11.4509L101.596 11.4719C101.315 9.0837 100.391 7.40237 99.2256 6.30705C98.8901 5.99142 98.2537 5.35354 97.3363 4.7896C95.8063 3.85154 93.5323 3.02218 90.8298 3.49066C86.7725 4.19476 84.6826 6.80587 83.6388 9.31932C82.3525 12.4083 81.5382 17.6929 83.7199 22.1514C85.489 25.7696 88.8896 27.2776 91.5127 27.6661C93.7482 27.9972 98.7037 27.8946 102.48 22.9333L103.083 23.3234C100.149 27.3532 96.2534 29.934 91.7949 29.8954C86.0902 29.8457 82.5055 26.7849 80.8673 24.9662C79.1389 23.0498 77.8129 19.4117 77.7959 16.2422C77.7835 13.4258 78.421 10.291 79.4602 8.45741C81.2481 5.30829 84.9841 2.17903 89.9039 1.7089C93.5906 1.35851 96.0126 2.06205 98.082 3.21531C99.1156 3.7925 99.697 3.85926 100.26 3.62585C100.821 3.39023 101.275 2.92176 101.275 2.00246H101.766L101.765 2.00411ZM60.0621 27.8316C62.0454 28.4298 65.824 28.8894 68.4567 27.052C71.6153 24.8503 72.2806 19.4713 67.822 16.6687C66.028 15.5392 61.549 15.6176 60.0621 15.958V27.8316V27.8316ZM60.0621 14.3854C61.4674 14.7363 65.6069 14.8312 67.2134 13.8375C69.7294 12.2814 70.6021 9.78504 70.1386 7.57729C69.8598 6.25076 69.139 5.02687 67.8946 4.17545C65.4454 2.49246 61.9106 2.7656 60.0621 3.31353V14.3854V14.3854ZM69.3022 15.1667C74.4078 16.8735 75.8642 20.3835 74.9156 23.9994C73.8032 28.2505 68.8806 29.1146 67.2837 29.321C66.5629 29.4115 64.7235 29.4037 62.9051 29.4037C59.6592 29.4076 55.5537 29.3982 52.2574 29.3982V28.8894H53.9461C55.0188 28.8894 56.2439 28.0082 56.2439 26.6789V4.40886C56.2439 3.07902 55.0188 2.17959 53.9546 2.17959H52.2676V1.66972C55.1791 1.66972 59.4189 1.66862 62.4517 1.66972C64.902 1.66972 66.2325 1.89872 67.0927 2.0615C68.5377 2.33409 72.7571 3.54805 73.7607 7.38085C74.537 10.3484 73.0184 14.0907 69.301 15.1656L69.3022 15.1667ZM50.7246 22.1106C50.8266 23.7494 49.7816 26.238 48.3332 27.5072C46.9426 28.7322 44.9593 29.7972 42.3096 29.7972C39.296 29.7972 36.7052 28.2323 35.7606 27.8802C35.1883 27.6667 34.4391 27.6893 33.9926 27.9586C33.4696 28.272 33.1483 28.7791 33.0281 29.7188H32.5861V20.0557H33.0281C33.4305 23.0288 34.8556 24.7752 35.7408 25.7668C37.1875 27.3913 39.9188 28.3106 42.5498 27.8995C44.6408 27.574 46.929 25.3646 46.6774 22.6282C46.5885 21.6405 46.3658 20.2047 44.2578 18.8638C42.9352 18.0212 41.0561 16.8266 39.2756 15.6755C37.0288 14.2243 34.9894 12.6538 34.4159 12.0171C33.6639 11.1839 32.7272 9.98424 32.7272 8.06618C32.7272 6.42293 33.3704 4.5457 34.7366 3.29312C36.1012 2.04274 37.9485 1.10358 40.6005 1.10358C43.2525 1.10358 45.2619 2.47204 45.9442 2.78491C46.6264 3.09723 47.3812 3.02439 47.8113 2.78491C48.2335 2.54929 48.514 2.19724 48.6358 1.25863H49.0778V10.4141H48.6358C48.2335 7.43989 46.9075 5.21172 45.9838 4.38954C45.0602 3.56736 43.2525 2.43341 40.5608 2.94162C37.978 3.42941 36.7211 4.56667 36.4831 6.57908C36.3018 8.11309 37.1563 9.05666 37.6482 9.63054C38.6529 10.8037 45.0262 14.3208 47.9128 16.751C49.3997 18.0024 50.5648 19.4901 50.7234 22.1111L50.7246 22.1106ZM22.8264 16.5976C22.8077 16.5976 22.8264 26.5531 22.8264 26.5531C22.8264 27.8057 21.7226 28.9027 20.2764 28.9027H18.8904V29.4103H30.6204V28.9027H29.2349C27.8086 28.9027 26.6849 27.787 26.6849 26.5531V4.37299C26.6849 3.15903 27.7899 2.02563 29.2349 2.02563H30.6215V1.51632H18.8915V2.02619H20.277C21.743 2.02619 22.827 3.15958 22.827 4.37354V15.1888H8.92893V4.37354C8.92893 3.15958 10.0532 2.02674 11.4801 2.02674H12.8633V1.51743H1.1333V2.02729H2.5205C3.9655 2.02729 5.07163 3.16069 5.07163 4.37464V26.5526C5.07163 27.7864 3.9655 28.9021 2.5205 28.9021H1.1333V29.4098H12.8633V28.9021H11.4806C10.0538 28.9021 8.9295 27.7864 8.9295 26.5526C8.9295 26.5526 8.94763 16.597 8.9295 16.597H22.8281L22.8264 16.5976Z" fill="#59595B"/>
</svg>
