<svg width="16" height="16" viewBox="0 0 16 16" fill="none" xmlns="http://www.w3.org/2000/svg">
<path d="M10.275 1.01758L4.025 7.14258C3.96604 7.20066 3.92241 7.27247 3.89804 7.35156L2.02304 13.3516C1.99604 13.4394 1.99377 13.533 2.0165 13.6221C2.03922 13.7112 2.08606 13.7922 2.15186 13.8564C2.21766 13.9206 2.29987 13.9654 2.38947 13.9859C2.47908 14.0064 2.5726 14.0018 2.65976 13.9727L8.53476 11.9727C8.60574 11.9489 8.67048 11.9095 8.72422 11.8574L8.96054 11.625H8.99961C8.99961 11.6126 8.99771 11.6022 8.99765 11.5898L14.9742 5.73242L14.275 5.01758L8.87461 10.3086C8.67537 9.3337 8.25827 8.72674 7.79062 8.39062C7.31548 8.04912 7.0392 8.10907 6.80234 8.10742C6.73178 7.99193 6.66471 7.84146 6.37461 7.60938C6.14961 7.42938 5.83613 7.26068 5.45273 7.14453L10.9742 1.73242L10.275 1.01758ZM4.73593 8.01953C5.22699 8.0637 5.54564 8.22745 5.74961 8.39062C5.98592 8.57968 6.05234 8.72266 6.05234 8.72266C6.0985 8.81544 6.17235 8.89158 6.26367 8.94057C6.35499 8.98955 6.45928 9.00896 6.56211 8.99609C6.56211 8.99609 6.85918 8.95198 7.20859 9.20312C7.51374 9.42245 7.87227 9.93713 7.9625 11.1113L4.49765 12.291L3.66171 11.4551L4.73593 8.01953Z" fill="#757575"/>
</svg>
