<svg width="15" height="16" viewBox="0 0 15 16" fill="none" xmlns="http://www.w3.org/2000/svg">
<g clip-path="url(#clip0)">
<path d="M3.14177 1.04297L1.69349 2.61719C0.899272 3.48047 0.726772 4.82422 1.29458 5.87891C1.92708 7.05859 2.44458 7.92969 4.61162 10.2812C6.77505 12.6367 7.36443 12.957 8.43177 13.6367C9.40568 14.2539 10.6383 14.0664 11.429 13.2031L12.8808 11.6289L10.0777 8.58594L8.93849 9.82422C8.80193 9.75781 8.59708 9.64062 8.3599 9.47656C7.87115 9.13672 7.24583 8.61719 6.69599 8.01562C6.14255 7.41797 5.60349 6.67187 5.22974 6.07031C5.04646 5.77344 4.89912 5.50391 4.82005 5.32812C4.81646 5.32031 4.81646 5.32031 4.81287 5.3125L5.9413 4.08594L3.14177 1.04297ZM3.14177 2.45703L4.64037 4.08594L3.98271 4.80469C3.84615 4.95312 3.83177 5.11719 3.83537 5.21094C3.83537 5.30078 3.84974 5.36328 3.86412 5.42188C3.89646 5.54297 3.93958 5.64844 3.99349 5.77344C4.1049 6.01562 4.26662 6.30469 4.46787 6.63281C4.87037 7.28125 5.43818 8.06641 6.04193 8.72656C6.64927 9.38281 7.31771 9.9375 7.86755 10.3164C8.14068 10.5078 8.38146 10.6523 8.5863 10.75C8.69052 10.8008 8.78396 10.8398 8.89537 10.8633C8.94927 10.875 9.01037 10.8828 9.09302 10.875C9.17568 10.8711 9.30505 10.8398 9.42005 10.7148L10.0777 10L11.5799 11.6289L10.7785 12.5C10.279 13.043 9.5063 13.1602 8.89537 12.7734C7.81005 12.082 7.39677 11.8984 5.25849 9.57812C3.1238 7.25391 2.71412 6.53906 2.0888 5.375C1.73302 4.71094 1.84083 3.87109 2.34037 3.32812L3.14177 2.45703Z" fill="#757575"/>
</g>
<defs>
<clipPath id="clip0">
<rect x="0.0400391" width="14.72" height="16" fill="white"/>
</clipPath>
</defs>
</svg>
