<svg width="16" height="16" viewBox="0 0 16 16" fill="none" xmlns="http://www.w3.org/2000/svg">
<path d="M7.5 1C3.91797 1 1 3.91797 1 7.5C1 11.082 3.91797 14 7.5 14C11.082 14 14 11.082 14 7.5C14 3.91797 11.082 1 7.5 1ZM7 2.14062V4H5.60938C5.67969 3.82422 5.74609 3.63672 5.82812 3.48047C6.17969 2.77734 6.58984 2.33984 7 2.14062ZM8 2.14062C8.41016 2.33984 8.82031 2.77734 9.17188 3.48047C9.25391 3.63672 9.32031 3.82422 9.39062 4H8V2.14062ZM5.27344 2.47266C5.15234 2.65234 5.03125 2.83203 4.92969 3.03125C4.78125 3.33203 4.64844 3.65625 4.53125 4H3.26953C3.80859 3.35156 4.48828 2.82031 5.27344 2.47266ZM9.72656 2.47266C10.5117 2.82031 11.1914 3.35156 11.7305 4H10.4688C10.3516 3.65625 10.2188 3.33203 10.0664 3.03125C9.96875 2.83203 9.84766 2.65234 9.72656 2.47266ZM2.60938 5H4.26172C4.125 5.62109 4.05469 6.29688 4.02344 7H2.03906C2.10156 6.28516 2.29688 5.60938 2.60938 5ZM5.29688 5H7V7H5.02344C5.05859 6.28516 5.14844 5.60938 5.29688 5ZM8 5H9.70312C9.85156 5.60938 9.94141 6.28516 9.97656 7H8V5ZM10.7383 5H12.3906C12.7031 5.60938 12.8984 6.28516 12.9648 7H10.9727C10.9453 6.29688 10.875 5.62109 10.7383 5ZM2.03906 8H4.02344C4.05469 8.70312 4.125 9.37891 4.26172 10H2.60938C2.29688 9.39062 2.10156 8.71484 2.03906 8ZM5.02344 8H7V10H5.29688C5.14844 9.39062 5.05859 8.71484 5.02344 8ZM8 8H9.97656C9.94141 8.71484 9.85156 9.39062 9.70312 10H8V8ZM10.9727 8H12.9648C12.8984 8.71484 12.7031 9.39062 12.3906 10H10.7383C10.875 9.37891 10.9453 8.70312 10.9727 8ZM3.26953 11H4.53125C4.64844 11.3438 4.78125 11.668 4.92969 11.9688C5.03125 12.168 5.15234 12.3477 5.27344 12.5273C4.48828 12.1797 3.80859 11.6484 3.26953 11ZM5.60938 11H7V12.8594C6.58984 12.6602 6.17969 12.2227 5.82812 11.5195C5.74609 11.3633 5.67969 11.1758 5.60938 11ZM8 11H9.39062C9.32031 11.1758 9.25391 11.3633 9.17188 11.5195C8.82031 12.2227 8.41016 12.6602 8 12.8594V11ZM10.4688 11H11.7305C11.1914 11.6484 10.5117 12.1797 9.72656 12.5273C9.84766 12.3477 9.96875 12.168 10.0664 11.9688C10.2188 11.668 10.3516 11.3438 10.4688 11Z" fill="#686868"/>
</svg>
