<svg width="16" height="16" viewBox="0 0 16 16" fill="none" xmlns="http://www.w3.org/2000/svg">
<path d="M3.5 2C2.67578 2 2 2.67578 2 3.5V12.5C2 13.3242 2.67578 14 3.5 14H12.5C13.3242 14 14 13.3242 14 12.5V3.5C14 2.67578 13.3242 2 12.5 2H3.5ZM3.5 3H12.5C12.7812 3 13 3.21875 13 3.5V12.5C13 12.7812 12.7812 13 12.5 13H3.5C3.21875 13 3 12.7812 3 12.5V3.5C3 3.21875 3.21875 3 3.5 3ZM8 5C6.90234 5 6 5.90234 6 7C6 7.53516 6.21875 8.02344 6.5625 8.38281C5.63672 8.89453 5 9.87109 5 11H6C6 9.89062 6.89062 9 8 9C9.10938 9 10 9.89062 10 11H11C11 9.87109 10.3633 8.89453 9.4375 8.38281C9.78125 8.02344 10 7.53516 10 7C10 5.90234 9.09766 5 8 5ZM8 6C8.55859 6 9 6.44141 9 7C9 7.55859 8.55859 8 8 8C7.44141 8 7 7.55859 7 7C7 6.44141 7.44141 6 8 6Z" fill="#757575"/>
</svg>
