<svg width="16" height="16" viewBox="0 0 16 16" fill="none" xmlns="http://www.w3.org/2000/svg">
<path d="M7.99955 2C6.34901 2 4.99955 3.34947 4.99955 5C4.99955 5.49597 5.18679 6.00376 5.43314 6.56445C5.64058 7.03659 5.90254 7.5276 6.16947 8H3.49955C3.3995 7.9999 3.30172 8.02981 3.21885 8.08587C3.13598 8.14192 3.07184 8.22155 3.0347 8.31445L1.0347 13.3145C1.00438 13.3904 0.993129 13.4725 1.00193 13.5538C1.01073 13.6351 1.03932 13.7129 1.0852 13.7806C1.13107 13.8482 1.19283 13.9036 1.26506 13.9419C1.3373 13.9801 1.41781 14.0001 1.49955 14H14.4995C14.5813 14.0001 14.6618 13.9801 14.734 13.9419C14.8063 13.9036 14.868 13.8482 14.9139 13.7806C14.9598 13.7129 14.9884 13.6351 14.9972 13.5538C15.006 13.4725 14.9947 13.3904 14.9644 13.3145L12.9644 8.31445C12.9273 8.22155 12.8631 8.14192 12.7802 8.08587C12.6974 8.02981 12.5996 7.9999 12.4995 8H9.82962C10.0965 7.5276 10.3585 7.03659 10.566 6.56445C10.8123 6.00376 10.9995 5.49597 10.9995 5C10.9995 3.34947 9.65008 2 7.99955 2ZM7.99955 3C9.10901 3 9.99955 3.89053 9.99955 5C9.99955 5.19403 9.87429 5.65593 9.65189 6.16211C9.42949 6.66829 9.12459 7.23885 8.81791 7.76758C8.40985 8.47107 8.22765 8.7214 7.99955 9.06445C7.77144 8.7214 7.58924 8.47107 7.18119 7.76758C6.8745 7.23885 6.5696 6.66829 6.3472 6.16211C6.1248 5.65593 5.99955 5.19403 5.99955 5C5.99955 3.89053 6.89008 3 7.99955 3ZM7.99955 4C7.73433 4 7.47998 4.10536 7.29244 4.29289C7.1049 4.48043 6.99955 4.73478 6.99955 5C6.99955 5.26522 7.1049 5.51957 7.29244 5.70711C7.47998 5.89464 7.73433 6 7.99955 6C8.26476 6 8.51912 5.89464 8.70665 5.70711C8.89419 5.51957 8.99955 5.26522 8.99955 5C8.99955 4.73478 8.89419 4.48043 8.70665 4.29289C8.51912 4.10536 8.26476 4 7.99955 4ZM3.83744 9H6.76908C7.20892 9.70912 7.58744 10.2832 7.58744 10.2832L7.99955 10.8789L8.41166 10.2832C8.41166 10.2832 8.79017 9.70912 9.23001 9H12.1617L13.7613 13H2.23783L3.83744 9Z" fill="#757575"/>
</svg>
