<svg width="16" height="16" viewBox="0 0 16 16" fill="none" xmlns="http://www.w3.org/2000/svg">
<path d="M9 1V4H10V2.10156C12.7969 2.36719 15 4.63281 15 7.5C15 10.543 12.543 13 9.5 13C6.45703 13 4 10.543 4 7.5C4 6.44922 4.29297 5.47266 4.80078 4.64062L3.94922 4.11719C3.34766 5.10547 3 6.26562 3 7.5C3 11.0859 5.91406 14 9.5 14C13.0859 14 16 11.0859 16 7.5C16 3.91406 13.0859 1 9.5 1H9ZM6.49219 3.99219C6.28906 3.99609 6.10547 4.11719 6.03125 4.30859C5.95312 4.49609 6 4.71094 6.14844 4.85156L9.14844 7.85156C9.27344 7.98438 9.45703 8.03516 9.63281 7.99219C9.80859 7.94531 9.94531 7.80859 9.99219 7.63281C10.0352 7.45703 9.98438 7.27344 9.85156 7.14844L6.85156 4.14844C6.75781 4.05078 6.62891 3.99219 6.49219 3.99219Z" fill="#757575"/>
</svg>
