<svg width="13" height="12" viewBox="0 0 13 12" fill="none" xmlns="http://www.w3.org/2000/svg">
  <path d="M8.99609 9.75C8.99609 9.89062 8.88672 10 8.74609 10H5.24609C5.10547 10 4.99609 9.89062 4.99609 9.75V8.5C4.99609 8.35937 5.10547 8.25 5.24609 8.25H5.99609V5.75H5.24609C5.10547 5.75 4.99609 5.64062 4.99609 5.5V4.25C4.99609 4.10937 5.10547 4 5.24609 4H7.74609C7.88672 4 7.99609 4.10937 7.99609 4.25V8.25H8.74609C8.88672 8.25 8.99609 8.35937 8.99609 8.5V9.75ZM7.99609 2.75C7.99609 2.89062 7.88672 3 7.74609 3H6.24609C6.10547 3 5.99609 2.89062 5.99609 2.75V1.5C5.99609 1.35937 6.10547 1.25 6.24609 1.25H7.74609C7.88672 1.25 7.99609 1.35937 7.99609 1.5V2.75ZM12.9961 6C12.9961 2.6875 10.3086 -5.96046e-07 6.99609 -5.96046e-07C3.68359 -5.96046e-07 0.996094 2.6875 0.996094 6C0.996094 9.3125 3.68359 12 6.99609 12C10.3086 12 12.9961 9.3125 12.9961 6Z" fill="#FF6600"/>
</svg>
