<svg width="38" height="38" viewBox="0 0 38 38" fill="none" xmlns="http://www.w3.org/2000/svg">
<path d="M11.44 0.52002C5.41722 0.52002 0.52002 5.41722 0.52002 11.44V26.56C0.52002 32.5828 5.41722 37.48 11.44 37.48H26.56C32.5828 37.48 37.48 32.5828 37.48 26.56V11.44C37.48 5.41722 32.5828 0.52002 26.56 0.52002H11.44ZM29.08 7.24002C30.004 7.24002 30.76 7.99602 30.76 8.92002C30.76 9.84402 30.004 10.6 29.08 10.6C28.156 10.6 27.4 9.84402 27.4 8.92002C27.4 7.99602 28.156 7.24002 29.08 7.24002ZM19 9.76002C24.0988 9.76002 28.24 13.9012 28.24 19C28.24 24.0988 24.0988 28.24 19 28.24C13.9012 28.24 9.76002 24.0988 9.76002 19C9.76002 13.9012 13.9012 9.76002 19 9.76002ZM19 11.44C14.8336 11.44 11.44 14.8336 11.44 19C11.44 23.1664 14.8336 26.56 19 26.56C23.1664 26.56 26.56 23.1664 26.56 19C26.56 14.8336 23.1664 11.44 19 11.44Z" fill="white"/>
</svg>
