<svg width="18" height="15" viewBox="0 0 18 15" fill="none" xmlns="http://www.w3.org/2000/svg">
  <path d="M12.8571 6.64286C12.8571 6.99442 12.5658 7.28571 12.2143 7.28571C9.7433 7.28571 8.18638 7.93862 6.3683 9.57589C5.88616 10.0279 5.4442 10.51 4.95201 10.952C4.82143 11.0725 4.6808 11.1429 4.5 11.1429C4.14844 11.1429 3.85714 10.8516 3.85714 10.5C3.85714 10.3192 3.92746 10.1786 4.04799 10.048C6.3683 7.48661 8.65848 6 12.2143 6C12.5658 6 12.8571 6.29129 12.8571 6.64286ZM18 4.65402C18 3.80022 17.6283 0.857142 16.4933 0.857142C15.6496 0.857142 15.3783 1.32924 14.8259 1.84152C13.4297 3.16741 9.05022 2.37388 6.99107 3.05692C4.13839 4.00112 1.5971 6.28125 1.5971 9.47545C1.5971 9.82701 1.62723 10.1786 1.6875 10.5201C1.72768 10.721 1.98884 11.2533 1.98884 11.3437C1.98884 11.9263 0 12.74 0 13.7846C0 13.9955 0.0703125 14.0558 0.160714 14.2266C0.43192 14.6886 0.622768 15 1.25558 15C2.12946 15 2.73214 12.9509 3.23438 12.9509C3.63616 12.9509 4.60045 13.5837 5.08259 13.7444C5.99665 14.0558 6.99107 14.2165 7.95536 14.2165C9.48214 14.2165 10.9989 13.8147 12.3549 13.1317C15.1473 11.7455 17.1563 9.71652 17.7991 6.59263C17.9297 5.94978 18 5.29688 18 4.65402Z" fill="#14A38E"/>
</svg>
