<svg width="166" height="42" viewBox="0 0 166 42" fill="none" xmlns="http://www.w3.org/2000/svg">
<path d="M55.6306 26.668V23.6505H54.3298L54.1914 24.1942C54.0807 24.6835 53.9424 24.9553 52.7523 24.9553H49.4036C48.684 24.9553 48.1305 24.9553 48.1305 24.0311V12.532C48.1305 11.6893 48.518 11.5262 49.1822 11.3903L49.5973 11.2816V10.0583H44.5604V11.2816L44.9755 11.3903C45.6121 11.5262 46.0272 11.7165 46.0272 12.532V24.0854C46.0272 24.9282 45.6674 25.0913 45.1416 25.2L44.5881 25.3087V26.6408L55.6306 26.668ZM72.1251 26.668V23.6505H70.686L70.5476 24.1942C70.4092 24.6835 70.2155 24.9553 69.3576 24.9553H64.9848C64.2653 24.9553 64.0992 24.7107 64.0992 23.7864V19.1107H67.2265C68.1952 19.1107 68.3059 19.2194 68.4719 19.7087L68.6657 20.2796H69.8834V16.3379H68.6657L68.4996 16.9087C68.3336 17.4252 68.1952 17.5068 67.2265 17.5068H64.0715V12.9126C64.0715 11.9883 64.2376 11.7437 64.9572 11.7437H69.0531C69.9111 11.7437 70.0771 12.0155 70.2432 12.532L70.3815 13.0485H71.8207V10.0583H60.4461V11.2816L60.8612 11.3903C61.4977 11.5262 61.9129 11.7165 61.9129 12.532V24.2214C61.9129 25.0641 61.5531 25.2272 61.0273 25.3359L60.4461 25.4447V26.668H72.1251ZM90.6399 26.668V18.5942H86.4333V20.1709L88.4812 20.4155V23.1068C87.734 24.3301 86.1288 25.1184 84.5237 25.1184C83.2229 25.1184 80.0679 24.7922 80.0679 20.7417V16.0932C80.0679 12.668 82.4757 11.635 84.5237 11.635C85.9628 11.635 87.5679 11.9883 88.5089 12.6136V14.7068H90.5292C90.5292 14.7068 90.6122 13.9184 90.6122 11.3631C88.7857 10.3029 86.6823 9.75922 84.5513 9.78641C81.0642 9.78641 77.9923 11.6078 77.9923 16.2563V20.7689C77.9923 25.5806 81.3133 26.9126 84.5513 26.9126C85.9628 26.9126 87.734 26.3417 88.5089 25.499H88.6196L89.1731 26.6408L90.6399 26.668ZM108.38 26.668V23.6505H106.941L106.802 24.1942C106.664 24.6835 106.47 24.9553 105.612 24.9553H101.24C100.52 24.9553 100.354 24.7107 100.354 23.7864V19.1107H103.481C104.45 19.1107 104.561 19.2194 104.727 19.7087L104.92 20.2796H106.138V16.3379H104.92L104.754 16.9087C104.588 17.4252 104.45 17.5068 103.481 17.5068H100.326V12.9126C100.326 11.9883 100.492 11.7437 101.212 11.7437H105.308C106.166 11.7437 106.332 12.0155 106.498 12.532L106.636 13.0485H108.075V10.0583H96.7008V11.2816L97.116 11.3903C97.7525 11.5262 98.1676 11.7165 98.1676 12.532V24.2214C98.1676 25.0641 97.8078 25.2272 97.282 25.3359L96.7008 25.4447V26.668H108.38ZM127.919 26.668V12.532C127.919 11.6893 128.306 11.5262 128.97 11.3903L129.385 11.2816V10.0583H124.459V11.2816L124.874 11.3903C125.511 11.5262 125.926 11.7165 125.926 12.532V22.8078L118.149 10.0583H114.33V11.2816L114.745 11.3903C115.354 11.5262 115.769 11.7165 115.769 12.532V24.2214C115.769 25.0641 115.409 25.2272 114.856 25.3359L114.275 25.4447V26.668H119.229V25.4447L118.647 25.3359C118.094 25.2272 117.762 25.0641 117.762 24.2214V13.2388L125.981 26.6951H127.919V26.668ZM139.542 24.9553C138.823 24.9553 138.657 24.9553 138.657 24.0039V12.6951C138.657 11.8796 138.823 11.7709 139.542 11.7709H142.088C145.188 11.7709 146.821 13.8097 146.821 18.5126C146.821 23.4602 144.413 24.9553 141.895 24.9553H139.542ZM141.839 26.668C147.208 26.668 149.007 22.4544 149.007 18.5126C149.007 12.5864 146.267 10.0583 142.31 10.0583H135.059V11.2816L135.474 11.3903C136.111 11.5262 136.526 11.7165 136.526 12.532V24.2214C136.526 25.0641 136.166 25.2272 135.64 25.3359L135.059 25.4447V26.668H141.839ZM165.419 14.435C165.419 14.435 165.557 13.5922 165.557 11.0369C164.533 10.466 162.873 9.75922 160.299 9.75922C157.227 9.75922 154.625 10.8194 154.625 14.299C154.625 19.6272 163.897 17.9417 163.897 22.1825C163.897 23.9767 162.375 25.0369 160.216 25.0369C159.137 25.0369 157.642 24.8194 156.729 24.3029L156.48 22.1825H154.736C154.736 22.1825 154.542 22.9981 154.542 25.5534C155.539 26.0971 157.199 26.8854 160.216 26.8854C164.007 26.8854 166 25.0369 166 21.9922C166 15.9301 156.729 18.268 156.729 14.0272C156.729 12.1515 158.445 11.5806 160.354 11.5806C161.24 11.5806 162.679 11.8524 163.426 12.3146L163.565 14.4078L165.419 14.435ZM23.2227 42C22.7799 42 22.4478 41.6466 22.4478 41.2388C22.4478 40.8039 22.8075 40.4777 23.2227 40.4777C23.6655 40.4777 23.9976 40.8311 23.9976 41.2388C23.9976 41.6466 23.6655 42 23.2227 42ZM23.2227 40.5592C22.8629 40.5592 22.5585 40.8583 22.5308 41.2117C22.5308 41.565 22.8352 41.8641 23.195 41.8913C23.5548 41.8913 23.8592 41.5922 23.8869 41.2388C23.8869 40.8582 23.5825 40.5592 23.2227 40.5592ZM23.4164 41.6466L23.2227 41.2932H23.0843V41.6466H22.9736V40.8039H23.278C23.4164 40.8039 23.5548 40.9126 23.5548 41.0485C23.5548 41.1573 23.4718 41.266 23.3611 41.2932L23.5548 41.6466H23.4164ZM23.2504 40.9126H23.0843V41.2117H23.2504C23.3334 41.2117 23.4164 41.1573 23.4164 41.0757C23.4164 40.967 23.3334 40.9126 23.2504 40.9126ZM18.5455 41.8913C18.5455 41.9184 18.5732 41.9184 18.5455 41.8913C18.5732 41.9184 18.5732 41.9184 18.6009 41.9184V41.8913C22.005 40.0155 25.0216 37.5146 27.4847 34.5243H9.68941C12.1248 37.5417 15.1415 40.0427 18.5455 41.8913ZM10.409 4.3767C10.409 0.0271846 7.64143 0.0271845 7.64143 0.0271845H0.0860522C0.0860522 0.0271845 -1.51912 20.1981 9.1359 33.8718C9.77244 33.1379 10.409 31.6427 10.409 28.5437V4.3767ZM16.3038 30.7184H23.9422C28.7301 30.7184 30.2799 30.1476 31.9958 27.3748C38.2227 14.5981 37.0604 0 37.0604 0H18.5455C16.3038 0 16.3038 2.12039 16.3038 4.34951V30.7184Z" fill="#59595B"/>
</svg>
