<svg width="42" height="38" viewBox="0 0 42 38" fill="none" xmlns="http://www.w3.org/2000/svg">
<path d="M2.00012 2.79407e-05C1.80136 -0.00278313 1.60401 0.0339388 1.41956 0.108059C1.23511 0.18218 1.06722 0.292221 0.92567 0.431788C0.784116 0.571355 0.671712 0.737663 0.59499 0.921049C0.518269 1.10443 0.47876 1.30124 0.47876 1.50003C0.47876 1.69882 0.518269 1.89562 0.59499 2.07901C0.671712 2.26239 0.784116 2.4287 0.92567 2.56827C1.06722 2.70783 1.23511 2.81788 1.41956 2.892C1.60401 2.96612 1.80136 3.00284 2.00012 3.00003H4.81848C5.15734 3.00003 5.44009 3.21222 5.53626 3.53909L11.9288 25.2715C12.4899 27.1791 14.2542 28.5 16.2443 28.5H38.0001C38.1989 28.5028 38.3962 28.4661 38.5807 28.392C38.7651 28.3179 38.933 28.2078 39.0746 28.0683C39.2161 27.9287 39.3285 27.7624 39.4053 27.579C39.482 27.3956 39.5215 27.1988 39.5215 27C39.5215 26.8012 39.482 26.6044 39.4053 26.421C39.3285 26.2377 39.2161 26.0714 39.0746 25.9318C38.933 25.7922 38.7651 25.6822 38.5807 25.6081C38.3962 25.5339 38.1989 25.4972 38.0001 25.5H16.2443C15.5733 25.5 14.9947 25.0673 14.8058 24.4248L8.41614 2.69241C8.41516 2.69241 8.41419 2.69241 8.41321 2.69241C7.94537 1.10228 6.47463 2.79407e-05 4.81848 2.79407e-05H2.00012ZM15.5001 3.00003C15.3014 2.99722 15.104 3.03394 14.9196 3.10806C14.7351 3.18218 14.5672 3.29222 14.4257 3.43179C14.2841 3.57135 14.1717 3.73766 14.095 3.92105C14.0183 4.10443 13.9788 4.30124 13.9788 4.50003C13.9788 4.69882 14.0183 4.89562 14.095 5.07901C14.1717 5.26239 14.2841 5.4287 14.4257 5.56827C14.5672 5.70783 14.7351 5.81788 14.9196 5.892C15.104 5.96612 15.3014 6.00284 15.5001 6.00003V19.5C15.5001 21.1575 16.8426 22.5 18.5001 22.5H36.5001C38.1576 22.5 39.5001 21.1575 39.5001 19.5V6.00003C39.6989 6.00284 39.8962 5.96612 40.0807 5.892C40.2651 5.81788 40.433 5.70783 40.5746 5.56827C40.7161 5.4287 40.8285 5.26239 40.9053 5.07901C40.982 4.89562 41.0215 4.69882 41.0215 4.50003C41.0215 4.30124 40.982 4.10443 40.9053 3.92105C40.8285 3.73766 40.7161 3.57135 40.5746 3.43179C40.433 3.29222 40.2651 3.18218 40.0807 3.10806C39.8962 3.03394 39.6989 2.99722 39.5001 3.00003H15.5001ZM24.5001 6.00003H30.5001C31.3281 6.00003 32.0001 6.67203 32.0001 7.50003C32.0001 8.32803 31.3281 9.00003 30.5001 9.00003H24.5001C23.6721 9.00003 23.0001 8.32803 23.0001 7.50003C23.0001 6.67203 23.6721 6.00003 24.5001 6.00003ZM20.0001 31.5C19.2045 31.5 18.4414 31.8161 17.8788 32.3787C17.3162 32.9413 17.0001 33.7044 17.0001 34.5C17.0001 35.2957 17.3162 36.0587 17.8788 36.6213C18.4414 37.184 19.2045 37.5 20.0001 37.5C20.7958 37.5 21.5588 37.184 22.1214 36.6213C22.6841 36.0587 23.0001 35.2957 23.0001 34.5C23.0001 33.7044 22.6841 32.9413 22.1214 32.3787C21.5588 31.8161 20.7958 31.5 20.0001 31.5ZM35.0001 31.5C34.2045 31.5 33.4414 31.8161 32.8788 32.3787C32.3162 32.9413 32.0001 33.7044 32.0001 34.5C32.0001 35.2957 32.3162 36.0587 32.8788 36.6213C33.4414 37.184 34.2045 37.5 35.0001 37.5C35.7958 37.5 36.5588 37.184 37.1214 36.6213C37.6841 36.0587 38.0001 35.2957 38.0001 34.5C38.0001 33.7044 37.6841 32.9413 37.1214 32.3787C36.5588 31.8161 35.7958 31.5 35.0001 31.5Z" fill="#FF6600"/>
</svg>
