<svg width="43" height="33" viewBox="0 0 43 33" fill="none" xmlns="http://www.w3.org/2000/svg">
<path d="M8 0C6.3425 0 5 1.3425 5 3V9L0.5 15C0.5 16.6575 1.8425 18 3.5 18C5.1575 18 6.5 16.6575 6.5 15L9.5 9H14L12.5 15C12.5 16.6575 13.8425 18 15.5 18C17.1575 18 18.5 16.6575 18.5 15V9H24.5V15C24.5 16.6575 25.8425 18 27.5 18C29.1575 18 30.5 16.6575 30.5 15L29 9H33.5L36.5 15C36.5 16.6575 37.8425 18 39.5 18C41.1575 18 42.5 16.6575 42.5 15L38 9V3C38 1.3425 36.6575 0 35 0H8ZM9.5 3C10.328 3 11 3.672 11 4.5C11 5.328 10.328 6 9.5 6C8.672 6 8 5.328 8 4.5C8 3.672 8.672 3 9.5 3ZM15.5 3C16.328 3 17 3.672 17 4.5C17 5.328 16.328 6 15.5 6C14.672 6 14 5.328 14 4.5C14 3.672 14.672 3 15.5 3ZM5 21V30C5 31.6575 6.3425 33 8 33H35C36.6575 33 38 31.6575 38 30V21H35V30H8V21H5Z" fill="#FF6600"/>
</svg>
