<svg width="35" height="37" viewBox="0 0 35 37" fill="none" xmlns="http://www.w3.org/2000/svg">
<path d="M6.5 0.5C6.10219 0.50004 5.72068 0.658088 5.43938 0.939384C5.15809 1.22068 5.00004 1.60219 5 2V27.5H2C1.60219 27.5 1.22068 27.6581 0.939384 27.9394C0.658088 28.2207 0.50004 28.6022 0.5 29C0.5 33.1243 3.87573 36.5 8 36.5H27.5C27.5499 36.4996 27.5998 36.4966 27.6494 36.4912C31.7048 36.4101 35 33.0739 35 29V2C35 1.60219 34.8419 1.22068 34.5606 0.939384C34.2793 0.658088 33.8978 0.50004 33.5 0.5H6.5ZM8 3.5H32V29C32 31.5027 30.0027 33.5 27.5 33.5C24.9973 33.5 23 31.5027 23 29C23 28.6022 22.8419 28.2207 22.5606 27.9394C22.2793 27.6581 21.8978 27.5 21.5 27.5H8V3.5ZM12.5 8V11H15.5V8H12.5ZM18.5 8V11H27.5V8H18.5ZM12.5 14V17H15.5V14H12.5ZM18.5 14V17H27.5V14H18.5ZM12.5 20V23H15.5V20H12.5ZM18.5 20V23H27.5V20H18.5Z" fill="#FF6600"/>
</svg>
