<svg width="16" height="20" viewBox="0 0 16 20" fill="none" xmlns="http://www.w3.org/2000/svg">
<path d="M7.99983 0C4.00589 0 0.756592 3.2493 0.756592 7.2432C0.756592 12.1998 7.23858 19.4763 7.51456 19.7836C7.77378 20.0723 8.22636 20.0718 8.48511 19.7836C8.76108 19.4763 15.2431 12.1998 15.2431 7.2432C15.243 3.2493 11.9937 0 7.99983 0ZM7.99983 10.8875C5.99038 10.8875 4.35562 9.25266 4.35562 7.2432C4.35562 5.23375 5.99042 3.59898 7.99983 3.59898C10.0092 3.59898 11.644 5.23379 11.644 7.24324C11.644 9.2527 10.0092 10.8875 7.99983 10.8875Z" fill="white"/>
</svg>
