<svg width="22" height="31" viewBox="0 0 22 31" fill="none" xmlns="http://www.w3.org/2000/svg">
<path d="M9.59778 29.7376L9.59784 29.7376L9.59286 29.7303C8.02637 27.4452 5.7422 23.938 3.85178 20.4312C2.90643 18.6775 2.06431 16.9327 1.45969 15.3465C0.851299 13.7503 0.5 12.3567 0.5 11.292C0.5 5.31541 5.20946 0.5 11 0.5C16.7905 0.5 21.5 5.31541 21.5 11.292C21.5 12.3567 21.1487 13.7503 20.5403 15.3465C19.9357 16.9327 19.0936 18.6775 18.1482 20.4312C16.2578 23.938 13.9736 27.4452 12.4071 29.7303L12.4071 29.7303L12.4022 29.7376C11.7314 30.7541 10.2686 30.7541 9.59778 29.7376ZM6.32331 10.6128C6.32331 13.2538 8.3958 15.4004 11 15.4004C13.6042 15.4004 15.6767 13.2538 15.6767 10.6128C15.6767 8.011 13.601 5.86768 11 5.86768C8.399 5.86768 6.32331 8.011 6.32331 10.6128Z" stroke="url(#paint0_linear)"/>
<defs>
<linearGradient id="paint0_linear" x1="11" y1="0" x2="11" y2="31" gradientUnits="userSpaceOnUse">
<stop stop-color="#333333"/>
<stop offset="1" stop-color="#4B4B4B"/>
</linearGradient>
</defs>
</svg>
