<svg width="12" height="13" viewBox="0 0 12 13" fill="none" xmlns="http://www.w3.org/2000/svg">
<path d="M6 0C3.79678 0 2 1.79678 2 4V5H1.5C0.677469 5 0 5.67747 0 6.5V11.5C0 12.3225 0.677469 13 1.5 13H10.5C11.3225 13 12 12.3225 12 11.5V6.5C12 5.67747 11.3225 5 10.5 5H10V4C10 1.79678 8.20322 0 6 0ZM6 1C7.66278 1 9 2.33722 9 4V5H3V4C3 2.33722 4.33722 1 6 1ZM1.5 6H10.5C10.7815 6 11 6.21853 11 6.5V11.5C11 11.7815 10.7815 12 10.5 12H1.5C1.21853 12 1 11.7815 1 11.5V6.5C1 6.21853 1.21853 6 1.5 6ZM3 8C2.73478 8 2.48043 8.10536 2.29289 8.29289C2.10536 8.48043 2 8.73478 2 9C2 9.26522 2.10536 9.51957 2.29289 9.70711C2.48043 9.89464 2.73478 10 3 10C3.26522 10 3.51957 9.89464 3.70711 9.70711C3.89464 9.51957 4 9.26522 4 9C4 8.73478 3.89464 8.48043 3.70711 8.29289C3.51957 8.10536 3.26522 8 3 8ZM6 8C5.73478 8 5.48043 8.10536 5.29289 8.29289C5.10536 8.48043 5 8.73478 5 9C5 9.26522 5.10536 9.51957 5.29289 9.70711C5.48043 9.89464 5.73478 10 6 10C6.26522 10 6.51957 9.89464 6.70711 9.70711C6.89464 9.51957 7 9.26522 7 9C7 8.73478 6.89464 8.48043 6.70711 8.29289C6.51957 8.10536 6.26522 8 6 8ZM9 8C8.73478 8 8.48043 8.10536 8.29289 8.29289C8.10536 8.48043 8 8.73478 8 9C8 9.26522 8.10536 9.51957 8.29289 9.70711C8.48043 9.89464 8.73478 10 9 10C9.26522 10 9.51957 9.89464 9.70711 9.70711C9.89464 9.51957 10 9.26522 10 9C10 8.73478 9.89464 8.48043 9.70711 8.29289C9.51957 8.10536 9.26522 8 9 8Z" fill="#757575"/>
</svg>
