<svg height="54" width='100%' viewBox="0 0 247 54" fill="none" xmlns="http://www.w3.org/2000/svg">
<path d="M15.9707 23.5625H8.16797C7.82487 23.5625 7.65332 23.7119 7.65332 24.0107C7.65332 24.7301 8.04069 25.4108 8.81543 26.0527C9.60124 26.6836 10.4424 26.999 11.3389 26.999C11.8701 26.999 12.4567 26.8994 13.0986 26.7002C13.7516 26.4899 14.2884 26.2354 14.709 25.9365C15.0853 25.6709 15.3841 25.5381 15.6055 25.5381C15.8932 25.5381 16.1755 25.7152 16.4521 26.0693C16.7288 26.4235 16.8672 26.7887 16.8672 27.165C16.8672 27.9619 16.3691 28.7311 15.373 29.4727C13.6133 30.7897 11.5824 31.4482 9.28027 31.4482C6.95605 31.4482 5.00814 30.7731 3.43652 29.4229C2.67285 28.7588 2.04199 27.9564 1.54395 27.0156C0.890951 25.765 0.564453 24.4479 0.564453 23.0645C0.564453 21.2051 1.12891 19.5339 2.25781 18.0508C3.23177 16.7669 4.47135 15.8096 5.97656 15.1787C7.10547 14.7028 8.32845 14.4648 9.64551 14.4648C11.7484 14.4648 13.5358 15.0625 15.0078 16.2578C15.7493 16.8555 16.347 17.5638 16.8008 18.3828C17.321 19.3125 17.5811 20.2201 17.5811 21.1055C17.5811 21.8249 17.4316 22.417 17.1328 22.8818C16.834 23.3356 16.4466 23.5625 15.9707 23.5625ZM8.59961 20.458H10.2764C10.9847 20.458 11.3389 20.1315 11.3389 19.4785C11.3389 18.8809 11.1673 18.3939 10.8242 18.0176C10.4811 17.6413 10.0329 17.4531 9.47949 17.4531C8.8597 17.4531 8.37272 17.6966 8.01855 18.1836C7.68652 18.6374 7.52051 19.0967 7.52051 19.5615C7.52051 19.8936 7.59798 20.126 7.75293 20.2588C7.91895 20.3916 8.20117 20.458 8.59961 20.458ZM28.1396 14.4482C30.0654 14.4482 31.6979 14.9352 33.0371 15.9092C33.7454 16.4294 34.238 17.027 34.5146 17.7021C34.8024 18.3662 34.9463 19.2848 34.9463 20.458L34.9131 22.9316C34.9131 24.6471 35.0348 25.7594 35.2783 26.2686C35.4001 26.512 35.5163 26.667 35.627 26.7334C35.7376 26.7998 35.9701 26.8607 36.3242 26.916C36.6784 26.9714 36.8555 27.2038 36.8555 27.6133C36.8555 28.1445 36.6396 28.6979 36.208 29.2734C35.7874 29.849 35.2396 30.3304 34.5645 30.7178C33.7344 31.2048 32.8656 31.4482 31.958 31.4482C30.7959 31.4482 29.8773 31.0498 29.2021 30.2529C28.9697 29.9652 28.7539 29.8213 28.5547 29.8213C28.3333 29.8213 28.04 29.9596 27.6748 30.2363C26.568 31.0443 25.3118 31.4482 23.9062 31.4482C22.4564 31.4482 21.2832 31.1383 20.3867 30.5186C19.8001 30.109 19.3353 29.5778 18.9922 28.9248C18.6491 28.2607 18.4775 27.569 18.4775 26.8496C18.4775 25.6986 18.9424 24.6803 19.8721 23.7949C21.3219 22.4004 23.4912 21.6976 26.3799 21.6865C27.0218 21.6865 27.4258 21.6257 27.5918 21.5039C27.7578 21.3711 27.8408 21.0723 27.8408 20.6074C27.8408 19.4342 27.7191 18.5876 27.4756 18.0674C27.2321 17.5361 26.8337 17.2705 26.2803 17.2705C25.9482 17.2705 25.6494 17.3701 25.3838 17.5693C25.1292 17.7686 24.8083 18.1338 24.4209 18.665C23.4359 20.0706 22.4066 20.7734 21.333 20.7734C20.7907 20.7734 20.348 20.613 20.0049 20.292C19.6618 19.971 19.4902 19.5505 19.4902 19.0303C19.4902 18.499 19.7005 17.9678 20.1211 17.4365C20.5527 16.9053 21.1338 16.4404 21.8643 16.042C23.8675 14.9795 25.9593 14.4482 28.1396 14.4482ZM27.0273 24.0605C26.5404 24.0605 26.1143 24.2598 25.749 24.6582C25.3949 25.0566 25.2178 25.5326 25.2178 26.0859C25.2178 26.6172 25.3451 27.0488 25.5996 27.3809C25.8542 27.7018 26.1917 27.8623 26.6123 27.8623C27.4977 27.8623 27.9404 27.1152 27.9404 25.6211C27.9404 25.0124 27.874 24.6029 27.7412 24.3926C27.6195 24.1823 27.3815 24.0716 27.0273 24.0605ZM44.5918 14.4648C45.1452 14.4648 46.0472 14.5866 47.2979 14.8301C47.5524 14.8743 47.7627 14.8965 47.9287 14.8965C48.1169 14.8965 48.4821 14.7969 49.0244 14.5977C49.279 14.498 49.4948 14.4482 49.6719 14.4482C50.181 14.4482 50.6956 14.7747 51.2158 15.4277C51.6364 15.9479 51.9795 16.5179 52.2451 17.1377C52.5107 17.7575 52.6436 18.2943 52.6436 18.748C52.6436 19.1908 52.4886 19.5615 52.1787 19.8604C51.8688 20.1481 51.4814 20.292 51.0166 20.292C50.6292 20.292 50.2806 20.1979 49.9707 20.0098C49.6719 19.8216 49.1849 19.4066 48.5098 18.7646C47.8014 18.0785 47.2148 17.7354 46.75 17.7354C46.4401 17.7354 46.1689 17.8516 45.9365 18.084C45.7152 18.3053 45.6045 18.571 45.6045 18.8809C45.6045 19.4232 46.1247 19.9323 47.165 20.4082C49.0355 21.2493 50.4688 22.168 51.4648 23.1641C52.306 24.0052 52.7266 25.0345 52.7266 26.252C52.7266 27.7904 52.0514 29.0742 50.7012 30.1035C49.5391 31 48.1169 31.4482 46.4346 31.4482C46.0029 31.4482 45.2171 31.3763 44.0771 31.2324C43.0036 31.1107 42.4004 31.0498 42.2676 31.0498C42.1237 31.0498 41.9577 31.0664 41.7695 31.0996C41.4486 31.1439 41.2161 31.166 41.0723 31.166C40.5521 31.166 40.1426 31.0332 39.8438 30.7676C39.39 30.3581 38.9694 29.7161 38.582 28.8418C38.1947 27.9564 38.001 27.1982 38.001 26.5674C38.001 25.5492 38.3994 25.04 39.1963 25.04C39.5062 25.04 39.7884 25.1452 40.043 25.3555C40.3086 25.5547 40.8564 26.097 41.6865 26.9824C42.1403 27.4694 42.5166 27.807 42.8154 27.9951C43.1143 28.1722 43.4352 28.2607 43.7783 28.2607C44.1436 28.2607 44.4368 28.1667 44.6582 27.9785C44.8796 27.7793 44.9902 27.5192 44.9902 27.1982C44.9902 26.7002 44.5641 26.2464 43.7119 25.8369C41.93 24.9626 40.6406 24.0605 39.8438 23.1309C39.0579 22.2012 38.665 21.1276 38.665 19.9102C38.665 18.5931 39.069 17.4587 39.877 16.5068C41.028 15.1455 42.5996 14.4648 44.5918 14.4648ZM69.9756 22.6328L67.7842 28.6592C67.2419 30.1533 66.694 31.3708 66.1406 32.3115C65.5983 33.2633 64.9785 34.0713 64.2812 34.7354C62.8424 36.1077 61.1104 36.7939 59.085 36.7939C57.4469 36.7939 56.1188 36.3623 55.1006 35.499C54.3148 34.835 53.9219 33.9883 53.9219 32.959C53.9219 32.1068 54.193 31.3929 54.7354 30.8174C55.2887 30.2308 55.9639 29.9375 56.7607 29.9375C57.5576 29.9375 58.1995 30.2031 58.6865 30.7344C58.9189 30.9779 59.0739 31.1937 59.1514 31.3818C59.2288 31.57 59.3451 31.985 59.5 32.627C59.6217 33.1139 59.8984 33.3574 60.3301 33.3574C60.6732 33.3574 60.9609 33.208 61.1934 32.9092C61.4258 32.6104 61.542 32.2396 61.542 31.7969C61.542 31.2767 61.2542 30.4079 60.6787 29.1904L56.6777 20.6738C56.2572 19.7884 55.9417 19.235 55.7314 19.0137C55.5212 18.7923 55.0563 18.5212 54.3369 18.2002C54.1156 18.1117 53.9219 17.9401 53.7559 17.6855C53.6009 17.4199 53.5234 17.1654 53.5234 16.9219C53.5234 15.9368 54.5029 15.2673 56.4619 14.9131C57.7679 14.6807 59.2565 14.5645 60.9277 14.5645C62.1009 14.5645 63.0251 14.6862 63.7002 14.9297C64.6077 15.2507 65.0615 15.7985 65.0615 16.5732C65.0615 16.8499 64.9342 17.1764 64.6797 17.5527C64.4362 17.9069 64.3145 18.2223 64.3145 18.499C64.3145 18.7646 64.3698 19.0413 64.4805 19.3291C64.6022 19.6169 64.8512 20.1038 65.2275 20.79C65.6481 21.5648 66.0189 21.9521 66.3398 21.9521C66.6829 21.9521 67.0371 21.6146 67.4023 20.9395C67.7676 20.2533 67.9502 19.5947 67.9502 18.9639C67.9502 18.4548 67.8118 18.0397 67.5352 17.7188C67.1146 17.2207 66.9043 16.7946 66.9043 16.4404C66.9043 15.876 67.2806 15.4277 68.0332 15.0957C68.7858 14.7526 69.793 14.5811 71.0547 14.5811C73.401 14.5811 74.5742 15.1455 74.5742 16.2744C74.5742 16.6839 74.4525 17.016 74.209 17.2705C73.9766 17.514 73.5449 17.7464 72.9141 17.9678C72.3828 18.167 71.9622 18.499 71.6523 18.9639C71.1654 19.7054 70.6064 20.9284 69.9756 22.6328ZM78.6748 8.33887H87.208C88.9346 8.33887 90.1908 8.30566 90.9766 8.23926C91.7734 8.16178 92.5482 8.01237 93.3008 7.79102C93.5332 7.72461 93.7158 7.69141 93.8486 7.69141C94.4242 7.69141 94.9333 8.0013 95.376 8.62109C96.1064 9.62826 96.4717 10.8457 96.4717 12.2734C96.4717 12.9928 96.3167 13.5628 96.0068 13.9834C95.708 14.3929 95.293 14.5977 94.7617 14.5977C94.3965 14.5977 94.1087 14.5257 93.8984 14.3818C93.6992 14.2269 93.4281 13.8893 93.085 13.3691C92.598 12.6276 91.9782 12.1351 91.2256 11.8916C90.484 11.637 89.2611 11.5098 87.5566 11.5098C86.2839 11.5098 85.5091 11.7367 85.2324 12.1904C85.0885 12.4339 85 12.7604 84.9668 13.1699C84.9447 13.5794 84.9336 14.6253 84.9336 16.3076C84.9336 16.9717 85.0443 17.3867 85.2656 17.5527C85.487 17.7077 86.068 17.7852 87.0088 17.7852C87.4736 17.7852 87.8112 17.6911 88.0215 17.5029C88.2318 17.3037 88.3646 16.9551 88.4199 16.457C88.4974 15.8151 88.5749 15.3779 88.6523 15.1455C88.7409 14.902 88.8958 14.6917 89.1172 14.5146C89.3496 14.3154 89.6208 14.2158 89.9307 14.2158C90.3844 14.2158 90.7718 14.4316 91.0928 14.8633C91.3252 15.1842 91.5189 15.7542 91.6738 16.5732C91.8398 17.3812 91.9229 18.2279 91.9229 19.1133C91.9229 20.862 91.6517 22.2952 91.1094 23.4131C90.8105 24.0218 90.3568 24.3262 89.748 24.3262C89.3717 24.3262 89.1117 24.2321 88.9678 24.0439C88.8239 23.8447 88.7132 23.4408 88.6357 22.832C88.4697 21.5814 87.7393 20.9561 86.4443 20.9561C85.9463 20.9561 85.6032 21.1165 85.415 21.4375C85.238 21.7474 85.1494 22.3285 85.1494 23.1807C85.1494 23.7008 85.1826 24.376 85.249 25.2061C85.3265 26.0251 85.404 26.5674 85.4814 26.833C85.57 27.165 85.8411 27.3975 86.2949 27.5303C86.7598 27.652 87.529 27.7129 88.6025 27.7129C90.2627 27.7129 91.5133 27.5026 92.3545 27.082C93.1956 26.6504 93.8818 25.8757 94.4131 24.7578C94.723 24.1159 94.9997 23.6842 95.2432 23.4629C95.4977 23.2415 95.8242 23.1309 96.2227 23.1309C96.6875 23.1309 97.0693 23.3356 97.3682 23.7451C97.6781 24.1436 97.833 24.6471 97.833 25.2559C97.833 25.9199 97.6615 26.75 97.3184 27.7461C96.9753 28.7422 96.5547 29.6276 96.0566 30.4023C95.8021 30.7786 95.5918 31.0277 95.4258 31.1494C95.2598 31.2822 95.0495 31.3486 94.7949 31.3486C94.5846 31.3486 94.2803 31.3154 93.8818 31.249C93.1735 31.1162 92.2272 31.0332 91.043 31H76.9648C76.4004 31 75.9632 30.8783 75.6533 30.6348C75.3434 30.3802 75.1885 30.026 75.1885 29.5723C75.1885 29.2513 75.2549 29.0189 75.3877 28.875C75.5205 28.7311 75.8249 28.5485 76.3008 28.3271C76.6328 28.1833 76.8763 28.0062 77.0312 27.7959C77.1973 27.5856 77.3245 27.2757 77.4131 26.8662C77.7783 25.195 77.9609 22.9427 77.9609 20.1094C77.9609 15.8372 77.6953 13.1423 77.1641 12.0244C77.0534 11.8031 76.9316 11.6481 76.7988 11.5596C76.666 11.471 76.3893 11.3659 75.9688 11.2441C75.3379 11.056 75.0225 10.6354 75.0225 9.98242C75.0225 9.62826 75.1276 9.31283 75.3379 9.03613C75.5482 8.75944 75.8249 8.57682 76.168 8.48828C76.5996 8.38867 77.4352 8.33887 78.6748 8.33887ZM116.078 19.6611L111.778 28.0283C111.114 29.3232 110.55 30.2253 110.085 30.7344C109.62 31.2324 109.122 31.4814 108.591 31.4814C108.071 31.4814 107.65 31.2933 107.329 30.917C106.654 30.1644 106.062 29.3122 105.553 28.3604L100.838 19.4121C100.583 18.9251 100.334 18.5765 100.091 18.3662C99.8584 18.1449 99.5319 17.9788 99.1113 17.8682C98.2702 17.6247 97.8496 17.1709 97.8496 16.5068C97.8496 15.8317 98.3698 15.3392 99.4102 15.0293C100.451 14.7194 102.094 14.5645 104.341 14.5645C106.222 14.5645 107.606 14.7028 108.491 14.9795C109.388 15.2451 109.836 15.6602 109.836 16.2246C109.836 16.623 109.626 17.0049 109.205 17.3701C108.939 17.6136 108.768 17.7962 108.69 17.918C108.613 18.0397 108.574 18.1947 108.574 18.3828C108.574 18.7591 108.818 19.3844 109.305 20.2588C109.792 21.111 110.245 21.5371 110.666 21.5371C110.943 21.5371 111.17 21.432 111.347 21.2217C111.524 21.0114 111.845 20.4691 112.31 19.5947C112.653 18.9528 112.824 18.4658 112.824 18.1338C112.824 17.8682 112.647 17.5527 112.293 17.1875C111.917 16.7891 111.729 16.4183 111.729 16.0752C111.729 15.5439 112.077 15.1621 112.774 14.9297C113.483 14.6973 114.639 14.5811 116.244 14.5811C118.502 14.5811 119.631 15.068 119.631 16.042C119.631 16.6064 119.227 17.016 118.419 17.2705C117.788 17.4697 117.356 17.6855 117.124 17.918C116.903 18.1504 116.554 18.7314 116.078 19.6611ZM134.307 23.5625H126.504C126.161 23.5625 125.989 23.7119 125.989 24.0107C125.989 24.7301 126.377 25.4108 127.151 26.0527C127.937 26.6836 128.778 26.999 129.675 26.999C130.206 26.999 130.793 26.8994 131.435 26.7002C132.088 26.4899 132.624 26.2354 133.045 25.9365C133.421 25.6709 133.72 25.5381 133.941 25.5381C134.229 25.5381 134.511 25.7152 134.788 26.0693C135.065 26.4235 135.203 26.7887 135.203 27.165C135.203 27.9619 134.705 28.7311 133.709 29.4727C131.949 30.7897 129.918 31.4482 127.616 31.4482C125.292 31.4482 123.344 30.7731 121.772 29.4229C121.009 28.7588 120.378 27.9564 119.88 27.0156C119.227 25.765 118.9 24.4479 118.9 23.0645C118.9 21.2051 119.465 19.5339 120.594 18.0508C121.568 16.7669 122.807 15.8096 124.312 15.1787C125.441 14.7028 126.664 14.4648 127.981 14.4648C130.084 14.4648 131.872 15.0625 133.344 16.2578C134.085 16.8555 134.683 17.5638 135.137 18.3828C135.657 19.3125 135.917 20.2201 135.917 21.1055C135.917 21.8249 135.768 22.417 135.469 22.8818C135.17 23.3356 134.783 23.5625 134.307 23.5625ZM126.936 20.458H128.612C129.321 20.458 129.675 20.1315 129.675 19.4785C129.675 18.8809 129.503 18.3939 129.16 18.0176C128.817 17.6413 128.369 17.4531 127.815 17.4531C127.196 17.4531 126.709 17.6966 126.354 18.1836C126.022 18.6374 125.856 19.0967 125.856 19.5615C125.856 19.8936 125.934 20.126 126.089 20.2588C126.255 20.3916 126.537 20.458 126.936 20.458ZM157.134 20.5908L157.366 26.4346C157.388 26.8773 157.455 27.2038 157.565 27.4141C157.687 27.6243 158.03 28.0283 158.595 28.626C158.761 28.8031 158.844 29.0521 158.844 29.373C158.844 30.1035 158.407 30.6126 157.532 30.9004C156.658 31.1882 155.097 31.332 152.851 31.332C151.323 31.332 150.244 31.1992 149.613 30.9336C148.96 30.6569 148.634 30.2087 148.634 29.5889C148.634 29.3675 148.667 29.207 148.733 29.1074C148.8 28.9967 149.021 28.7367 149.397 28.3271C149.84 27.8623 150.062 26.3128 150.062 23.6787C150.062 22.1514 149.884 21.0225 149.53 20.292C149.243 19.7054 148.711 19.4121 147.937 19.4121C147.195 19.4121 146.686 19.6501 146.409 20.126C146.132 20.6019 145.994 21.4652 145.994 22.7158V26.0029C145.994 26.6559 146.033 27.1042 146.11 27.3477C146.199 27.5911 146.476 28.0615 146.94 28.7588C147.062 28.958 147.123 29.1849 147.123 29.4395C147.123 30.0924 146.669 30.5739 145.762 30.8838C144.854 31.1937 143.438 31.3486 141.512 31.3486C138.435 31.3486 136.896 30.7122 136.896 29.4395C136.896 29.1738 136.941 28.9746 137.029 28.8418C137.129 28.6979 137.356 28.4987 137.71 28.2441C137.998 28.0339 138.18 27.7959 138.258 27.5303C138.335 27.2536 138.407 26.584 138.474 25.5215C138.551 24.2598 138.59 22.9372 138.59 21.5537C138.59 20.79 138.529 20.292 138.407 20.0596C138.297 19.8161 137.965 19.5228 137.411 19.1797C136.935 18.8809 136.697 18.5156 136.697 18.084C136.697 17.6413 136.891 17.2816 137.278 17.0049C137.666 16.7171 138.463 16.3574 139.669 15.9258C140.731 15.5495 141.755 15.234 142.74 14.9795C143.725 14.7139 144.4 14.5811 144.766 14.5811C145.098 14.5811 145.374 14.7028 145.596 14.9463C145.828 15.1898 145.944 15.4775 145.944 15.8096C145.944 15.8428 145.939 15.9811 145.928 16.2246C145.917 16.3132 145.911 16.3906 145.911 16.457C145.911 16.9883 146.132 17.2539 146.575 17.2539C146.841 17.2539 147.123 17.0436 147.422 16.623C148.374 15.2507 149.757 14.5645 151.572 14.5645C152.967 14.5645 154.162 14.9297 155.158 15.6602C155.855 16.1803 156.342 16.7946 156.619 17.5029C156.896 18.2002 157.067 19.2295 157.134 20.5908ZM169.668 18.8145V24.4258C169.668 25.0898 169.828 25.6322 170.149 26.0527C170.481 26.4733 170.902 26.6836 171.411 26.6836C171.843 26.6836 172.413 26.4844 173.121 26.0859C173.287 25.9863 173.453 25.9365 173.619 25.9365C173.885 25.9365 174.128 26.097 174.35 26.418C174.571 26.7389 174.682 27.0876 174.682 27.4639C174.682 28.1501 174.305 28.8086 173.553 29.4395C171.981 30.7786 170.077 31.4482 167.842 31.4482C166.071 31.4482 164.649 30.9502 163.575 29.9541C162.502 28.9469 161.965 27.6243 161.965 25.9863V18.3164C161.965 18.0618 161.932 17.9069 161.865 17.8516C161.81 17.7852 161.655 17.752 161.4 17.752H159.69C159.369 17.752 159.165 17.7021 159.076 17.6025C158.988 17.4919 158.943 17.2428 158.943 16.8555V16.125C158.954 15.793 159.082 15.5495 159.325 15.3945L166.929 10.6133C167.117 10.5137 167.349 10.4639 167.626 10.4639H168.971C169.247 10.4639 169.43 10.5303 169.519 10.6631C169.618 10.7848 169.668 11.0339 169.668 11.4102V13.6514C169.668 13.9834 169.718 14.1992 169.817 14.2988C169.928 14.3984 170.155 14.4482 170.498 14.4482H173.569C173.979 14.4482 174.244 14.5257 174.366 14.6807C174.488 14.8245 174.549 15.14 174.549 15.627V16.6064C174.549 17.1377 174.471 17.5085 174.316 17.7188C174.161 17.918 173.879 18.0176 173.47 18.0176H170.465C170.155 18.0176 169.945 18.0729 169.834 18.1836C169.723 18.2943 169.668 18.5046 169.668 18.8145ZM184.908 9.15234L184.692 16.1084C184.67 16.9385 184.925 17.3535 185.456 17.3535C185.722 17.3535 185.982 17.1709 186.236 16.8057C187.31 15.2451 188.743 14.4648 190.536 14.4648C192.296 14.4648 193.696 15.0016 194.736 16.0752C195.201 16.5511 195.528 17.1156 195.716 17.7686C195.915 18.4215 196.026 19.3568 196.048 20.5742L196.197 26.5674C196.208 27.0876 196.275 27.4694 196.396 27.7129C196.529 27.9564 196.828 28.2607 197.293 28.626C197.614 28.8805 197.774 29.1849 197.774 29.5391C197.774 30.7344 195.97 31.332 192.362 31.332C189.153 31.332 187.548 30.7731 187.548 29.6553C187.548 29.4671 187.576 29.3232 187.631 29.2236C187.686 29.124 187.88 28.8584 188.212 28.4268C188.677 27.818 188.909 26.2962 188.909 23.8613C188.909 22.3893 188.771 21.3158 188.494 20.6406C188.129 19.722 187.476 19.2627 186.535 19.2627C185.86 19.2627 185.362 19.5062 185.041 19.9932C184.809 20.3473 184.692 21.0114 184.692 21.9854V25.1895C184.77 26.6061 184.836 27.4085 184.892 27.5967C184.947 27.7848 185.201 28.1335 185.655 28.6426C185.866 28.875 185.971 29.1462 185.971 29.4561C185.971 30.7067 184.344 31.332 181.09 31.332C177.283 31.332 175.379 30.6846 175.379 29.3896C175.379 29.0908 175.44 28.8639 175.562 28.709C175.683 28.543 175.982 28.2939 176.458 27.9619C176.879 27.6631 177.166 26.8607 177.321 25.5547C177.487 24.2376 177.57 22.0628 177.57 19.0303C177.57 16.6507 177.504 15.0016 177.371 14.083C177.327 13.7399 177.244 13.4909 177.122 13.3359C177.011 13.1699 176.796 13.0039 176.475 12.8379C175.788 12.4837 175.445 12.0742 175.445 11.6094C175.445 11.056 175.705 10.6077 176.226 10.2646C176.746 9.92155 177.742 9.55078 179.214 9.15234C181.206 8.59896 182.794 8.32227 183.979 8.32227C184.62 8.32227 184.93 8.59896 184.908 9.15234ZM207.984 15.6104V25.2559C207.984 26.0195 208.051 26.5785 208.184 26.9326C208.327 27.2868 208.61 27.6133 209.03 27.9121C209.373 28.1556 209.6 28.3659 209.711 28.543C209.833 28.709 209.894 28.9248 209.894 29.1904C209.894 30.6182 208.084 31.332 204.465 31.332C202.517 31.332 200.973 31.1771 199.833 30.8672C199.446 30.7565 199.13 30.5628 198.887 30.2861C198.654 30.0094 198.538 29.694 198.538 29.3398C198.538 29.041 198.599 28.8086 198.721 28.6426C198.842 28.4766 199.152 28.2109 199.65 27.8457C199.993 27.5911 200.237 27.1761 200.381 26.6006C200.525 26.0251 200.597 25.1673 200.597 24.0273C200.597 23.6621 200.569 22.9814 200.514 21.9854C200.469 20.9782 200.436 20.3916 200.414 20.2256C200.348 19.7718 200.038 19.4232 199.484 19.1797C198.798 18.8809 198.455 18.4382 198.455 17.8516C198.455 17.1543 198.903 16.6341 199.8 16.291C201.039 15.8151 202.368 15.4111 203.784 15.0791C205.201 14.7471 206.297 14.5811 207.071 14.5811C207.68 14.5811 207.984 14.9242 207.984 15.6104ZM204.697 8.33887C205.66 8.33887 206.424 8.52148 206.988 8.88672C207.553 9.24089 207.835 9.72233 207.835 10.3311C207.835 11.1833 207.409 11.8584 206.557 12.3564C205.206 13.1423 203.574 13.5352 201.659 13.5352C200.851 13.5352 200.209 13.3802 199.733 13.0703C199.091 12.6719 198.771 12.1185 198.771 11.4102C198.771 10.4583 199.451 9.71126 200.812 9.16895C202.196 8.61556 203.491 8.33887 204.697 8.33887ZM218.626 14.5645C219.213 14.5645 219.567 14.6475 219.688 14.8135C219.821 14.9795 219.938 15.5107 220.037 16.4072C220.092 16.8942 220.264 17.1377 220.552 17.1377C220.773 17.1377 220.983 16.9772 221.183 16.6562C222.068 15.2728 223.225 14.5811 224.652 14.5811C225.66 14.5811 226.484 14.9076 227.126 15.5605C227.436 15.8815 227.69 16.2965 227.89 16.8057C228.089 17.3037 228.188 17.7852 228.188 18.25C228.188 18.7702 228.067 19.307 227.823 19.8604C227.58 20.4027 227.264 20.8509 226.877 21.2051C226.169 21.8802 225.3 22.2178 224.271 22.2178C223.706 22.2178 223.23 22.1182 222.843 21.9189C222.466 21.7197 221.968 21.3158 221.349 20.707C221.116 20.4746 220.9 20.3584 220.701 20.3584C220.391 20.3584 220.187 20.5355 220.087 20.8896C219.998 21.2327 219.954 21.9632 219.954 23.0811C219.954 24.7523 220.015 25.8923 220.137 26.501C220.214 26.833 220.319 27.0654 220.452 27.1982C220.596 27.32 220.895 27.4473 221.349 27.5801C222.345 27.8789 222.843 28.3991 222.843 29.1406C222.843 29.5944 222.682 29.9928 222.361 30.3359C222.04 30.668 221.614 30.8893 221.083 31C220.021 31.2214 218.46 31.332 216.401 31.332C214.442 31.332 212.954 31.1605 211.936 30.8174C211.028 30.5075 210.574 29.9707 210.574 29.207C210.574 28.6315 210.906 28.1169 211.57 27.6631C211.891 27.4528 212.113 27.2646 212.234 27.0986C212.356 26.9215 212.439 26.6836 212.483 26.3848C212.66 25.3776 212.749 23.5127 212.749 20.79C212.749 20.292 212.694 19.9378 212.583 19.7275C212.472 19.5062 212.251 19.3291 211.919 19.1963C211.133 18.8864 210.74 18.4382 210.74 17.8516C210.74 17.3203 211.011 16.8665 211.554 16.4902C212.096 16.1029 213.004 15.721 214.276 15.3447C215.981 14.8356 217.431 14.5755 218.626 14.5645ZM244.043 23.5625H236.24C235.897 23.5625 235.726 23.7119 235.726 24.0107C235.726 24.7301 236.113 25.4108 236.888 26.0527C237.674 26.6836 238.515 26.999 239.411 26.999C239.942 26.999 240.529 26.8994 241.171 26.7002C241.824 26.4899 242.361 26.2354 242.781 25.9365C243.158 25.6709 243.456 25.5381 243.678 25.5381C243.965 25.5381 244.248 25.7152 244.524 26.0693C244.801 26.4235 244.939 26.7887 244.939 27.165C244.939 27.9619 244.441 28.7311 243.445 29.4727C241.686 30.7897 239.655 31.4482 237.353 31.4482C235.028 31.4482 233.08 30.7731 231.509 29.4229C230.745 28.7588 230.114 27.9564 229.616 27.0156C228.963 25.765 228.637 24.4479 228.637 23.0645C228.637 21.2051 229.201 19.5339 230.33 18.0508C231.304 16.7669 232.544 15.8096 234.049 15.1787C235.178 14.7028 236.401 14.4648 237.718 14.4648C239.821 14.4648 241.608 15.0625 243.08 16.2578C243.822 16.8555 244.419 17.5638 244.873 18.3828C245.393 19.3125 245.653 20.2201 245.653 21.1055C245.653 21.8249 245.504 22.417 245.205 22.8818C244.906 23.3356 244.519 23.5625 244.043 23.5625ZM236.672 20.458H238.349C239.057 20.458 239.411 20.1315 239.411 19.4785C239.411 18.8809 239.24 18.3939 238.896 18.0176C238.553 17.6413 238.105 17.4531 237.552 17.4531C236.932 17.4531 236.445 17.6966 236.091 18.1836C235.759 18.6374 235.593 19.0967 235.593 19.5615C235.593 19.8936 235.67 20.126 235.825 20.2588C235.991 20.3916 236.273 20.458 236.672 20.458Z" fill="white"/>
<path d="M104.712 45.7302H100.101C99.8918 45.7302 99.7969 45.8249 99.7969 45.9963C99.7969 46.4143 100.026 46.8126 100.483 47.1931C100.94 47.5735 101.436 47.7628 101.969 47.7628C102.274 47.7628 102.636 47.7057 103.017 47.5914C103.399 47.4771 103.723 47.3252 103.97 47.1538C104.199 47.0019 104.369 46.9251 104.504 46.9251C104.676 46.9251 104.846 47.0198 105 47.2288C105.172 47.4378 105.247 47.6467 105.247 47.8754C105.247 48.3505 104.961 48.7881 104.371 49.2239C103.343 50.0027 102.143 50.3831 100.791 50.3831C99.419 50.3831 98.2763 49.9848 97.3431 49.1864C96.8864 48.7881 96.5246 48.3308 96.238 47.7807C95.8529 47.0412 95.6631 46.2803 95.6631 45.4641C95.6631 44.3817 95.9873 43.3939 96.6535 42.5187C97.2249 41.7596 97.9485 41.2077 98.844 40.8272C99.5103 40.5414 100.234 40.4093 100.997 40.4093C102.235 40.4093 103.282 40.7504 104.158 41.4542C104.597 41.7953 104.939 42.2133 105.206 42.708C105.51 43.2582 105.663 43.7904 105.663 44.3031C105.663 44.721 105.568 45.0622 105.396 45.348C105.206 45.5962 104.978 45.7302 104.712 45.7302ZM100.368 43.9065H101.359C101.778 43.9065 101.987 43.7172 101.987 43.3368C101.987 42.9956 101.892 42.6902 101.683 42.4812C101.473 42.2526 101.226 42.1579 100.882 42.1579C100.52 42.1579 100.234 42.3097 100.024 42.5955C99.8345 42.8616 99.7378 43.1278 99.7378 43.4118C99.7378 43.6011 99.7754 43.7351 99.8703 43.8297C99.9688 43.869 100.121 43.9065 100.368 43.9065Z" fill="white"/>
<path d="M111.874 40.3736C113.017 40.3736 113.97 40.6594 114.751 41.2292C115.17 41.5328 115.456 41.8758 115.626 42.2741C115.797 42.6724 115.874 43.2046 115.874 43.8887L115.854 45.332C115.854 46.3393 115.931 46.9841 116.063 47.2878C116.14 47.4396 116.196 47.5164 116.273 47.5539C116.33 47.5914 116.483 47.6307 116.692 47.6682C116.902 47.7058 116.997 47.8397 116.997 48.0862C116.997 48.3899 116.864 48.7328 116.615 49.0543C116.368 49.3955 116.044 49.6812 115.644 49.9099C115.148 50.1957 114.634 50.3475 114.102 50.3475C113.416 50.3475 112.882 50.1188 112.483 49.6437C112.351 49.4723 112.216 49.3972 112.102 49.3972C111.969 49.3972 111.797 49.474 111.588 49.6437C110.939 50.1188 110.198 50.3475 109.377 50.3475C108.519 50.3475 107.835 50.1581 107.301 49.7973C106.959 49.5509 106.693 49.2472 106.483 48.8471C106.273 48.4667 106.178 48.0487 106.178 47.6307C106.178 46.9466 106.445 46.3572 106.997 45.8446C107.855 45.0283 109.13 44.6104 110.826 44.6104C111.208 44.6104 111.435 44.5728 111.532 44.496C111.627 44.4192 111.684 44.2495 111.684 43.9834C111.684 43.2993 111.607 42.7867 111.475 42.483C111.322 42.1794 111.093 42.0276 110.769 42.0276C110.579 42.0276 110.407 42.0847 110.255 42.199C110.103 42.3134 109.913 42.5223 109.684 42.8456C109.112 43.6619 108.503 44.0799 107.875 44.0799C107.55 44.0799 107.303 43.9852 107.094 43.7941C106.884 43.6047 106.789 43.3565 106.789 43.0528C106.789 42.7492 106.922 42.4259 107.171 42.1222C107.418 41.8186 107.762 41.5328 108.199 41.306C109.359 40.6772 110.579 40.3736 111.874 40.3736ZM111.208 46.0143C110.921 46.0143 110.674 46.1286 110.465 46.3554C110.255 46.5823 110.14 46.868 110.14 47.1913C110.14 47.495 110.217 47.7611 110.37 47.9505C110.522 48.1398 110.712 48.2362 110.961 48.2362C111.475 48.2362 111.742 47.7986 111.742 46.9252C111.742 46.5644 111.704 46.3358 111.627 46.2036C111.57 46.0911 111.417 46.0143 111.208 46.0143Z" fill="white"/>
<path d="M121.551 40.3736C121.875 40.3736 122.409 40.4504 123.151 40.5826C123.303 40.6022 123.417 40.6201 123.512 40.6201C123.627 40.6201 123.837 40.5629 124.161 40.4486C124.313 40.3914 124.447 40.3539 124.542 40.3539C124.847 40.3539 125.151 40.5433 125.457 40.9237C125.705 41.2274 125.914 41.5703 126.066 41.9311C126.219 42.2919 126.296 42.6152 126.296 42.8813C126.296 43.1475 126.201 43.3565 126.029 43.5279C125.839 43.6994 125.61 43.7941 125.343 43.7941C125.114 43.7941 124.904 43.7369 124.734 43.6226C124.562 43.5083 124.257 43.2618 123.876 42.901C123.457 42.5027 123.115 42.2937 122.848 42.2937C122.658 42.2937 122.506 42.3705 122.371 42.5027C122.239 42.6349 122.162 42.7885 122.162 42.9778C122.162 43.3011 122.466 43.5851 123.077 43.8709C124.182 44.3656 125.02 44.8961 125.611 45.4856C126.108 45.9803 126.355 46.5876 126.355 47.2896C126.355 48.2023 125.955 48.9418 125.155 49.5508C124.469 50.0831 123.631 50.3492 122.64 50.3492C122.393 50.3492 121.916 50.3117 121.25 50.2171C120.622 50.1403 120.26 50.1028 120.183 50.1028C120.106 50.1028 119.993 50.1224 119.896 50.1403C119.706 50.1599 119.572 50.1778 119.477 50.1778C119.173 50.1778 118.925 50.101 118.753 49.9492C118.487 49.7027 118.239 49.3222 118.01 48.8096C117.781 48.297 117.668 47.8415 117.668 47.4807C117.668 46.8913 117.897 46.5876 118.374 46.5876C118.564 46.5876 118.716 46.6448 118.87 46.7591C119.022 46.8734 119.346 47.1967 119.841 47.7272C120.108 48.013 120.337 48.2023 120.507 48.3166C120.677 48.4309 120.869 48.4684 121.078 48.4684C121.288 48.4684 121.46 48.4113 121.592 48.297C121.725 48.1826 121.782 48.0308 121.782 47.8415C121.782 47.5557 121.535 47.2914 121.021 47.0431C119.973 46.5305 119.212 45.9982 118.753 45.448C118.297 44.8979 118.048 44.271 118.048 43.5476C118.048 42.7688 118.277 42.1044 118.753 41.5524C119.436 40.7915 120.369 40.3736 121.551 40.3736Z" fill="white"/>
<path d="M136.485 45.1783L135.19 48.7113C134.866 49.5848 134.542 50.3064 134.219 50.8583C133.895 51.4084 133.533 51.8835 133.114 52.2836C132.276 53.082 131.248 53.5 130.048 53.5C129.077 53.5 128.296 53.2535 127.705 52.7409C127.249 52.3426 127.019 51.8478 127.019 51.2584C127.019 50.7636 127.172 50.3457 127.496 50.0045C127.82 49.6633 128.219 49.4919 128.676 49.4919C129.152 49.4919 129.514 49.6437 129.819 49.967C129.951 50.1188 130.048 50.2331 130.086 50.3474C130.123 50.4618 130.2 50.7082 130.295 51.069C130.372 51.3548 130.524 51.5067 130.791 51.5067C131.001 51.5067 131.153 51.412 131.305 51.2405C131.458 51.069 131.515 50.8422 131.515 50.5939C131.515 50.2903 131.343 49.7777 131.001 49.0561L128.637 44.0584C128.389 43.5458 128.198 43.2225 128.085 43.0903C127.952 42.9581 127.686 42.8045 127.266 42.6152C127.134 42.558 127.019 42.4634 126.924 42.3115C126.829 42.1597 126.792 42.0079 126.792 41.8739C126.792 41.3041 127.363 40.9058 128.526 40.6969C129.287 40.5647 130.164 40.4879 131.155 40.4879C131.841 40.4879 132.393 40.5647 132.794 40.6969C133.327 40.8862 133.594 41.2095 133.594 41.665C133.594 41.8364 133.517 42.0258 133.365 42.2347C133.213 42.4437 133.155 42.633 133.155 42.7849C133.155 42.9367 133.193 43.1082 133.25 43.2796C133.327 43.4511 133.46 43.7351 133.689 44.1352C133.936 44.5907 134.146 44.8193 134.338 44.8193C134.547 44.8193 134.757 44.6103 134.966 44.212C135.176 43.8137 135.29 43.4332 135.29 43.0528C135.29 42.7491 135.213 42.5027 135.043 42.3312C134.796 42.0454 134.662 41.7811 134.662 41.5721C134.662 41.2488 134.891 40.9826 135.328 40.7737C135.767 40.5843 136.356 40.47 137.099 40.47C138.489 40.47 139.175 40.7933 139.175 41.4578C139.175 41.7042 139.098 41.8954 138.966 42.0472C138.833 42.199 138.566 42.333 138.205 42.4651C137.9 42.5795 137.653 42.7688 137.461 43.0546C137.189 43.4511 136.865 44.1727 136.485 45.1783Z" fill="white"/>
<path d="M143.092 39C143.544 39 143.972 39.0839 144.376 39.2501C144.779 39.4162 145.141 39.6591 145.462 39.977C145.77 40.2842 146.004 40.6379 146.169 41.038C146.334 41.4399 146.416 41.8632 146.416 42.3115C146.416 42.7652 146.334 43.1903 146.169 43.5868C146.004 43.9834 145.766 44.3335 145.453 44.6371C145.125 44.955 144.758 45.1997 144.353 45.3694C143.948 45.5391 143.529 45.6248 143.094 45.6248C142.657 45.6248 142.238 45.5409 141.835 45.373C141.432 45.2051 141.072 44.9604 140.753 44.6389C140.436 44.3263 140.196 43.9709 140.029 43.5708C139.863 43.1707 139.781 42.7527 139.781 42.3133C139.781 41.8721 139.866 41.4488 140.038 41.0434C140.21 40.6379 140.458 40.2735 140.78 39.952C141.084 39.643 141.434 39.4072 141.828 39.2447C142.222 39.0804 142.643 39 143.092 39ZM146.015 42.3347C146.015 41.9364 145.944 41.5578 145.799 41.2023C145.653 40.8469 145.447 40.5325 145.175 40.2592C144.892 39.9806 144.575 39.768 144.221 39.6234C143.868 39.4787 143.488 39.4055 143.085 39.4055C142.687 39.4055 142.317 39.4769 141.971 39.6162C141.625 39.7555 141.319 39.9627 141.05 40.2324C140.767 40.5182 140.551 40.838 140.4 41.1952C140.25 41.5524 140.175 41.9257 140.175 42.3151C140.175 42.6955 140.248 43.0617 140.395 43.4136C140.542 43.7655 140.755 44.0816 141.031 44.3638C141.305 44.6407 141.616 44.8514 141.969 44.9979C142.32 45.1444 142.689 45.2176 143.074 45.2176C143.468 45.2176 143.843 45.1444 144.201 44.9997C144.557 44.855 144.878 44.6425 145.164 44.3638C145.439 44.0941 145.648 43.7851 145.793 43.4368C145.942 43.0885 146.015 42.7223 146.015 42.3347ZM143.182 40.3646C143.717 40.3646 144.117 40.4504 144.376 40.6218C144.636 40.7933 144.767 41.0541 144.767 41.4059C144.767 41.6739 144.686 41.8971 144.527 42.0758C144.367 42.2544 144.151 42.3687 143.877 42.4169L144.726 44.1513H144.016L143.221 42.5062H142.412V44.1513H141.774V40.3646H143.182ZM143.065 40.7808H142.415V42.0918H143.083C143.454 42.0918 143.717 42.0418 143.875 41.9436C144.031 41.8436 144.11 41.6828 144.11 41.4577C144.11 41.2202 144.027 41.0487 143.862 40.9415C143.698 40.8326 143.433 40.7808 143.065 40.7808Z" fill="white"/>
<path d="M75.3052 44.8943H74.2007V44.0462H75.3052V41.6203H76.3571V44.0462H77.4616V44.8943H76.3571V50.0618H75.3052V44.8943Z" fill="white"/>
<path d="M78.6318 50.0618V39.8715H79.6377V44.9732C79.8963 44.5875 80.2075 44.3004 80.5712 44.112C80.935 43.9235 81.3558 43.8293 81.8335 43.8293C82.5435 43.8293 83.098 44.0177 83.4968 44.3947C83.8957 44.7716 84.0951 45.2953 84.0951 45.9659V50.0618H83.0432V46.5182C83.0432 45.909 82.9139 45.4575 82.6553 45.1639C82.4011 44.8658 82.0066 44.7168 81.4719 44.7168C81.1651 44.7168 80.8846 44.7738 80.6304 44.8877C80.3806 44.9973 80.1724 45.1551 80.0058 45.3611C79.8787 45.5189 79.7867 45.6986 79.7297 45.9002C79.6771 46.1018 79.6508 46.4524 79.6508 46.9521V50.0618H78.6318Z" fill="white"/>
<path d="M90.4065 46.3735C90.3714 45.8432 90.1939 45.4356 89.8739 45.1507C89.5584 44.8614 89.1245 44.7168 88.5722 44.7168C88.0726 44.7168 87.6562 44.868 87.3231 45.1704C86.99 45.4685 86.7971 45.8695 86.7445 46.3735H90.4065ZM91.511 47.2085H86.7445V47.3005C86.7445 47.9448 86.9286 48.4664 87.2968 48.8652C87.665 49.2597 88.1449 49.4569 88.7366 49.4569C89.1398 49.4569 89.5036 49.3495 89.8279 49.1348C90.1523 48.9156 90.4393 48.5869 90.6892 48.1486L91.4715 48.6746C91.1691 49.218 90.7834 49.6278 90.3144 49.904C89.8455 50.1801 89.302 50.3182 88.684 50.3182C87.768 50.3182 87.0272 50.0157 86.4619 49.4109C85.8965 48.8061 85.6138 48.0127 85.6138 47.031C85.6138 46.0887 85.8943 45.3173 86.4553 44.7168C87.0163 44.1163 87.7373 43.8161 88.6182 43.8161C89.508 43.8161 90.2114 44.101 90.7286 44.6708C91.2502 45.2406 91.511 46.0185 91.511 47.0047V47.2085Z" fill="white"/>
<path d="M150.662 50.0617V44.8943H149.505V44.0462H150.662V42.304C150.662 41.3047 150.787 40.6297 151.037 40.2791C151.291 39.9241 151.745 39.7466 152.398 39.7466C152.56 39.7466 152.714 39.7575 152.858 39.7794C153.007 39.8013 153.15 39.8364 153.286 39.8846V40.9497C153.154 40.8752 153.02 40.8204 152.885 40.7853C152.753 40.7502 152.617 40.7327 152.477 40.7327C152.175 40.7327 151.966 40.8291 151.852 41.022C151.738 41.2148 151.681 41.6882 151.681 42.442V44.0462H153.286V44.8943H151.708V50.0617H150.662Z" fill="white"/>
<path d="M158.887 47.1098C158.887 46.4305 158.701 45.8848 158.328 45.4728C157.96 45.0564 157.478 44.8483 156.882 44.8483C156.264 44.8483 155.782 45.0389 155.435 45.4202C155.089 45.8015 154.916 46.3341 154.916 47.0178C154.916 47.7454 155.089 48.3064 155.435 48.7008C155.786 49.0953 156.281 49.2925 156.921 49.2925C157.535 49.2925 158.015 49.1019 158.361 48.7205C158.712 48.3349 158.887 47.7979 158.887 47.1098ZM159.886 44.0462V50.0617H158.887V48.9704C158.646 49.4087 158.337 49.744 157.96 49.9763C157.587 50.2042 157.169 50.3181 156.704 50.3181C155.841 50.3181 155.144 50.0223 154.614 49.4306C154.088 48.8345 153.825 48.0478 153.825 47.0704C153.825 46.0799 154.081 45.2931 154.594 44.7102C155.107 44.1229 155.793 43.8292 156.652 43.8292C157.156 43.8292 157.592 43.9432 157.96 44.1711C158.333 44.3946 158.633 44.7299 158.861 45.177V44.0462H159.886Z" fill="white"/>
<path d="M170.326 50.0617V46.5181C170.326 45.9089 170.204 45.4575 169.958 45.1638C169.713 44.8658 169.336 44.7168 168.827 44.7168C168.551 44.7168 168.295 44.7737 168.058 44.8877C167.826 44.9973 167.629 45.1551 167.467 45.3611C167.348 45.5188 167.263 45.7029 167.21 45.9133C167.158 46.1237 167.131 46.4699 167.131 46.952V50.0617H166.138V46.5181C166.138 45.9089 166.016 45.4575 165.77 45.1638C165.525 44.8658 165.148 44.7168 164.64 44.7168C164.363 44.7168 164.105 44.7737 163.864 44.8877C163.627 44.9973 163.428 45.1551 163.265 45.3611C163.152 45.5145 163.068 45.692 163.016 45.8936C162.967 46.0952 162.943 46.448 162.943 46.952V50.0617H161.951V44.0462H162.956V44.9732C163.206 44.5875 163.504 44.3004 163.851 44.1119C164.197 43.9235 164.596 43.8292 165.047 43.8292C165.534 43.8292 165.948 43.9344 166.29 44.1448C166.632 44.3508 166.89 44.6532 167.065 45.0521C167.324 44.6401 167.629 44.3333 167.979 44.1317C168.334 43.93 168.744 43.8292 169.209 43.8292C169.879 43.8292 170.403 44.0177 170.78 44.3946C171.157 44.7716 171.345 45.2953 171.345 45.9659V50.0617H170.326Z" fill="white"/>
<path d="M173.186 41.1469C173.186 40.9409 173.259 40.7656 173.403 40.6209C173.552 40.4719 173.732 40.3974 173.942 40.3974C174.148 40.3974 174.324 40.4719 174.468 40.6209C174.617 40.77 174.692 40.9497 174.692 41.16C174.692 41.366 174.619 41.5414 174.475 41.686C174.33 41.8306 174.153 41.9029 173.942 41.9029C173.732 41.9029 173.552 41.8306 173.403 41.686C173.259 41.5414 173.186 41.3617 173.186 41.1469ZM173.429 50.0617V44.0462H174.468V50.0617H173.429Z" fill="white"/>
<path d="M176.69 50.0617V39.8715H177.742V50.0617H176.69Z" fill="white"/>
<path d="M179.655 52.9939L181.286 49.47L178.926 44.0462H180.116L181.864 48.3655L183.718 44.0462H184.849L180.812 52.9939H179.655Z" fill="white"/>
<path d="M190.404 47.0704C190.404 47.7059 190.617 48.245 191.042 48.6877C191.467 49.126 191.982 49.3451 192.587 49.3451C193.188 49.3451 193.698 49.126 194.119 48.6877C194.54 48.245 194.75 47.7059 194.75 47.0704C194.75 46.4349 194.54 45.898 194.119 45.4597C193.698 45.017 193.188 44.7957 192.587 44.7957C191.978 44.7957 191.461 45.017 191.036 45.4597C190.615 45.898 190.404 46.4349 190.404 47.0704ZM189.313 47.0704C189.313 46.6277 189.394 46.2113 189.556 45.8213C189.718 45.4268 189.955 45.0762 190.266 44.7694C190.578 44.4626 190.93 44.2303 191.325 44.0725C191.719 43.9103 192.14 43.8292 192.587 43.8292C193.025 43.8292 193.44 43.9103 193.83 44.0725C194.224 44.2347 194.581 44.4713 194.901 44.7825C195.212 45.0849 195.449 45.4334 195.611 45.8278C195.773 46.2179 195.855 46.6321 195.855 47.0704C195.855 47.5087 195.773 47.9229 195.611 48.3129C195.449 48.6986 195.212 49.0427 194.901 49.3451C194.581 49.6607 194.222 49.9017 193.823 50.0683C193.429 50.2348 193.017 50.3181 192.587 50.3181C192.144 50.3181 191.724 50.2348 191.325 50.0683C190.93 49.9061 190.578 49.6716 190.266 49.3648C189.955 49.0493 189.718 48.6986 189.556 48.3129C189.394 47.9272 189.313 47.5131 189.313 47.0704Z" fill="white"/>
<path d="M197.735 50.0617V44.8943H196.578V44.0462H197.735V42.304C197.735 41.3047 197.86 40.6297 198.11 40.2791C198.364 39.9241 198.817 39.7466 199.47 39.7466C199.633 39.7466 199.786 39.7575 199.931 39.7794C200.08 39.8013 200.222 39.8364 200.358 39.8846V40.9497C200.226 40.8752 200.093 40.8204 199.957 40.7853C199.825 40.7502 199.69 40.7327 199.549 40.7327C199.247 40.7327 199.039 40.8291 198.925 41.022C198.811 41.2148 198.754 41.6882 198.754 42.442V44.0462H200.358V44.8943H198.78V50.0617H197.735Z" fill="white"/>
<path d="M206.308 47.0835C206.308 47.7848 206.487 48.3327 206.847 48.7271C207.206 49.1216 207.699 49.3188 208.326 49.3188C208.94 49.3188 209.42 49.1106 209.766 48.6943C210.117 48.2735 210.292 47.6928 210.292 46.952C210.292 46.2946 210.121 45.7796 209.779 45.4071C209.437 45.0345 208.964 44.8483 208.359 44.8483C207.745 44.8483 207.25 45.0543 206.873 45.4662C206.496 45.8739 206.308 46.413 206.308 47.0835ZM205.328 39.8715H206.347V45.177C206.58 44.7299 206.88 44.3946 207.248 44.1711C207.616 43.9432 208.048 43.8292 208.543 43.8292C209.406 43.8292 210.095 44.1229 210.607 44.7102C211.125 45.2975 211.383 46.0842 211.383 47.0704C211.383 48.0478 211.12 48.8345 210.594 49.4306C210.068 50.0223 209.371 50.3181 208.504 50.3181C208.039 50.3181 207.616 50.202 207.235 49.9697C206.853 49.733 206.544 49.3999 206.308 48.9704V50.0617H205.328V39.8715Z" fill="white"/>
<path d="M213.046 50.0617V44.0462H213.96V45.2953C214.236 44.7737 214.53 44.4012 214.841 44.1777C215.152 43.9541 215.532 43.8424 215.979 43.8424C216.101 43.8424 216.22 43.8533 216.334 43.8753C216.448 43.8928 216.562 43.9213 216.676 43.9607L216.334 44.8877C216.215 44.8483 216.104 44.8198 215.998 44.8022C215.893 44.7803 215.792 44.7694 215.696 44.7694C215.152 44.7694 214.745 44.9666 214.473 45.3611C214.201 45.7511 214.066 46.3406 214.066 47.1296V50.0617H213.046Z" fill="white"/>
<path d="M222.369 47.1098C222.369 46.4305 222.183 45.8848 221.81 45.4728C221.442 45.0564 220.96 44.8483 220.364 44.8483C219.746 44.8483 219.264 45.0389 218.917 45.4202C218.571 45.8015 218.398 46.3341 218.398 47.0178C218.398 47.7454 218.571 48.3064 218.917 48.7008C219.268 49.0953 219.763 49.2925 220.403 49.2925C221.017 49.2925 221.497 49.1019 221.843 48.7205C222.194 48.3349 222.369 47.7979 222.369 47.1098ZM223.368 44.0462V50.0617H222.369V48.9704C222.128 49.4087 221.819 49.744 221.442 49.9763C221.069 50.2042 220.651 50.3181 220.186 50.3181C219.323 50.3181 218.626 50.0223 218.096 49.4306C217.57 48.8345 217.307 48.0478 217.307 47.0704C217.307 46.0799 217.563 45.2931 218.076 44.7102C218.589 44.1229 219.275 43.8292 220.134 43.8292C220.638 43.8292 221.074 43.9432 221.442 44.1711C221.814 44.3946 222.115 44.7299 222.343 45.177V44.0462H223.368Z" fill="white"/>
<path d="M225.433 50.0617V44.0462H226.438V44.9732C226.697 44.5875 227.008 44.3004 227.372 44.1119C227.736 43.9235 228.157 43.8292 228.634 43.8292C229.344 43.8292 229.899 44.0177 230.298 44.3946C230.696 44.7716 230.896 45.2953 230.896 45.9659V50.0617H229.844V46.5181C229.844 45.9089 229.715 45.4575 229.456 45.1638C229.202 44.8658 228.807 44.7168 228.273 44.7168C227.966 44.7168 227.685 44.7737 227.431 44.8877C227.181 44.9973 226.973 45.1551 226.807 45.3611C226.679 45.5188 226.587 45.6985 226.53 45.9002C226.478 46.1018 226.452 46.4524 226.452 46.952V50.0617H225.433Z" fill="white"/>
<path d="M237.543 47.0835C237.543 46.413 237.356 45.8739 236.984 45.4662C236.611 45.0543 236.12 44.8483 235.511 44.8483C234.902 44.8483 234.426 45.0345 234.084 45.4071C233.743 45.7796 233.572 46.2946 233.572 46.952C233.572 47.6928 233.745 48.2735 234.091 48.6943C234.437 49.1106 234.915 49.3188 235.524 49.3188C236.155 49.3188 236.648 49.1216 237.003 48.7271C237.363 48.3327 237.543 47.7848 237.543 47.0835ZM238.542 39.8715V50.0617H237.543V48.9704C237.306 49.4043 236.999 49.7374 236.622 49.9697C236.245 50.202 235.824 50.3181 235.36 50.3181C234.496 50.3181 233.8 50.0223 233.269 49.4306C232.743 48.8345 232.48 48.0478 232.48 47.0704C232.48 46.0842 232.739 45.2975 233.256 44.7102C233.773 44.1229 234.461 43.8292 235.32 43.8292C235.82 43.8292 236.254 43.9432 236.622 44.1711C236.99 44.3946 237.288 44.7299 237.516 45.177V39.8715H238.542Z" fill="white"/>
<path d="M240.008 49.0493L240.889 48.4576C241.055 48.7775 241.266 49.0186 241.52 49.1808C241.774 49.3385 242.074 49.4174 242.421 49.4174C242.758 49.4174 243.03 49.3342 243.236 49.1676C243.446 49.0011 243.551 48.7819 243.551 48.5102C243.551 48.2998 243.479 48.1245 243.335 47.9842C243.194 47.844 242.951 47.7147 242.605 47.5963C242.57 47.5832 242.513 47.5635 242.434 47.5372C240.97 47.0331 240.238 46.402 240.238 45.6438C240.238 45.109 240.435 44.6729 240.83 44.3355C241.224 43.998 241.737 43.8292 242.368 43.8292C242.89 43.8292 243.337 43.9344 243.709 44.1448C244.082 44.3508 244.349 44.6445 244.511 45.0258L243.676 45.5386C243.554 45.2624 243.372 45.0499 243.131 44.9009C242.894 44.7518 242.618 44.6773 242.302 44.6773C242 44.6773 241.752 44.7628 241.559 44.9337C241.371 45.1003 241.277 45.315 241.277 45.578C241.277 45.9462 241.676 46.2552 242.473 46.505C242.622 46.5532 242.741 46.5905 242.828 46.6168C243.481 46.8271 243.935 47.0682 244.189 47.3399C244.448 47.6073 244.577 47.9623 244.577 48.405C244.577 48.9748 244.373 49.4372 243.966 49.7922C243.562 50.1428 243.034 50.3181 242.381 50.3181C241.82 50.3181 241.342 50.2129 240.948 50.0025C240.558 49.7922 240.245 49.4744 240.008 49.0493Z" fill="white"/>
</svg>
