<svg width="19" height="15" viewBox="0 0 19 15" fill="none" xmlns="http://www.w3.org/2000/svg">
<path d="M0.396655 1.53118C3.00433 3.7396 7.57999 7.62487 8.92483 8.83631C9.10537 8.99981 9.29901 9.08294 9.50003 9.08294C9.70064 9.08294 9.89395 9.00059 10.0741 8.83787C11.4201 7.62524 15.9957 3.7396 18.6034 1.53118C18.7658 1.39395 18.7905 1.15274 18.6591 0.984967C18.3553 0.597285 17.9022 0.375 17.4167 0.375H1.58338C1.09787 0.375 0.644805 0.597285 0.34099 0.985004C0.209549 1.15274 0.234301 1.39395 0.396655 1.53118Z" fill="white"/>
<path d="M18.7701 2.72807C18.6298 2.66275 18.4647 2.68554 18.348 2.78529C16.6402 4.23292 14.3901 6.14562 12.6931 7.60524C12.6038 7.6818 12.5535 7.79428 12.5555 7.91217C12.5574 8.0297 12.6119 8.14062 12.7039 8.21406C14.2807 9.47693 16.6568 11.2141 18.3728 12.4488C18.4412 12.4983 18.5223 12.5234 18.6039 12.5234C18.6658 12.5234 18.7276 12.5091 18.7844 12.4797C18.9167 12.4121 18.9998 12.276 18.9998 12.1275V3.08717C18.9997 2.93295 18.91 2.79264 18.7701 2.72807Z" fill="white"/>
<path d="M0.627 12.4487C2.34331 11.214 4.71987 9.47686 6.29624 8.21396C6.38823 8.14052 6.44274 8.02956 6.44467 7.91207C6.4466 7.79418 6.39636 7.6817 6.30707 7.60514C4.61006 6.14552 2.35953 4.23283 0.651752 2.78519C0.534227 2.68544 0.368793 2.66343 0.229633 2.72797C0.0896934 2.79254 0 2.93285 0 3.08708V12.1275C0 12.2759 0.083125 12.412 0.215309 12.4796C0.272123 12.509 0.333984 12.5233 0.395846 12.5233C0.477412 12.5233 0.55857 12.4982 0.627 12.4487Z" fill="white"/>
<path d="M18.5149 13.5257C16.8578 12.3402 13.8051 10.1299 11.9829 8.65087C11.8345 8.52989 11.6195 8.53375 11.4734 8.65977C11.1159 8.97172 10.8167 9.2346 10.6044 9.42553C9.95268 10.0139 9.04814 10.0139 8.39486 9.42475C8.18341 9.23419 7.88424 8.97053 7.52665 8.65974C7.3817 8.53293 7.1664 8.52907 7.01755 8.65083C5.20149 10.1248 2.14539 12.3378 0.48552 13.5257C0.393118 13.5922 0.333594 13.6946 0.322016 13.8079C0.310809 13.9212 0.34829 14.0336 0.425997 14.1171C0.725618 14.4399 1.14774 14.6251 1.5834 14.6251H17.4167C17.8524 14.6251 18.2741 14.4399 18.5745 14.1172C18.6518 14.034 18.6897 13.9216 18.6785 13.8083C18.6669 13.6951 18.6073 13.5923 18.5149 13.5257Z" fill="white"/>
</svg>
