<svg width="50" height="69" viewBox="0 0 50 69" fill="none" xmlns="http://www.w3.org/2000/svg">
<path d="M25.1158 0.404785C11.4935 0.404785 0.46582 11.4324 0.46582 25.0548C0.46582 35.1557 13.9955 55.9136 21.0384 65.9219C22.9844 68.7947 27.2472 68.7947 29.1933 65.9219C36.2361 55.9136 49.7658 35.1557 49.7658 25.0548C49.7658 11.4324 38.7382 0.404785 25.1158 0.404785ZM25.1158 32.9317C19.9264 32.9317 15.7562 28.7616 15.7562 23.5721C15.7562 18.4753 19.9264 14.3052 25.1158 14.3052C30.3053 14.3052 34.4754 18.4753 34.4754 23.5721C34.4754 28.7616 30.3053 32.9317 25.1158 32.9317Z" fill="#FF6600"/>
</svg>
