<svg width="50" height="50" viewBox="0 0 50 50" fill="none" xmlns="http://www.w3.org/2000/svg">
<path d="M19 2C18.4778 2 17.9454 2.19133 17.5684 2.56836C17.1913 2.94539 17 3.47778 17 4H9C7.346 4 6 5.346 6 7V45C6 46.654 7.346 48 9 48H41C42.388 48 43.5594 47.0535 43.9004 45.7715C43.9654 45.5255 44 45.266 44 45V7C44 5.346 42.654 4 41 4H33C33 3.47778 32.8087 2.94539 32.4316 2.56836C32.0546 2.19133 31.5222 2 31 2H19ZM19 4H31V10H19V4ZM9 6H17V8H10V44H40V8H33V6H41C41.551 6 42 6.448 42 7V45C42 45.552 41.551 46 41 46H9C8.449 46 8 45.552 8 45V7C8 6.448 8.449 6 9 6ZM12 10H17C17 10.5222 17.1913 11.0546 17.5684 11.4316C17.9454 11.8087 18.4778 12 19 12H31C31.5222 12 32.0546 11.8087 32.4316 11.4316C32.8087 11.0546 33 10.5222 33 10H38V42H12V10ZM33.9941 16.9883C33.8318 16.9905 33.6725 17.0322 33.5299 17.1098C33.3874 17.1874 33.2658 17.2985 33.1758 17.4336L23.541 31.4824L16.6758 25.1797C16.5801 25.0852 16.4664 25.011 16.3415 24.9615C16.2165 24.912 16.0829 24.8882 15.9485 24.8915C15.8141 24.8948 15.6818 24.9251 15.5594 24.9807C15.437 25.0363 15.3271 25.116 15.2362 25.215C15.1453 25.3141 15.0753 25.4304 15.0304 25.5571C14.9855 25.6838 14.9666 25.8182 14.9748 25.9524C14.983 26.0866 15.0182 26.2177 15.0782 26.3379C15.1383 26.4582 15.2219 26.5651 15.3242 26.6523L23.8867 34.5156L34.8242 18.5664C34.9309 18.4158 34.9939 18.2385 35.0061 18.0543C35.0183 17.8701 34.9792 17.6861 34.8933 17.5227C34.8073 17.3593 34.6778 17.2229 34.5191 17.1286C34.3604 17.0343 34.1787 16.9857 33.9941 16.9883Z" fill="#FF6600"/>
</svg>
