<svg width="10" height="13" viewBox="0 0 10 13" fill="none" xmlns="http://www.w3.org/2000/svg">
<path d="M1.5 0.141113C0.677469 0.141113 0 0.818582 0 1.64111V10.6411C0 11.4636 0.677469 12.1411 1.5 12.1411H8.5C9.32253 12.1411 10 11.4636 10 10.6411V3.43408L9.85352 3.2876L6.70703 0.141113H1.5ZM1.5 1.14111H6V4.14111H9V10.6411C9 10.9226 8.78147 11.1411 8.5 11.1411H1.5C1.21853 11.1411 1 10.9226 1 10.6411V1.64111C1 1.35964 1.21853 1.14111 1.5 1.14111ZM7 1.84814L8.29297 3.14111H7V1.84814ZM2 3.14111V4.14111H5V3.14111H2ZM2 6.14111V7.14111H3V6.14111H2ZM4 6.14111V7.14111H8V6.14111H4ZM2 8.14111V9.14111H3V8.14111H2ZM4 8.14111V9.14111H8V8.14111H4Z" fill="black"/>
</svg>
