<svg width="44" height="30" viewBox="0 0 44 30" fill="none" xmlns="http://www.w3.org/2000/svg">
<path fill-rule="evenodd" clip-rule="evenodd" d="M0 3C0 1.34315 1.34315 0 3 0H41C42.6569 0 44 1.34315 44 3V27C44 28.6569 42.6569 30 41 30H3C1.34315 30 0 28.6569 0 27V3Z" fill="#1B3D92"/>
<path opacity="0.68" fill-rule="evenodd" clip-rule="evenodd" d="M27.8301 11.2819C28.0298 10.024 27.8288 9.16823 27.1403 8.39287C26.3823 7.53944 25.0129 7.17383 23.2609 7.17383H18.1753C17.8173 7.17383 17.5123 7.43124 17.4566 7.78088L15.3388 21.0503C15.2971 21.3122 15.5019 21.5488 15.7699 21.5488H18.9096L18.6929 22.9067C18.6564 23.1358 18.8354 23.3428 19.0701 23.3428H21.7166C22.0298 23.3428 22.2964 23.1177 22.3453 22.8118L22.3713 22.6788L22.8698 19.5549L22.9019 19.3823C22.9508 19.0767 23.2174 18.8512 23.5306 18.8512H23.9264C26.4903 18.8512 28.4978 17.8221 29.0843 14.8454C29.3294 13.6017 29.2026 12.5635 28.5544 11.8336C28.3586 11.6132 28.1146 11.4307 27.8301 11.2819Z" fill="white"/>
<path opacity="0.7" fill-rule="evenodd" clip-rule="evenodd" d="M27.8301 11.2819C28.0298 10.024 27.8288 9.16823 27.1403 8.39287C26.3823 7.53944 25.0129 7.17383 23.2609 7.17383H18.1753C17.8173 7.17383 17.5123 7.43124 17.4566 7.78088L15.3388 21.0503C15.2971 21.3122 15.5019 21.5488 15.7699 21.5488H18.9096L19.6983 16.607L19.6738 16.7619C19.7296 16.4125 20.0318 16.1549 20.3899 16.1549H21.8823C24.8129 16.1549 27.1078 14.9783 27.7781 11.5758C27.7981 11.4754 27.8149 11.3777 27.8301 11.2819Z" fill="white"/>
<path fill-rule="evenodd" clip-rule="evenodd" d="M20.5456 11.2985C20.5791 11.0884 20.7158 10.9161 20.8996 10.8291C20.9831 10.7896 21.0766 10.7675 21.1744 10.7675H25.1609C25.6333 10.7675 26.0736 10.7982 26.4761 10.8622C26.5911 10.8805 26.7031 10.9016 26.8119 10.9255C26.9206 10.9494 27.0263 10.9759 27.1284 11.0055C27.1796 11.0202 27.2298 11.0358 27.2793 11.052C27.4769 11.1168 27.6611 11.1933 27.8304 11.282C28.0301 10.0241 27.8291 9.16839 27.1406 8.39303C26.3823 7.53944 25.0129 7.17383 23.2609 7.17383H18.1753C17.8173 7.17383 17.5123 7.43124 17.4566 7.78088L15.3388 21.0503C15.2971 21.3122 15.5019 21.5488 15.7699 21.5488H18.9096L19.6983 16.607L20.5456 11.2985Z" fill="white"/>
</svg>
