<svg width="12" height="13" viewBox="0 0 12 13" fill="none" xmlns="http://www.w3.org/2000/svg">
<path d="M10.2795 8.89983C9.57364 8.28865 8.8553 7.91726 8.15835 8.52844L7.74124 8.89622C7.43644 9.16486 6.86961 10.4161 4.67894 7.86497C2.48827 5.3193 3.79126 4.92267 4.09785 4.65764L4.51673 4.28805C5.21012 3.67687 4.94809 2.90704 4.44722 2.11377L4.14598 1.63421C3.64332 0.844542 3.09431 0.325311 2.39914 0.934686L2.02304 1.26822C1.71467 1.49358 0.855512 2.23096 0.646961 3.63C0.395631 5.30848 1.18884 7.23216 3.00162 9.34154C4.81262 11.4527 6.58798 12.5128 8.26708 12.4948C9.66276 12.4786 10.5077 11.7213 10.7715 11.4455L11.1476 11.112C11.8427 10.5026 11.4114 9.8806 10.7037 9.26942L10.2795 8.89983Z" fill="#2E2E2E"/>
</svg>
