<svg width="126" height="74" viewBox="0 0 126 74" fill="none" xmlns="http://www.w3.org/2000/svg">
<path fill-rule="evenodd" clip-rule="evenodd" d="M52.996 52.7034C50.9163 52.7034 49.6972 53.4921 48.765 54.7111V47.684H46.0399V60.5193C46.0399 65.1801 47.259 68.3351 52.2072 68.3351C57.2988 68.3351 58.3028 64.965 58.3028 60.5193C58.3028 54.9979 56.2231 52.7034 52.996 52.7034ZM52.2072 65.8255C49.3387 65.8255 48.765 63.6026 48.765 60.4475C48.765 57.2925 49.3387 55.1413 52.2072 55.1413C55.004 55.1413 55.5777 57.2208 55.5777 60.4475C55.5777 63.746 55.004 65.8255 52.2072 65.8255Z" fill="#59595B"/>
<path fill-rule="evenodd" clip-rule="evenodd" d="M92.7968 49.2615C92.5099 49.2615 90.3585 49.2615 90.0717 49.2615C90.0717 49.5483 90.0717 63.9611 90.0717 63.9611C90.0717 65.8254 91.0757 68.0483 94.0159 68.0483C94.0159 68.0483 95.3784 68.0483 95.6653 68.0483C95.6653 67.7615 95.6653 65.9689 95.6653 65.7537C95.4502 65.7537 94.5896 65.7537 94.5896 65.7537C93.4422 65.7537 92.7968 65.1084 92.7968 63.8177V55.8584C92.7968 55.8584 95.3784 55.8584 95.6653 55.8584C95.6653 55.6433 95.6653 54.0658 95.6653 53.8506C95.3784 53.8506 92.7968 53.8506 92.7968 53.8506C92.7968 53.8506 92.7968 49.5483 92.7968 49.2615Z" fill="#59595B"/>
<path fill-rule="evenodd" clip-rule="evenodd" d="M122.056 65.4669C122.056 67.2596 123.06 68.2634 124.853 68.2634C124.853 67.9766 124.853 58.4398 124.853 58.4398C124.853 54.6394 122.773 52.7034 119.689 52.7034C117.61 52.7034 116.319 53.7072 115.458 54.7111C115.458 54.7111 115.458 53.1336 115.458 52.9185C115.171 52.9185 113.02 52.9185 112.733 52.9185C112.733 53.2053 112.733 67.7615 112.733 68.0483C113.02 68.0483 115.243 68.0483 115.458 68.0483C115.458 67.7615 115.458 58.9417 115.458 58.9417C115.458 56.2169 117.179 55.2848 118.757 55.2848C120.765 55.2848 121.984 56.2886 121.984 58.9417V65.4669H122.056Z" fill="#59595B"/>
<path fill-rule="evenodd" clip-rule="evenodd" d="M37.8645 52.7034C36.3586 52.7034 35.0677 53.2053 34.2789 53.9224V52.9185H30.6932V73.9999H34.3506V67.0444C34.6374 67.4747 35.9283 68.2634 37.2908 68.2634C39.0837 68.2634 43.3864 68.0483 43.3864 60.4475C43.3864 53.4921 39.8725 52.7034 37.8645 52.7034ZM37.0757 65.0367C34.7809 65.0367 34.2789 63.2441 34.2789 60.5193C34.2789 57.7944 34.7809 56.0018 37.0757 56.0018C39.3705 56.0018 39.8008 57.7944 39.8008 60.5193C39.8008 63.2441 39.3705 65.0367 37.0757 65.0367Z" fill="#59595B"/>
<path fill-rule="evenodd" clip-rule="evenodd" d="M85.9124 47.684C85.6972 47.684 83.761 47.684 83.5458 47.684C83.5458 47.9708 83.5458 49.8351 83.5458 50.122C83.761 50.122 85.6972 50.122 85.9124 50.122C85.9124 49.8351 85.9124 47.9708 85.9124 47.684Z" fill="#59595B"/>
<path fill-rule="evenodd" clip-rule="evenodd" d="M83.3307 52.9185H86.0558V68.0483H83.3307V52.9185Z" fill="#59595B"/>
<path fill-rule="evenodd" clip-rule="evenodd" d="M7.0996 52.7034C5.01992 52.7034 4.01594 53.4921 3.58566 53.9223V47.6123H0V60.4475C0 65.2518 1.29084 68.2634 6.31076 68.2634C11.5458 68.2634 12.6215 65.0367 12.6215 60.4475C12.6215 54.8545 10.4701 52.7034 7.0996 52.7034ZM6.31076 65.0367C4.01594 65.0367 3.51394 63.244 3.51394 60.5192C3.51394 57.7944 4.01594 56.0018 6.31076 56.0018C8.60558 56.0018 9.03586 57.7227 9.03586 60.5192C9.03586 63.244 8.60558 65.0367 6.31076 65.0367Z" fill="#59595B"/>
<path fill-rule="evenodd" clip-rule="evenodd" d="M103.984 52.7034C100.255 52.7034 97.8168 54.9979 97.8168 60.5193C97.8168 65.9689 100.327 68.3351 103.984 68.3351C107.641 68.3351 110.151 66.0406 110.151 60.5193C110.151 55.0696 107.641 52.7034 103.984 52.7034ZM103.984 65.8972C101.546 65.8972 100.542 64.3196 100.542 60.5193C100.542 56.7906 101.546 55.1413 103.984 55.1413C106.422 55.1413 107.426 56.7189 107.426 60.5193C107.426 64.2479 106.422 65.8972 103.984 65.8972Z" fill="#59595B"/>
<path fill-rule="evenodd" clip-rule="evenodd" d="M81.1793 65.7538C80.9641 65.7538 80.0319 65.7538 80.0319 65.7538C78.8127 65.7538 78.239 65.1801 78.239 63.8177C78.239 63.8177 78.239 47.9708 78.239 47.684C77.9522 47.684 75.8008 47.684 75.5139 47.684C75.5139 47.9708 75.5139 63.9611 75.5139 63.9611C75.5139 66.4708 77.0199 67.9766 79.4582 67.9766H81.1793V65.7538Z" fill="#59595B"/>
<path fill-rule="evenodd" clip-rule="evenodd" d="M73.5777 65.7538C73.3626 65.7538 72.4303 65.7538 72.4303 65.7538C71.2112 65.7538 70.6375 65.1801 70.6375 63.8177C70.6375 63.8177 70.6375 47.9708 70.6375 47.684C70.3506 47.684 68.1992 47.684 67.9124 47.684C67.9124 47.9708 67.9124 63.9611 67.9124 63.9611C67.9124 66.4708 69.4183 67.9766 71.8566 67.9766H73.5777V65.7538Z" fill="#59595B"/>
<path fill-rule="evenodd" clip-rule="evenodd" d="M18.8606 53.9941C19.8646 53.2053 21.012 52.7034 22.3745 52.7034C25.745 52.7034 27.8247 54.9262 27.8247 58.4398V68.2634C25.6016 68.2634 24.2391 66.901 24.2391 64.6065V58.87C24.2391 57.0057 23.3068 55.9301 21.5857 55.9301C19.9363 55.9301 18.9323 57.0057 18.9323 58.87V67.9766H15.3466V47.684H18.9323V53.9941H18.8606Z" fill="#59595B"/>
<path fill-rule="evenodd" clip-rule="evenodd" d="M63.8247 47.684C63.5379 47.684 61.6733 47.684 61.4582 47.684C61.4582 47.9708 61.4582 49.8351 61.4582 50.122C61.6733 50.122 63.6096 50.122 63.8247 50.122C63.8247 49.8351 63.8247 47.9708 63.8247 47.684Z" fill="#59595B"/>
<path fill-rule="evenodd" clip-rule="evenodd" d="M61.3147 52.9185H63.9681V68.0483H61.3147V52.9185Z" fill="#59595B"/>
<path fill-rule="evenodd" clip-rule="evenodd" d="M98.3187 4.4456C95.1634 4.4456 91.6494 7.17041 91.6494 11.1142C91.6494 14.1975 93.3705 15.2014 92.7251 18.7867C91.9363 23.4475 84.0478 23.6627 84.0478 31.622C84.0478 36.7847 88.1355 40.5134 92.9403 40.5134C97.4582 40.5134 101.761 36.8565 101.761 31.622C101.761 27.5347 98.4622 24.0212 99.753 20.2925C101.044 16.4921 105.06 16.1336 105.06 11.1142C105.132 7.17041 101.618 4.4456 98.3187 4.4456Z" fill="#59595B"/>
<path fill-rule="evenodd" clip-rule="evenodd" d="M114.382 3.65684C115.602 0.860332 118.542 -0.573776 121.554 0.214983C124.566 1.07545 126.359 3.72855 125.928 7.17041C124.924 14.7712 121.41 30.6181 120.478 33.9882C119.546 37.4301 115.673 41.7324 110.151 40.2983C105.705 39.151 103.267 33.7731 104.629 29.3991C106.637 23.0173 111.729 9.6801 114.382 3.65684Z" fill="#59595B"/>
<path fill-rule="evenodd" clip-rule="evenodd" d="M81.8247 32.0522C81.8247 36.5696 78.239 40.1549 73.7211 40.1549C69.2749 40.1549 65.6175 36.4979 65.6175 32.0522C65.6175 27.5347 69.2032 23.9495 73.7211 23.9495C78.239 23.8778 81.8247 27.5347 81.8247 32.0522Z" fill="#59595B"/>
<path fill-rule="evenodd" clip-rule="evenodd" d="M84.9801 16.3487C84.9801 19.432 82.4701 21.9417 79.3865 21.9417C76.3028 21.9417 73.7929 19.432 73.7929 16.3487C73.7929 13.2654 76.3028 10.7557 79.3865 10.7557C82.4701 10.7557 84.9801 13.2654 84.9801 16.3487Z" fill="#59595B"/>
</svg>
