<svg width="40" height="40" viewBox="0 0 40 40" fill="none" xmlns="http://www.w3.org/2000/svg">
<path d="M19.9999 0.679932C9.34705 0.679932 0.679932 9.34621 0.679932 19.9999C0.679932 30.6537 9.34705 39.3199 19.9999 39.3199C30.6528 39.3199 39.3199 30.6537 39.3199 19.9999C39.3199 9.34621 30.6528 0.679932 19.9999 0.679932ZM22.1352 26.4839C19.3657 26.4839 18.3418 24.688 18.3418 24.688C18.3418 24.688 17.8479 26.6275 17.4841 28.006C17.1204 29.3844 17.0583 29.4046 16.7055 30.1824C16.3098 31.0552 15.3396 32.4286 15.054 32.8511C14.8264 33.1879 14.5441 33.4685 14.3787 33.4357C14.2132 33.4038 14.2132 33.2299 14.1729 32.8662C14.1174 32.3664 13.9561 30.6873 14.0334 29.5516C14.0838 28.8124 14.3417 27.5599 14.3417 27.5599L16.2107 19.9092C15.0616 17.5513 16.0041 13.8679 18.6223 13.8679C20.4796 13.8679 20.9659 15.5488 20.3973 17.569C20.1444 18.4703 19.3506 20.9979 19.3263 21.1171C19.3019 21.2364 19.2431 21.4884 19.2565 21.7371C19.2565 22.4746 19.8202 23.9815 21.7723 23.9815C24.9173 23.9815 26.4066 19.3321 26.4066 16.2225C26.4066 13.7218 24.8173 10.7011 20.1772 10.7011C15.4497 10.7011 12.8423 14.2989 12.8423 17.6009C12.8423 19.4531 13.5731 20.1973 13.9116 20.6056C14.1871 20.9374 14.0477 21.2557 14.0477 21.2557L13.7495 22.4527C13.6395 22.8484 13.2858 23.0517 12.7894 22.7619C12.2921 22.4763 9.91993 21.4716 9.91993 17.1851C9.91993 12.7927 14.0578 8.23993 20.4796 8.23993C25.5775 8.23993 30.0799 11.4462 30.0799 16.6408C30.0799 23.0533 26.0748 26.4839 22.1352 26.4839Z" fill="white"/>
</svg>
