<svg width="15" height="16" viewBox="0 0 15 16" fill="none" xmlns="http://www.w3.org/2000/svg">
  <path d="M11.5357 8.53571C11.5357 8.86775 11.2606 9.14286 10.9286 9.14286H8.5V11.5714C8.5 11.9035 8.22489 12.1786 7.89286 12.1786H6.67857C6.34654 12.1786 6.07143 11.9035 6.07143 11.5714V9.14286H3.64286C3.31083 9.14286 3.03571 8.86775 3.03571 8.53571V7.32143C3.03571 6.9894 3.31083 6.71429 3.64286 6.71429H6.07143V4.28571C6.07143 3.95368 6.34654 3.67857 6.67857 3.67857H7.89286C8.22489 3.67857 8.5 3.95368 8.5 4.28571V6.71429H10.9286C11.2606 6.71429 11.5357 6.9894 11.5357 7.32143V8.53571ZM14.5714 7.92857C14.5714 3.90625 11.308 0.642856 7.28571 0.642856C3.26339 0.642856 0 3.90625 0 7.92857C0 11.9509 3.26339 15.2143 7.28571 15.2143C11.308 15.2143 14.5714 11.9509 14.5714 7.92857Z" fill="#FF6600"/>
</svg>
