<svg width="14" height="13" viewBox="0 0 14 13" fill="none" xmlns="http://www.w3.org/2000/svg">
<path d="M7 0C5.90234 0 5 0.902344 5 2C5 2.54688 5.22266 3.04687 5.58594 3.41016V3.41406C5.36328 3.55469 5.16797 3.73438 4.99219 3.9375C4.96094 2.86719 4.07812 2 3 2C1.90234 2 1 2.90234 1 4C1 4.53516 1.21875 5.02344 1.5625 5.38281C0.636719 5.89453 0 6.87109 0 8H1C1 6.89062 1.89062 6 3 6C3.45312 6 3.86328 6.14844 4.19922 6.39844L5 7V6C5 4.89062 5.89062 4 7 4C8.10938 4 9 4.89062 9 6V7L9.80078 6.39844C10.1367 6.14844 10.5469 6 11 6C12.1094 6 13 6.89062 13 8H14C14 6.87109 13.3633 5.89453 12.4375 5.38281C12.7812 5.02344 13 4.53516 13 4C13 2.90234 12.0977 2 11 2C9.92188 2 9.03906 2.86719 9.00391 3.9375C8.83203 3.73438 8.63672 3.55078 8.41406 3.41016C8.77734 3.04687 9 2.54688 9 2C9 0.902344 8.09766 0 7 0ZM7 1C7.55859 1 8 1.44141 8 2C8 2.55859 7.55859 3 7 3C6.44141 3 6 2.55859 6 2C6 1.44141 6.44141 1 7 1ZM3 3C3.55859 3 4 3.44141 4 4C4 4.55859 3.55859 5 3 5C2.44141 5 2 4.55859 2 4C2 3.44141 2.44141 3 3 3ZM11 3C11.5586 3 12 3.44141 12 4C12 4.55859 11.5586 5 11 5C10.4414 5 10 4.55859 10 4C10 3.44141 10.4414 3 11 3ZM7 7C5.90234 7 5 7.90234 5 9C5 9.53516 5.21875 10.0234 5.5625 10.3828C4.63672 10.8945 4 11.8711 4 13H5C5 11.8906 5.89062 11 7 11C8.10938 11 9 11.8906 9 13H10C10 11.8711 9.36328 10.8945 8.4375 10.3828C8.78125 10.0234 9 9.53516 9 9C9 7.90234 8.09766 7 7 7ZM7 8C7.55859 8 8 8.44141 8 9C8 9.55859 7.55859 10 7 10C6.44141 10 6 9.55859 6 9C6 8.44141 6.44141 8 7 8Z" fill="#757575"/>
</svg>
