<svg width="25" height="25" viewBox="0 0 25 25" fill="none" xmlns="http://www.w3.org/2000/svg">
<path d="M12.5 0C11.2734 0 10.2383 0.677734 8.70312 1.46875C7.16797 2.25977 5.10742 3.21484 1.89062 3.92188L1.5 4.01562V4.40625C1.5 12.0664 4.18555 17.1855 6.875 20.3594C9.56445 23.5332 12.2969 24.7969 12.2969 24.7969L12.5156 24.9062L12.7344 24.7969C12.7344 24.7969 23.5 19.2344 23.5 4.40625V4.01562L23.1094 3.92188C19.8926 3.21484 17.832 2.25977 16.2969 1.46875C14.7617 0.677734 13.7266 0 12.5 0ZM12.5 1C13.3223 1 14.2754 1.55273 15.8438 2.35938C17.334 3.125 19.4297 4.06445 22.4688 4.78125C22.2852 18.3398 13.127 23.4258 12.4844 23.7656C12.1738 23.6152 10.0098 22.5332 7.625 19.7188C5.11133 16.752 2.62305 11.9805 2.53125 4.78125C5.57031 4.06445 7.66602 3.125 9.15625 2.35938C10.7246 1.55273 11.6777 1 12.5 1ZM9.70312 8.71875C8.63281 8.71875 8.03125 9.41992 8.03125 10.3125C8.03125 10.9336 8.47266 11.5137 9.10938 11.9219C9.57617 12.2461 9.85938 12.5098 9.85938 12.9688C9.85938 13.4453 9.54492 13.7656 8.98438 13.7656C8.6875 13.7656 8.32227 13.6582 8.10938 13.5312L7.95312 14.3125C8.13086 14.4316 8.55859 14.5469 8.98438 14.5469C10.0137 14.5469 10.75 13.9043 10.75 12.875C10.75 12.2637 10.457 11.709 9.73438 11.2344C9.14844 10.8613 8.92188 10.6445 8.92188 10.2031C8.92188 9.85352 9.16992 9.51562 9.6875 9.51562C9.99414 9.51562 10.2285 9.60156 10.3906 9.70312L10.5469 8.92188C10.3945 8.82812 10.0684 8.71875 9.70312 8.71875ZM12.9219 8.71875C11.8516 8.71875 11.25 9.41992 11.25 10.3125C11.25 10.9336 11.6914 11.5137 12.3281 11.9219C12.7949 12.2461 13.0781 12.5098 13.0781 12.9688C13.0781 13.4453 12.7793 13.7656 12.2188 13.7656C11.9219 13.7656 11.541 13.6582 11.3281 13.5312L11.1719 14.3125C11.3496 14.4316 11.7773 14.5469 12.2031 14.5469C13.2324 14.5469 13.9688 13.9043 13.9688 12.875C13.9688 12.2637 13.6758 11.709 12.9531 11.2344C12.3672 10.8613 12.1406 10.6445 12.1406 10.2031C12.1406 9.85352 12.3887 9.51562 12.9062 9.51562C13.2129 9.51562 13.4473 9.60156 13.6094 9.70312L13.7812 8.92188C13.6289 8.82812 13.2871 8.71875 12.9219 8.71875ZM14.6719 8.76562V14.5H17.1094V13.7344H15.5781V8.76562H14.6719Z" fill="#81808A"/>
</svg>
