<svg width="150" height="43" viewBox="0 0 150 43" fill="none" xmlns="http://www.w3.org/2000/svg">
<path fill-rule="evenodd" clip-rule="evenodd" d="M11.5073 35.5217H29.7822C30.0384 35.5217 30.0384 35.6067 29.7822 35.7767C27.7327 36.7115 24.7438 39.6858 24.7438 39.6858C22.6943 41.7253 21.0717 43 17.5705 43H0.0640479C-0.0213493 43 -0.0213493 42.7451 0.0640479 42.7451C2.02818 41.6403 4.84629 38.666 4.84629 38.666C6.04185 37.3063 8.51836 35.5217 11.5073 35.5217Z" fill="#59595B"/>
<path fill-rule="evenodd" clip-rule="evenodd" d="M131.576 35.5217H149.936C150.021 35.5217 150.021 35.6067 149.936 35.7767C147.801 36.7115 144.898 39.6858 144.898 39.6858C142.763 41.7253 141.14 43 137.724 43H120.218C120.132 43 120.132 42.7451 120.218 42.7451C122.182 41.6403 125 38.666 125 38.666C126.281 37.3063 128.587 35.5217 131.576 35.5217Z" fill="#59595B"/>
<path fill-rule="evenodd" clip-rule="evenodd" d="M41.4815 35.5217H59.7565C60.0127 35.5217 60.0127 35.6067 59.7565 35.7767C57.707 36.7115 54.7181 39.6858 54.7181 39.6858C52.6685 41.7253 51.046 43 47.5447 43H30.2091C29.9529 43 29.9529 42.7451 30.1237 42.7451C32.0878 41.6403 34.9059 38.666 34.9059 38.666C36.1015 37.3063 38.4926 35.5217 41.4815 35.5217Z" fill="#59595B"/>
<path fill-rule="evenodd" clip-rule="evenodd" d="M71.5412 35.5217H89.8162C90.0724 35.5217 90.0724 35.6067 89.8162 35.7767C87.7667 36.7115 84.7778 39.6858 84.7778 39.6858C82.7282 41.7253 81.1057 43 77.6898 43H60.1834C60.098 43 60.098 42.7451 60.098 42.7451C62.1475 41.6403 64.8802 38.666 64.8802 38.666C66.0758 37.3063 68.5523 35.5217 71.5412 35.5217Z" fill="#59595B"/>
<path fill-rule="evenodd" clip-rule="evenodd" d="M101.601 35.5217H119.962C120.047 35.5217 120.047 35.6067 119.876 35.7767C117.827 36.7115 114.838 39.6858 114.838 39.6858C112.788 41.7253 111.166 43 107.75 43H90.2433C90.1579 43 90.1579 42.7451 90.2433 42.7451C92.2074 41.6403 95.0255 38.666 95.0255 38.666C96.1357 37.3063 98.6122 35.5217 101.601 35.5217Z" fill="#59595B"/>
<path fill-rule="evenodd" clip-rule="evenodd" d="M106.639 0C95.1109 0 87.4251 5.94862 87.4251 14.9565C87.4251 23.2846 94.5131 28.8083 104.932 28.8083C108.347 28.8083 111.336 28.3834 114.838 27.4486V20.5652C112.361 23.3696 109.372 24.3893 106.213 24.3893C99.9785 24.3893 95.7087 20.3103 95.7087 14.3617C95.7087 8.49802 100.064 4.24901 106.298 4.24901C109.628 4.24901 112.276 5.52372 114.411 7.7332V0.764822C112.19 0.339921 109.372 0 106.639 0Z" fill="#59595B"/>
<path fill-rule="evenodd" clip-rule="evenodd" d="M20.4738 4.92883C24.7437 4.92883 29.8675 5.77863 32.0024 7.56321V0.934755H1.68645V7.56321C3.82138 5.77863 8.43283 5.01381 13.3005 5.01381V23.1146C13.3005 25.749 13.0443 26.5138 12.0195 27.8735H21.7548C20.6446 26.5138 20.4738 25.749 20.4738 23.1146V4.92883Z" fill="#59595B"/>
<path fill-rule="evenodd" clip-rule="evenodd" d="M51.473 11.3873C49.765 12.0672 46.5199 12.1521 44.9828 12.1521H42.4209V5.01381H45.8368C48.9111 5.01381 54.2057 5.69365 56.1698 7.47823V0.934755H34.052C35.1621 2.20946 35.3329 3.05926 35.3329 5.60867V23.0296C35.3329 25.664 35.0767 26.4288 34.1374 27.7885H57.6216V21.245C54.3765 23.7095 48.2279 23.7095 45.7514 23.7095H42.3355V16.1462H44.812C46.5199 16.1462 49.5942 16.4012 51.473 16.996V11.3873Z" fill="#59595B"/>
<path fill-rule="evenodd" clip-rule="evenodd" d="M84.2655 1.78458C80.7642 0.679842 76.1527 0 72.6515 0C66.2467 0 60.0127 2.03953 60.0127 8.83794C60.0127 20.5652 79.2271 14.3617 79.2271 21.585C79.2271 23.9644 75.8112 24.8992 72.993 24.8992C68.04 24.8992 64.6241 24.0494 60.3543 21.2451V27.1937C63.5994 28.2984 67.9546 28.8933 72.6515 28.8933C79.3124 28.8933 85.461 26.9387 85.461 20.0553C85.461 7.7332 66.3321 13.2569 66.3321 7.3083C66.3321 4.84387 69.4064 3.99407 72.1391 3.99407C76.6651 3.99407 81.5328 5.35375 84.1801 8.07312V1.78458H84.2655Z" fill="#59595B"/>
<path fill-rule="evenodd" clip-rule="evenodd" d="M133.625 0.424849C123.292 0.424849 115.862 6.37347 115.862 14.7865C115.862 23.1146 122.523 28.4683 132.173 28.4683C142.677 28.4683 149.936 22.6897 149.936 14.1916C150.021 5.94856 143.36 0.424849 133.625 0.424849ZM132.856 24.4743C127.306 24.4743 123.804 19.9703 123.804 14.4466C123.804 8.92287 127.306 4.41892 132.856 4.41892C138.322 4.41892 141.908 8.92287 141.908 14.4466C141.994 19.9703 138.322 24.4743 132.856 24.4743Z" fill="#59595B"/>
</svg>
