<svg width="42" height="35" viewBox="0 0 42 35" fill="none" xmlns="http://www.w3.org/2000/svg">
<path d="M42.0524 4.76757C40.5004 5.45663 38.8368 5.91929 37.0879 6.12929C38.8729 5.0596 40.2444 3.36647 40.8876 1.35179C39.2207 2.33944 37.3668 3.05804 35.4013 3.44522C33.8263 1.76522 31.5819 0.718506 29.098 0.718506C24.3271 0.718506 20.4585 4.58382 20.4585 9.35476C20.4585 10.0307 20.5372 10.6902 20.6849 11.3235C13.5055 10.9626 7.14318 7.52382 2.88084 2.29679C2.136 3.57647 1.71272 5.0596 1.71272 6.64116C1.71272 9.63694 3.23521 12.2816 5.55506 13.8337C4.13756 13.7877 2.80537 13.3973 1.64053 12.7509C1.64053 12.7869 1.64053 12.823 1.64053 12.8591C1.64053 17.046 4.6199 20.534 8.56725 21.3313C7.84537 21.5282 7.08084 21.6332 6.29334 21.6332C5.73553 21.6332 5.19412 21.5807 4.66584 21.4757C5.76834 24.9046 8.95772 27.4082 12.7344 27.4771C9.78131 29.7937 6.05709 31.1718 2.00803 31.1718C1.30912 31.1718 0.62334 31.1324 -0.0493164 31.0504C3.77006 33.5048 8.31131 34.9321 13.1905 34.9321C29.0783 34.9321 37.7671 21.771 37.7671 10.3588C37.7671 9.98476 37.7572 9.60741 37.7441 9.23991C39.4307 8.02257 40.8941 6.50007 42.0524 4.76757Z" fill="white"/>
</svg>
