<svg width="84" height="93" viewBox="0 0 84 93" fill="none" xmlns="http://www.w3.org/2000/svg">
<path d="M10.799 81.8211C10.6427 81.3522 10.2521 80.4144 10.174 79.6329C9.93961 77.9918 10.799 76.9759 11.5802 76.7415C12.4395 76.507 12.752 76.8977 13.1426 77.9137C13.6114 79.4766 13.6114 81.5085 13.4551 84.4C13.2989 88.3855 11.2677 93.1525 6.34596 92.9963C2.12733 92.9181 0.252388 90.1829 0.0180195 85.9629C-0.0601033 84.0092 0.0961424 81.9774 0.87737 79.2422C1.34611 77.7574 1.73672 77.2103 3.06481 76.8978C4.15853 76.7415 4.00228 77.8355 3.76791 79.0859C3.22105 81.9774 2.98668 83.384 3.22105 86.6663C3.3773 90.1048 5.01788 91.5114 6.73658 91.5114C9.31463 91.5896 10.4865 89.4014 10.9552 86.2755C11.2677 83.8529 11.0333 82.6026 10.799 81.8211ZM66.2661 85.2596C67.2817 85.2596 67.5942 86.4318 67.3599 87.2133C67.1255 87.9166 66.2661 88.7763 64.938 89.0107C64.6255 88.2292 64.4693 85.2596 66.2661 85.2596ZM47.4385 86.9007C47.4385 86.1192 46.9698 85.4159 46.5011 85.4159C46.0323 85.4159 45.0167 85.8848 45.0167 87.4477C45.0167 88.62 45.4074 89.2451 45.6417 89.4796C47.0479 89.0107 47.4385 87.8385 47.4385 86.9007ZM32.439 77.054C32.3608 76.2726 31.7359 75.7255 30.9546 75.7255C30.0172 75.7255 29.1578 76.6633 29.2359 77.9137C29.3141 78.6951 29.7828 79.3985 30.7203 79.3985C31.7359 79.3985 32.5171 78.1481 32.439 77.054ZM40.2512 79.8674C40.1731 78.5389 39.8606 77.9137 39.0794 77.9918C38.1419 78.07 37.6732 81.0396 37.9076 84.2437C38.0638 86.3537 38.3763 86.6663 38.6107 86.5881C39.1575 86.5881 40.4856 82.9151 40.2512 79.8674ZM72.2816 84.947C71.6566 87.4477 69.8598 91.0426 67.2036 91.0426C66.5786 91.0426 65.4849 90.8081 65.4849 90.1829C65.4849 89.4796 69.7035 89.4014 69.7035 86.1974C69.7035 85.0251 68.6098 83.3059 66.9692 83.3059C64.7818 83.3059 62.6725 85.6503 62.6725 88.9326C62.6725 91.9022 64.4693 92.84 66.3443 92.84C69.5473 92.84 71.4222 90.2611 72.4378 88.0729C72.9066 89.5577 73.2191 92.84 74.3909 92.84C74.8596 92.84 75.1721 92.6055 75.7971 91.277C77.2033 88.0729 78.6095 84.3218 80.5626 84.3218C81.2657 84.3218 80.8751 85.6503 82.5938 85.6503C83.375 85.6503 84 84.947 84 84.1655C84 83.0714 82.9844 82.2118 81.422 82.2118C76.8908 82.2118 75.9534 89.0107 75.1721 89.0107C74.0003 89.0107 74.3909 83.5403 73.4534 83.5403C72.7503 83.6185 72.3597 84.5563 72.2816 84.947ZM33.6889 90.73C34.392 90.73 35.642 90.4955 36.6576 88.9326C36.1107 87.6822 35.7201 85.1814 35.642 84.2437C35.3295 79.5548 37.1263 75.1785 39.1575 75.0222C40.5637 74.944 41.7356 76.2726 41.8918 78.5389C42.2824 84.4 40.3294 86.8226 39.3138 88.9326C39.47 89.714 40.8762 91.1207 42.1262 91.1207C42.5949 91.1207 43.2199 90.8863 43.298 90.6518C43.2199 90.3392 43.1418 89.8703 43.1418 89.2451C43.1418 85.8848 45.3292 82.9933 47.2042 82.9933C48.6885 82.9933 49.5479 84.947 49.5479 86.2755C49.5479 87.8385 48.2198 89.0889 46.3448 90.2611C46.6573 90.5737 47.2823 90.8081 47.8292 90.8081C50.5635 90.8081 52.0478 87.4477 53.0634 84.4C53.2196 83.8529 53.6102 82.9933 54.2352 82.9933C55.4071 82.9933 55.8758 90.6518 57.8289 90.6518C58.6882 90.6518 59.3132 88.9325 59.3132 87.6822C59.3132 86.7444 59.0007 86.5881 59.0007 85.1814C59.0007 83.6185 59.7819 82.3681 60.9538 82.3681C61.6569 82.3681 61.8913 83.0714 61.8913 83.8529C61.8913 86.9789 59.7038 92.6837 56.4227 92.6837C53.9227 92.6837 54.1571 88.4637 53.2978 88.4637C52.3603 88.4637 50.9541 92.7618 46.1886 92.7618C45.4074 92.7618 44.6261 92.3711 43.923 91.5896C42.7512 92.3711 41.8137 92.6837 40.72 92.6837C38.9232 92.6837 38.1419 90.8863 37.4388 90.8863C36.5795 90.8863 35.642 92.7618 32.6733 92.7618C30.3297 92.7618 29.939 89.714 29.1578 89.714C28.4547 89.714 27.361 92.7618 26.111 92.7618C24.0798 92.7618 23.6892 87.4477 21.8924 87.4477C20.4862 87.4477 16.1113 92.9181 14.8613 92.7618C14.3926 92.6837 14.1582 92.3711 14.2364 91.9022C14.3145 91.1989 14.8613 89.4796 15.0957 88.62C15.4863 87.1351 15.8769 85.5722 16.0332 85.0252C16.2676 84.4781 16.7363 84.1655 17.205 84.1655C17.4394 84.1655 17.5175 84.5563 17.5175 84.947C17.7519 86.1192 18.0644 87.3696 18.455 87.3696C19.1581 87.3696 21.3455 83.0714 22.6736 83.0714C24.2361 83.0714 24.4704 89.7922 26.6579 89.7922C27.361 89.7922 27.9079 88.9326 28.3766 87.8385C28.4547 86.0411 28.9234 83.4622 30.3297 83.4622C31.3453 83.4622 31.814 85.7285 31.1109 87.6822C31.1109 90.1829 32.6733 90.73 33.6889 90.73Z" fill="#59595B"/>
<path d="M67.2817 15.1607C66.8911 15.1607 66.4223 15.1607 66.1098 14.6137C65.8755 14.1448 65.9536 13.4415 65.4849 13.0507C65.9536 13.207 66.3442 13.207 66.7348 13.207C67.9067 13.207 69.0004 12.4255 69.8597 12.4255C70.4066 12.4255 70.5628 12.8163 70.5628 13.1289C70.641 14.223 68.3754 15.1607 67.2817 15.1607ZM67.8285 18.0522C70.4847 18.0522 72.9065 15.9422 72.9065 14.0667C72.9065 13.207 72.5159 12.5037 71.4222 12.3474C71.5784 12.5818 71.6566 12.7381 71.6566 13.1289C71.6566 14.5355 69.5472 16.0985 67.2036 16.0985C66.3442 16.0985 66.1098 16.7237 66.1098 16.9581C66.1098 17.7396 66.8129 18.0522 67.8285 18.0522ZM67.5942 19.0681C67.9067 21.4907 71.5784 24.7729 72.594 24.6948C73.2971 24.6166 73.5315 21.4907 73.5315 19.0681C73.5315 17.6615 73.6096 16.5674 72.8284 16.333C71.7347 18.6774 68.6098 19.2244 67.5942 19.0681Z" fill="#59595B"/>
<path d="M10.0177 35.1667C10.8771 35.1667 10.7209 29.8526 12.1271 29.8526C12.4396 29.8526 12.5958 30.1652 12.5958 30.556C12.5958 31.7282 11.9708 33.5256 11.9708 34.4634C11.9708 34.9323 12.1271 35.0886 12.3614 35.0886C12.9864 35.0886 14.0801 29.2275 15.0957 29.2275C15.4082 29.2275 15.5645 29.54 15.5645 29.9308C15.5645 31.1812 14.002 34.6978 14.002 35.7137C14.002 35.87 14.0801 36.0263 14.1583 36.0263C14.7832 36.0263 16.1113 33.2912 16.5019 31.8845C16.7363 31.1812 17.0488 30.7904 17.2832 30.7904C17.5175 30.7904 17.7519 31.103 17.7519 31.65C17.7519 33.0567 16.5019 36.2608 15.3301 38.4489C14.4707 40.1682 13.1427 42.5908 13.1427 43.9193C13.1427 44.6226 13.2989 45.326 14.2364 46.1856C12.5958 46.1074 11.9708 45.9511 11.3458 44.6226C8.61154 50.093 16.4238 49.546 13.6895 54.3911C13.2208 53.5315 9.39276 52.5937 9.39276 47.5923C9.39276 43.216 13.2208 40.6371 13.2208 38.8397C13.2208 38.4489 13.0645 38.1363 12.752 37.9019C11.8927 37.1986 11.8927 36.5734 11.1896 36.5734C10.7209 36.5734 10.0959 37.6674 10.7208 38.6834C10.9552 38.996 11.1115 39.2304 11.1115 39.543C11.1115 40.2463 10.0177 42.2 9.15839 42.2C8.37717 42.2 7.75218 40.2463 7.75218 37.0423C7.75218 34.2289 8.37717 31.4156 9.15839 31.4156C9.39276 31.4156 9.47089 31.5719 9.47089 31.8063C9.47089 32.1189 9.39276 32.8223 9.39276 33.9163C9.54901 35.0886 9.78338 35.1667 10.0177 35.1667Z" fill="#59595B"/>
<path d="M16.5801 42.6689C17.6738 42.6689 18.5332 41.8874 18.5332 40.09V37.5112C18.5332 36.4952 18.6113 35.4012 19.3144 34.6197C19.2363 34.9323 19.2363 35.323 19.2363 35.6356C19.2363 37.8237 20.4862 39.3867 20.4862 41.4967C20.4862 42.2782 20.2519 42.7471 19.6269 42.7471C19.0019 42.7471 19.08 42.2 18.9238 42.2C18.8456 42.2 18.6894 42.5126 18.6894 42.9034C18.6894 43.4504 19.08 44.31 20.1737 44.31C21.1112 44.31 21.8143 43.4504 21.8143 42.5126C21.8143 40.2463 20.0175 37.6674 20.0175 35.1667C20.0175 34.0726 20.33 33.3693 20.5643 32.8223C20.5643 37.9019 24.8611 41.653 24.8611 43.763C24.8611 44.2319 24.4705 44.6226 24.0018 44.6226C23.3768 44.6226 23.1424 44.1537 23.1424 43.8411C23.1424 43.6848 23.1424 43.6067 23.0643 43.6067C22.908 43.6067 22.4393 44.1537 22.4393 44.7789C22.4393 45.6386 23.1424 46.6545 24.3924 46.6545C25.8767 46.6545 26.6579 45.4041 26.6579 44.31C26.6579 41.653 21.4237 37.5893 21.4237 33.213C21.4237 32.4315 21.5799 31.2593 22.1268 30.3215C18.7675 32.5097 17.6738 35.4011 17.6738 37.9019C17.6738 40.09 17.5957 41.1841 16.502 41.1841C15.877 41.1841 15.7207 40.6371 15.5645 40.6371C15.4082 40.6371 15.3301 41.106 15.3301 41.2623C15.1739 42.1219 15.877 42.6689 16.5801 42.6689Z" fill="#59595B"/>
<path d="M55.3289 13.8322C55.6414 13.5977 57.1258 13.9884 58.9226 13.0507C59.1569 12.8944 59.3913 12.8944 59.6257 12.8944C60.485 12.8944 60.3288 13.9103 61.11 13.9103C61.735 13.9103 62.5943 13.3633 63.0631 13.3633C63.8443 13.3633 64.938 15.7859 64.938 16.8799C64.938 18.2084 62.985 18.9899 60.6413 18.9899C57.2039 18.9899 55.1727 16.0203 55.1727 14.0666C55.1727 13.9884 55.2508 13.9103 55.3289 13.8322ZM60.8756 17.1144C61.9694 17.1144 62.8287 16.5673 62.8287 16.3329C62.8287 16.2547 62.6725 16.1766 62.36 16.1766C62.0475 16.1766 61.3444 16.1766 60.0944 15.9421C59.0007 15.7859 58.2195 15.317 57.907 15.317C57.8289 15.317 57.7507 15.3951 57.7507 15.4733C57.7507 16.0984 59.0007 17.1144 60.8756 17.1144Z" fill="#59595B"/>
<path d="M17.1269 52.3592C16.2675 52.5937 14.9395 53.9222 14.9395 56.0322C14.9395 58.5329 17.5956 62.4403 22.0486 62.4403C25.7985 62.4403 26.736 59.8614 26.736 58.1422C26.736 54.3129 24.3923 51.5777 21.2674 51.5777C19.5487 51.5777 18.0644 52.8281 18.0644 54.6255C18.0644 56.3448 19.3143 58.8455 22.3611 58.8455C23.7673 58.8455 24.6267 57.8296 24.6267 56.6574C24.6267 55.4851 23.6111 53.9222 22.0486 53.9222C21.5799 53.9222 21.2674 54.2348 21.2674 54.7037C21.2674 55.3288 22.1267 55.954 23.1423 55.954C23.3767 55.954 23.6111 55.8759 23.6892 55.8759C23.7673 55.954 23.7673 56.1103 23.7673 56.1885C23.7673 56.8137 23.2205 57.1263 22.3611 57.1263C21.033 57.1263 19.7831 56.1885 19.7831 54.6255C19.7831 53.6877 20.5643 53.0626 21.7361 53.0626C24.0017 53.0626 25.3298 55.0944 25.3298 57.1263C25.3298 58.9237 24.3142 60.0177 22.283 60.0177C18.2206 59.7833 16.1894 56.1103 17.1269 52.3592Z" fill="#59595B"/>
<path d="M46.3449 67.3636C47.5948 67.3636 47.5167 67.2855 47.9073 67.2855C48.2979 67.2855 48.2979 67.5199 48.2979 67.6762C48.2979 68.2233 47.048 68.9266 44.7824 68.9266C43.4543 68.9266 42.6731 68.2232 42.4387 67.4418C41.1887 68.2232 39.2357 69.0047 37.2826 69.0047C32.0484 69.0047 30.7203 66.7384 29.0797 65.957C27.8298 65.4099 25.8767 66.504 23.2205 63.5344C23.6111 63.6125 24.0799 63.6125 24.4705 63.6125C26.8142 63.6125 28.0641 62.4403 28.0641 60.6429C28.0641 60.4084 28.0641 60.174 27.986 59.9396C28.6891 60.2521 30.3297 61.4244 30.7203 63.6125C30.7984 63.847 31.814 64.0814 32.5171 64.0814C33.4546 64.0814 34.6264 63.6907 34.7827 62.2059C37.8295 61.9714 39.9388 60.0959 40.3294 57.8296C41.4231 58.2203 42.6731 59.1581 42.9856 59.7051C43.4543 59.5488 43.923 59.4707 44.548 59.4707C45.3293 59.4707 46.2667 59.627 47.3604 59.9396C47.4386 59.627 47.4386 59.1581 47.9854 59.1581C48.7667 59.1581 48.5323 60.0177 48.7667 60.4866C48.9229 60.721 49.5479 60.8773 49.5479 61.4244C49.5479 61.8933 49.1573 62.1277 48.8448 62.1277C48.7667 62.1277 48.6104 62.1277 48.5323 62.0496C47.9854 62.2059 47.9854 65.8788 45.8761 65.8788C44.3137 65.8788 42.8293 64.5503 42.2043 62.9092C42.0481 62.4403 41.6575 62.1277 41.2669 62.1277C40.8763 62.1277 40.6419 62.2058 40.1732 62.7529C38.7669 64.2377 36.5014 65.5662 33.6108 65.5662C32.7515 65.5662 32.0484 65.4881 31.8921 65.4881C31.814 65.4881 31.814 65.4881 31.814 65.5662C31.814 65.7225 32.6734 66.4258 34.5483 66.4258C39.0794 66.4258 40.1732 63.9251 40.8763 63.9251C40.9544 63.9251 41.2669 63.9251 41.5012 64.3158C42.595 66.7384 44.8605 67.3636 46.3449 67.3636ZM44.3137 62.2059C44.3137 62.7529 44.7824 63.2218 45.3293 63.2218C45.8761 63.2218 46.3449 62.7529 46.3449 62.2059C46.3449 61.6588 45.8761 61.1899 45.3293 61.1899C44.7824 61.1899 44.3137 61.6588 44.3137 62.2059Z" fill="#59595B"/>
<path d="M64.5474 49.4677C64.1568 49.4677 63.7662 49.7803 63.7662 50.4055C63.7662 51.187 64.3912 51.6559 64.7037 51.8122C64.8599 51.8903 65.1724 52.0466 65.4068 52.0466C66.188 52.0466 66.7348 51.8122 66.7348 51.187C66.813 50.4055 65.7192 49.4677 64.5474 49.4677ZM61.8131 51.0307C61.2662 51.0307 58.2976 55.0162 56.4226 55.0162C55.9539 55.0162 55.5633 54.1566 55.5633 53.4533C55.5633 53.0625 55.7977 52.8281 56.5789 52.6718C60.9538 51.6559 60.0163 48.3736 63.7662 48.3736C65.8755 48.3736 68.1411 49.7803 68.1411 52.9844C68.1411 56.3447 63.2974 60.5648 62.5943 60.5648C61.9694 60.5648 61.3444 59.7051 61.3444 59.1581C61.3444 59.0018 61.4225 58.7673 61.9694 58.5329C64.3912 57.5951 65.7974 55.3288 65.7974 54.1566C65.7974 53.9222 65.6411 53.6096 65.3286 53.6096C64.8599 53.6096 63.0631 57.8296 60.9538 57.8296C59.5475 57.8296 58.0632 56.501 58.0632 55.8759C58.0632 54.8599 62.2037 52.9844 62.2037 51.4996C62.2818 51.0307 62.0475 51.0307 61.8131 51.0307Z" fill="#59595B"/>
<path d="M11.1896 17.5052C11.1896 17.5052 10.4865 18.0522 9.54905 18.0522C8.45534 18.0522 7.59598 17.2708 7.59598 16.0985C7.59598 15.3171 7.9866 14.4574 8.92407 14.0667C8.92407 14.223 8.92407 14.3793 8.92407 14.5356C8.92407 15.9422 9.7053 17.0363 11.1896 17.5052ZM16.6582 22.4285C16.1114 23.1319 15.4864 24.2259 15.4864 25.3982C15.4864 26.8048 16.3457 27.8989 17.6738 27.8989C18.9238 27.8989 19.5488 26.8048 19.5488 25.7107C19.5488 23.9915 17.9863 22.7411 16.6582 22.4285ZM8.14284 23.4445C8.06472 23.5226 8.06472 23.6007 8.06472 23.757C8.06472 23.9915 8.29909 24.2259 8.53346 24.2259C8.76783 24.2259 8.84595 24.1478 9.00219 24.1478C9.62718 24.1478 10.3303 24.6167 11.2678 24.6167C11.8927 24.6167 12.5177 24.4604 13.3771 23.9915C15.252 23.0537 15.9551 20.7874 15.9551 20.3967C15.9551 19.9278 15.5645 20.0059 15.252 19.537C14.9395 19.0682 15.0176 18.6774 14.8614 18.5211C14.7052 18.3648 14.3927 18.3648 13.9239 18.3648C13.7677 18.3648 13.5333 18.3648 13.3771 18.3648C12.5177 18.3648 11.5021 18.443 10.4084 19.1463C8.22097 20.4748 8.53346 22.8193 8.14284 23.4445ZM14.1583 20.2404C14.3145 20.4748 14.8614 20.7874 14.8614 20.9437C14.8614 21.3345 14.627 21.7252 14.2364 21.7252C13.3771 21.7252 12.5958 20.3967 12.5958 19.6152C12.5958 19.1463 12.9083 19.0682 13.2989 19.0682C13.4552 19.0682 13.5333 19.0682 13.6896 19.1463C13.9239 19.3808 13.9239 19.8496 14.1583 20.2404ZM11.8146 23.3663C10.9553 23.3663 10.0178 22.3504 10.0178 21.3345C10.0178 20.7874 10.4084 20.1622 10.7209 20.1622C10.799 20.1622 10.8771 20.2404 10.8771 20.3967C11.0334 21.647 11.8146 22.3504 12.5958 22.7411C12.674 22.8193 12.7521 22.8193 12.7521 22.8974C12.7521 23.1319 12.2833 23.3663 11.8146 23.3663ZM14.0021 16.88C14.1583 16.4893 14.2364 15.9422 14.2364 15.3952C14.2364 14.1448 13.6896 12.2693 11.9709 12.2693C10.9553 12.2693 10.2522 13.0508 10.2522 13.9885C10.2522 16.0985 12.2052 16.88 14.0021 16.88ZM7.36162 27.1174C7.36162 29.0711 7.9866 30.0089 9.00219 30.0089C9.78342 30.0089 10.9553 29.3837 12.2052 28.2896C11.1896 28.5241 10.4084 28.6804 9.78342 28.6804C8.84595 28.6804 8.14284 28.3678 7.36162 27.1174ZM8.29909 24.8511C8.29909 25.0074 8.29909 25.0856 8.29909 25.2419C8.29909 26.4141 8.92407 27.1174 9.78342 27.1174C10.4084 27.1174 11.1896 26.7267 11.8146 25.867C11.5021 25.9452 11.1896 25.9452 10.8771 25.9452C9.93967 25.9452 8.92407 25.7107 8.29909 24.8511ZM14.5489 24.5385C13.9239 24.6948 12.7521 25.3982 12.7521 26.7267C12.7521 27.6644 13.4552 28.2115 14.3927 28.2115C14.8614 28.2115 15.1739 28.1333 15.4083 27.977C14.7052 27.2737 14.4708 26.4922 14.4708 25.7889C14.3927 25.1637 14.4708 24.8511 14.5489 24.5385ZM15.4864 17.5052C15.4864 18.0522 15.9551 18.5211 16.502 18.5211C17.0488 18.5211 17.5176 18.0522 17.5176 17.5052C17.5176 16.9582 17.0488 16.4893 16.502 16.4893C15.9551 16.4893 15.4864 16.9582 15.4864 17.5052ZM16.8145 19.7715C16.8145 20.3185 17.2832 20.7874 17.8301 20.7874C18.3769 20.7874 18.8457 20.3185 18.8457 19.7715C18.8457 19.2245 18.3769 18.7556 17.8301 18.7556C17.2832 18.7556 16.8145 19.2245 16.8145 19.7715Z" fill="#59595B"/>
<path d="M56.7351 32.3533C56.7351 31.8062 57.2038 31.4155 57.6726 31.4155C58.2194 31.4155 58.6882 31.8844 58.6882 32.3533C58.6882 32.9784 58.2194 33.3692 57.6726 33.3692C57.2038 33.3692 56.7351 32.9784 56.7351 32.3533ZM47.751 24.4603C47.751 25.0073 48.2197 25.4762 48.7666 25.4762C49.3134 25.4762 49.7822 25.0073 49.7822 24.4603C49.7822 23.9133 49.3134 23.4444 48.7666 23.4444C48.2197 23.4444 47.751 23.9133 47.751 24.4603ZM46.8916 28.1333C46.8916 28.9147 47.5166 29.6181 48.3759 29.6181C49.1572 29.6181 49.8603 28.9147 49.8603 28.1333C49.8603 27.3518 49.1572 26.6485 48.3759 26.6485C47.5166 26.6485 46.8916 27.2736 46.8916 28.1333ZM50.0947 26.4922C50.0947 27.3518 50.7977 28.0551 51.6571 28.0551C52.5165 28.0551 53.2196 27.3518 53.2196 26.4922C53.2196 25.6325 52.5165 24.9292 51.6571 24.9292C50.7977 24.9292 50.0947 25.5544 50.0947 26.4922ZM50.1728 23.1318C50.1728 23.6788 50.6415 24.0696 51.1102 24.0696C51.6571 24.0696 52.0477 23.6007 52.0477 23.1318C52.0477 22.5848 51.579 22.194 51.1102 22.194C50.6415 22.194 50.1728 22.5848 50.1728 23.1318ZM54.8601 20.7092C54.8601 21.2562 55.3289 21.647 55.7976 21.647C56.3445 21.647 56.7351 21.1781 56.7351 20.7092C56.7351 20.1622 56.2663 19.7714 55.7976 19.7714C55.2508 19.6933 54.8601 20.1622 54.8601 20.7092ZM52.9071 23.8351C52.9071 24.6948 53.6883 25.4762 54.5476 25.4762C55.407 25.4762 56.1882 24.7729 56.1882 23.8351C56.1882 22.9755 55.407 22.194 54.5476 22.194C53.6883 22.194 52.9071 22.8973 52.9071 23.8351ZM50.2509 29.8525C50.2509 30.3996 50.7196 30.8685 51.2665 30.8685C51.8133 30.8685 52.2821 30.3996 52.2821 29.8525C52.2821 29.3055 51.8133 28.8366 51.2665 28.8366C50.7196 28.7584 50.2509 29.2273 50.2509 29.8525ZM53.6102 27.7425C53.6102 28.2896 54.0789 28.7585 54.6258 28.7585C55.1726 28.7585 55.6414 28.2896 55.6414 27.7425C55.6414 27.1955 55.1726 26.7266 54.6258 26.7266C54.0789 26.7266 53.6102 27.1955 53.6102 27.7425ZM52.6727 31.3373C52.6727 32.2751 53.4539 33.1347 54.4695 33.1347C55.407 33.1347 56.2663 32.3533 56.2663 31.3373C56.2663 30.3996 55.4851 29.5399 54.4695 29.5399C53.4539 29.6181 52.6727 30.3996 52.6727 31.3373ZM56.3445 29.2273C56.3445 29.9307 56.8913 30.3996 57.5163 30.3996C58.2194 30.3996 58.6882 29.8525 58.6882 29.2273C58.6882 28.524 58.1413 28.0551 57.5163 28.0551C56.8913 27.977 56.3445 28.524 56.3445 29.2273ZM56.2663 25.9451C56.2663 26.5703 56.7351 27.0392 57.3601 27.0392C57.985 27.0392 58.4538 26.5703 58.4538 25.9451C58.4538 25.3199 57.985 24.851 57.3601 24.851C56.8132 24.9292 56.2663 25.3981 56.2663 25.9451Z" fill="#59595B"/>
<path d="M58.9225 59.5488C58.2194 60.0959 56.7351 61.1899 54.0789 61.1899C52.6727 61.1899 52.0477 60.721 51.8915 60.721C51.6571 60.721 51.3446 60.9555 51.1103 61.3462C50.4853 62.0496 49.704 63.3781 49.704 64.8629C49.704 65.8788 50.4853 66.8947 51.9696 66.8947C56.7351 66.8947 60.3287 63.9251 60.3287 61.5025C60.3287 60.0959 59.4694 59.5488 58.9225 59.5488ZM57.5945 59.2362C57.8288 59.0799 57.8288 58.7673 57.8288 58.4547V57.9077C57.8288 57.1262 56.7351 56.7355 55.1726 56.7355C53.2977 56.7355 52.2821 57.5951 52.2821 57.9077V59.0799C52.2821 59.5488 53.3758 60.0177 54.782 60.0177C55.9539 60.0959 56.8913 59.8614 57.5945 59.2362ZM57.3601 61.8151C57.5163 61.8151 57.6726 61.8933 57.6726 62.3621C57.6726 62.9092 57.4382 63.6907 56.5007 64.2377C55.8758 64.7066 55.0164 65.0192 53.6883 65.0192C53.9227 64.394 54.0789 63.7688 54.0789 63.1436C54.0789 62.9092 54.0789 62.7529 54.0008 62.5184H54.3133C56.3445 62.5966 57.2038 61.8151 57.3601 61.8151Z" fill="#59595B"/>
<path d="M47.5948 30.5559C47.9072 32.744 50.7978 31.65 50.7978 34.2289C50.7978 34.6196 50.7197 35.1666 50.7197 35.6355C50.7197 36.1826 50.7978 36.6514 51.1884 36.6514C51.6571 36.6514 51.7353 36.3388 51.7353 35.9481C51.7353 35.5574 51.6571 35.0103 51.6571 34.7759C51.6571 33.9163 52.2821 33.6818 52.6727 33.6818C53.6102 33.6818 54.3914 34.6977 55.8758 34.6977C55.5633 36.3388 52.1259 35.87 52.1259 37.6674C52.1259 38.527 52.9852 38.7614 53.6102 38.7614C54.1571 38.7614 54.3133 38.6833 54.3133 38.2144C54.3133 37.98 54.2352 37.6674 54.2352 37.5111C54.2352 37.4329 54.3133 37.2766 54.4696 37.2766C55.0164 37.2766 57.8288 39.3866 57.8288 40.0118C57.8288 40.637 54.9383 41.184 54.0789 41.184C53.8446 41.184 53.7665 41.0277 53.7665 40.8714C53.7665 40.7151 54.2352 40.1681 54.2352 39.8555C54.2352 39.6211 53.8446 39.4648 52.829 39.4648C52.3602 39.4648 51.9696 39.5429 51.9696 39.9337C51.9696 40.637 53.0633 41.4966 53.0633 42.1218C53.0633 42.6688 52.7509 42.9033 51.9696 42.9033C51.2665 42.9033 50.2509 42.3563 50.2509 41.4966C50.2509 40.7933 50.954 40.09 50.954 39.6211C50.954 39.4648 50.8759 39.3085 50.5634 39.3085C49.6259 39.3085 49.3916 41.8092 46.0323 42.1218C46.5792 41.6529 47.0479 41.1059 47.0479 40.0118C47.0479 39.4648 46.8916 39.074 46.8916 38.4488C46.8916 37.6674 47.2823 37.2766 47.751 37.2766C48.6885 37.2766 49.1572 38.6051 49.7822 38.6051C50.0947 38.6051 50.4853 38.2925 50.4853 37.8237C50.4853 35.87 46.7354 36.1826 46.7354 33.4474C46.6573 32.744 46.8916 31.8063 47.5948 30.5559ZM59.7819 38.0581C59.7819 38.6833 60.0163 39.4648 60.6413 39.4648C61.1881 39.4648 61.6569 38.6833 61.6569 37.7455C61.6569 36.7296 61.5006 35.9481 61.5006 35.4792C61.5006 35.3229 61.5787 35.2448 61.6569 35.2448C62.0475 35.2448 62.4381 36.3388 62.8287 36.3388C63.2974 36.3388 64.0005 35.4792 64.2349 35.4792C64.313 35.4792 64.313 35.5574 64.313 35.6355C64.313 36.0263 63.688 36.8859 63.688 37.1985C63.688 37.5111 65.1724 37.5111 65.1724 37.8237C65.1724 38.2144 63.6099 38.2144 62.9068 38.527C62.2037 38.8396 61.735 39.2303 61.735 39.6992C61.735 40.2463 62.2818 40.3244 62.9849 40.3244C64.7036 40.3244 65.8755 39.3866 66.2661 39.3866C66.3442 39.3866 66.4223 39.4648 66.4223 39.5429C66.4223 39.7774 65.563 40.637 65.563 41.0277C65.563 41.4966 67.1255 41.9655 67.1255 42.2C67.1255 42.2781 66.9692 42.2781 66.813 42.2781C66.5005 42.2781 66.1099 42.2 65.7974 42.2C65.563 42.2 65.4067 42.2 65.3286 42.3562C65.1724 42.5907 65.4068 43.9192 65.0161 43.9192C64.7036 43.9192 63.8443 40.8714 61.8131 40.8714C61.5006 40.8714 61.3444 41.1059 61.3444 41.4966C61.3444 42.5125 62.36 43.6848 63.2974 44.2318C63.688 44.5444 64.4693 44.7788 64.4693 44.9351C64.4693 45.2477 62.8287 44.9351 62.8287 45.4822C62.8287 45.9511 63.0631 46.6544 63.0631 47.0451C63.0631 47.2014 63.0631 47.3577 62.9068 47.3577C62.5943 47.3577 61.8912 45.9511 61.5006 45.9511C61.1881 45.9511 60.5631 46.8107 60.2506 46.8107C60.1725 46.8107 60.0944 46.7325 60.0944 46.6544C60.0944 46.0292 61.0319 44.7007 61.0319 43.4503C61.0319 42.8251 60.9537 41.4966 60.2506 41.4966C59.6257 41.4966 58.9226 42.4344 58.6101 43.4503C58.4538 43.9974 58.5319 46.1855 58.1413 46.1855C57.7507 46.1855 57.8288 44.7007 57.3601 44.7007C56.9695 44.7007 56.1883 45.404 55.8758 45.404C55.7976 45.404 55.7976 45.404 55.7976 45.3259C55.7976 45.0133 56.5789 43.9974 56.5789 43.8411C56.5789 43.4503 54.8602 43.3722 54.8602 43.1377C54.8602 42.9814 55.5633 42.8251 56.1101 42.747C57.4382 42.5125 59.3132 41.5748 59.3132 40.2463C59.3132 38.7614 57.907 38.1363 56.9695 37.5111C56.5007 37.1985 55.9539 36.964 55.9539 36.7296C55.9539 36.4951 56.5789 36.4951 56.8132 36.4951C57.2039 36.4951 57.5945 36.4951 57.5945 36.1826C57.5945 35.9481 57.5163 35.4792 57.5163 35.1666C57.5163 34.9322 57.5163 34.6977 57.6726 34.6977C58.0632 34.6977 58.6101 35.9481 58.8444 35.9481C59.235 35.9481 59.7819 34.9322 60.1725 34.9322C60.3288 34.9322 60.3288 35.0103 60.3288 35.2448C60.2506 36.0263 59.7819 37.1203 59.7819 38.0581Z" fill="#59595B"/>
<path d="M48.376 45.0914C49.5479 45.2477 49.8604 45.6384 49.8604 45.951C49.8604 46.4981 49.3135 46.6544 48.8448 46.6544C48.4542 46.6544 48.0635 46.5762 47.6729 46.5762C47.1261 46.5762 46.5792 46.7325 46.1105 47.2796C46.423 47.3577 46.8917 47.5921 46.8917 48.061C46.8917 49.5458 42.7512 48.2955 42.7512 52.1247C42.7512 54.1566 44.8605 56.3447 47.9854 56.3447C49.626 56.3447 50.6416 55.7977 50.6416 55.1725C50.6416 54.7036 49.7822 55.0162 49.7822 54.6255C49.7822 54.4692 50.0947 54.0784 50.0947 53.844C50.0947 53.6877 50.0166 53.4533 49.7822 53.4533C49.3135 53.4533 48.4542 54.1566 46.6573 54.1566C45.2511 54.1566 43.923 53.3751 43.923 52.281C43.923 52.0466 44.0012 51.8903 44.1574 51.8903C44.3137 51.8903 44.548 51.9684 44.7043 51.9684C44.8605 51.9684 44.8605 51.8903 44.8605 51.5777C44.8605 51.2651 44.8605 50.4836 45.3293 50.4836C45.798 50.4836 46.7355 52.281 50.251 52.281C51.4228 52.281 53.6884 52.0466 54.5477 51.2651C54.5477 54.0784 52.2822 57.8295 47.7511 57.8295C42.9856 57.8295 40.4075 54.0003 40.4075 50.4836C40.4075 46.5762 43.6106 42.9814 47.9854 42.9814C49.0791 42.9814 50.0947 43.3721 50.0947 43.841C50.1729 44.7007 48.4542 44.3099 48.376 45.0914ZM56.1883 46.4981C56.3446 46.8107 56.4227 47.0451 56.4227 47.2796C56.4227 47.9829 55.9539 48.6862 55.9539 49.3895C55.9539 50.2492 56.5789 50.9525 57.5945 50.9525C58.6101 50.9525 59.3914 50.0929 59.3914 49.077C59.3132 47.7484 58.1414 46.5762 56.1883 46.4981ZM47.7511 48.1392C47.9854 48.3736 48.0635 48.6862 48.0635 48.9207C48.0635 49.3114 47.9073 49.7021 47.9073 50.171C47.9073 50.7962 48.376 51.3433 49.001 51.3433C49.7041 51.3433 50.1729 50.7962 50.1729 50.0929C50.1729 49.077 49.2354 48.1392 47.7511 48.1392ZM51.1103 43.7629C53.7665 44.3099 55.2509 46.2636 55.2509 48.2173C55.2509 49.5458 54.4696 50.7181 52.9853 50.7181C51.6572 50.7181 50.7197 49.8584 50.7197 48.3736C50.7197 47.2796 51.5791 46.1855 51.5791 45.0914C51.5791 44.6225 51.501 44.2318 51.1103 43.7629ZM52.4384 47.2014C52.4384 47.5921 52.6728 47.8266 53.0634 47.8266C53.454 47.8266 53.7665 47.4358 53.7665 47.0451C53.7665 46.4981 53.2978 45.7947 52.829 45.7947C52.5947 45.7947 52.6728 46.1073 52.6728 46.4199C52.5947 46.6544 52.4384 46.967 52.4384 47.2014Z" fill="#59595B"/>
<path d="M24.236 20.8655C25.0954 20.8655 26.111 16.1766 26.111 15.3951C26.111 15.1607 26.0328 15.0044 25.8766 15.0044C25.0954 15.0044 24.0017 19.4588 24.0017 20.4748C23.9235 20.6311 24.0017 20.8655 24.236 20.8655ZM30.4858 22.2722C31.1108 22.2722 31.8139 19.8496 31.8139 18.2866C31.8139 17.974 31.7358 17.5833 31.5796 17.5833C31.0327 17.5833 30.1734 20.084 30.1734 21.4907C30.1734 22.0377 30.3296 22.2722 30.4858 22.2722ZM26.3453 19.9277C26.6578 19.9277 26.9703 19.6151 27.6734 18.9118C27.7515 18.5992 27.7515 18.2866 27.7515 17.8959C27.7515 17.3488 27.5172 16.8018 27.2047 16.8018C26.4235 16.8018 26.0328 18.8337 26.0328 19.3807C26.0328 19.6933 26.1891 19.9277 26.3453 19.9277ZM29.7827 18.9118C29.7827 18.4429 29.7046 18.3648 29.5484 18.3648C29.314 18.3648 29.0015 18.6774 28.6109 19.3807C28.689 20.3185 28.8453 20.7092 29.0796 20.7092C29.3921 20.7092 29.7827 19.7714 29.7827 18.9118ZM31.8139 15.864C33.5326 15.864 34.2357 17.3488 34.2357 18.99C34.2357 19.6933 34.0014 20.7874 33.6889 20.7874C33.3764 20.7874 33.3764 20.1622 33.3764 19.6933C33.2983 18.99 33.2201 18.8337 32.9858 18.8337C32.517 18.8337 32.2827 19.8496 32.2827 20.7874C32.2827 21.4125 32.3608 22.0377 32.8295 22.0377C33.0639 22.0377 33.2983 21.8814 33.4545 21.7251C33.3764 22.8974 32.517 23.9133 31.2671 23.9133C29.0015 23.9133 28.1422 21.2562 27.9078 19.7714C26.5797 21.1781 25.3297 22.2722 23.0642 22.2722C20.9549 22.2722 20.0174 20.7092 20.0174 19.3025C20.0174 18.8337 20.1736 17.7396 20.7205 17.7396C21.3455 17.7396 20.7986 19.8496 22.0486 19.8496C22.3611 19.8496 22.9079 19.6151 23.2204 18.7555C23.3767 18.2085 23.5329 17.7396 23.5329 17.2707C23.5329 16.5674 23.3767 16.1766 22.8298 16.1766C22.3611 16.1766 21.8923 16.4892 21.658 16.7237C22.283 14.8481 23.7673 13.9103 25.4079 13.9103C27.4391 13.9103 28.5328 15.7077 28.5328 17.6614C28.5328 17.974 28.5328 18.2866 28.4547 18.5211C29.314 16.9581 30.4858 15.864 31.8139 15.864Z" fill="#59595B"/>
<path d="M26.9704 22.741C25.8767 22.741 25.7985 24.0695 25.7985 26.7266C25.0173 24.9292 23.6111 23.0536 22.0486 23.0536C20.9549 23.0536 20.5643 23.7569 20.5643 25.0073C20.5643 25.2418 20.5643 25.6325 20.6424 25.8669C20.7987 25.3981 21.1893 25.2418 21.658 25.2418C22.7518 25.2418 24.0798 26.1014 24.9392 27.2736C23.9236 27.1173 22.9861 26.8829 22.1268 26.8829C21.5799 26.8829 21.1893 26.961 20.7987 27.1173C20.0175 27.4299 19.08 28.524 19.08 30.2432C19.08 30.4777 19.08 30.7903 19.1581 31.1029C20.0175 29.071 22.4393 28.2114 24.0017 28.2114C24.3142 28.2114 24.5486 28.2114 24.7048 28.2895C23.9236 28.9929 23.7673 30.2432 23.6892 31.1029C23.6892 31.4936 23.533 31.5718 23.2205 31.5718C23.2205 32.4314 23.9236 33.6818 23.9236 34.3069C23.9236 34.5414 23.7673 34.7758 23.6892 34.7758C23.6892 35.8699 24.7829 36.7295 24.7829 37.4329C24.7829 37.5892 24.7048 37.7455 24.6267 37.8236C24.7048 38.2925 25.9548 39.074 26.111 39.4647C26.3454 39.9336 26.5016 40.0117 26.6579 40.0117C27.1266 40.0117 27.7516 39.4647 27.7516 39.074C27.7516 38.9177 27.5954 38.7614 27.5172 38.6832C27.0485 38.2925 26.736 37.5892 26.5798 37.0421C26.4235 37.0421 26.1892 36.964 26.111 36.6514C25.9548 36.1043 25.9548 35.1666 25.7204 34.5414C25.4079 34.4632 25.2517 34.3069 25.2517 33.6818C25.2517 33.3692 25.486 32.0406 25.486 31.5718C25.3298 31.5718 25.0954 31.4936 25.0954 31.181C25.0954 30.3995 25.8767 29.6962 26.111 28.6803C27.5954 29.7743 27.9079 30.8684 27.9079 31.8062C27.9079 32.3532 27.8297 32.8221 27.7516 33.291C28.8453 32.744 30.4078 31.9625 30.4078 30.3214C30.4078 29.3836 29.939 28.2895 27.0485 27.8988C27.9079 27.5862 29.0797 27.3518 30.0172 27.3518C31.6577 27.3518 32.5952 27.8988 32.8296 28.9929C33.1421 28.4458 33.4546 27.8988 33.4546 27.3518C33.4546 26.1014 32.439 25.2418 31.1109 25.2418C29.5484 25.2418 28.1422 26.0232 26.6579 27.0392C27.361 25.6325 27.7516 24.851 28.611 24.851C28.7672 24.851 28.8453 24.851 29.0016 24.9292C28.7672 23.9132 27.5954 22.741 26.9704 22.741Z" fill="#59595B"/>
<path d="M70.0941 41.2622C71.3441 41.2622 72.4378 42.9034 72.4378 44.8571C72.4378 46.9671 71.5003 49.1552 69.7035 50.7182C69.7035 47.2796 65.4849 48.3737 65.4849 45.873C65.4849 44.7789 66.2661 44.0756 67.2036 44.0756C67.9848 44.0756 68.6879 44.31 69.1566 44.7789C68.6879 44.31 68.4535 43.763 68.4535 43.1378C68.3754 42.1219 69.0004 41.2622 70.0941 41.2622Z" fill="#59595B"/>
<path d="M47.2823 16.88C47.9854 17.5052 48.5322 17.8178 49.2353 17.8178C49.5478 17.8178 49.8603 17.7396 50.0166 17.7396C50.2509 17.7396 50.4072 17.8178 50.4072 18.0522C50.4072 18.3648 50.1728 18.8337 49.8603 19.0682C50.1728 19.2244 50.4853 19.2244 50.8759 19.2244C52.3602 19.2244 54.0008 18.2867 54.0008 16.0204C54.3133 16.4111 54.4696 17.2707 54.4696 17.6615C54.4696 20.4748 52.4384 21.4907 50.5634 21.4907C49.3135 21.4907 48.6885 21.1 48.5322 21.1C48.0635 21.1 48.0635 22.0378 47.751 22.0378C47.126 21.9596 46.6573 20.6311 46.6573 19.2244C46.5792 18.443 46.8135 17.5833 47.2823 16.88ZM51.1103 15.0826C50.8759 14.77 50.1728 14.5356 49.7822 14.5356C48.6885 14.5356 47.9072 15.317 47.751 16.0204C47.6729 15.7859 47.5948 15.4733 47.5948 15.1607C47.5948 14.0667 48.376 12.66 50.2509 12.66C51.8915 12.66 52.5165 13.5196 52.7509 13.5196C52.9852 13.5196 53.2977 13.2852 53.454 13.2852C53.7665 13.2852 53.7665 13.7541 53.7665 14.0667C53.7665 15.0826 53.2977 16.88 52.1259 17.5052C51.8915 17.0363 51.5009 16.5674 50.8759 16.2548C50.7197 16.1767 50.6415 16.0204 50.6415 15.8641C50.5634 15.5515 50.7978 15.2389 51.1103 15.0826Z" fill="#59595B"/>
<path d="M29.4703 9.45592C29.4703 10.3155 32.6734 14.6918 33.2983 14.6918C33.8452 14.6918 34.1577 13.8322 34.1577 13.0507C34.1577 12.8163 34.0796 12.66 34.0014 12.5037C33.5327 11.8785 30.3297 9.29962 29.5484 9.29962C29.5484 9.29962 29.4703 9.37777 29.4703 9.45592ZM10.7209 6.79888C10.7209 7.34592 8.76779 8.98703 8.06468 8.98703C7.83031 8.98703 7.75219 8.67444 7.75219 8.36185C7.75219 7.81481 7.98656 7.11148 8.29905 6.87703C8.53342 6.72074 9.31465 6.56444 9.93963 6.56444C10.2521 6.56444 10.7209 6.64259 10.7209 6.79888ZM34.0796 8.2837C34.0796 6.72073 29.9391 3.98555 29.8609 2.73518C29.8609 2.65703 29.9391 2.50074 30.0172 2.42259C30.7203 1.64111 33.6889 1.09407 33.6889 0.468888C33.6889 0.156296 33.064 0.156296 32.7515 0.156296C30.4078 0.156296 26.8923 1.01592 26.8923 1.87555C26.8923 2.73518 30.0172 4.84518 30.0172 5.93925C30.0172 6.25185 29.8609 6.32999 29.5484 6.32999C28.6891 6.32999 26.8141 5.31407 25.8767 5.31407C25.4861 5.31407 25.3298 5.62666 25.3298 6.0174C25.3298 7.26777 26.8141 9.61221 26.8141 10.2374C26.8141 10.3155 26.8141 10.3937 26.6579 10.3937C26.1892 10.3937 24.0017 7.81481 23.2205 7.81481C22.908 7.81481 22.908 8.20555 22.908 8.75258V9.61221C22.908 10.2374 22.908 10.55 22.5955 10.55C21.8924 10.55 21.658 8.67444 20.9549 8.67444C20.2518 8.67444 20.1737 12.0348 19.5487 12.0348C18.7675 12.0348 19.4706 8.36185 18.7675 8.36185C17.9863 8.36185 17.0488 10.7844 16.5019 10.7844C16.2676 10.7844 16.2676 10.55 16.2676 10.3937C16.2676 9.69036 16.7363 8.43999 16.7363 7.73666C16.7363 7.34592 16.6582 7.18962 16.3457 7.18962C15.5645 7.18962 13.8458 8.43999 13.1427 8.43999C13.0645 8.43999 12.9083 8.36184 12.9083 8.2837C12.9083 7.65851 15.7207 5.70481 15.7207 4.84518C15.7207 3.98555 11.8927 4.53259 11.8927 3.59481C11.8927 2.81333 14.627 1.9537 14.627 1.09407C14.627 0.312592 11.3458 0 10.0959 0C8.61154 0 7.75219 0.156296 7.75219 0.625185C7.75219 1.32852 11.1896 1.48481 11.1896 2.11C11.1896 2.65703 7.59595 4.22 7.59595 5.07963C7.59595 5.86111 12.5958 5.15777 12.5958 5.93925C12.5958 6.79888 8.22093 10.55 8.22093 11.8004C8.22093 12.113 8.4553 12.1911 8.68966 12.1911C10.0178 12.1911 13.4552 9.69036 14.3926 9.69036C14.7051 9.69036 14.7832 10.0811 14.7832 10.4718C14.7832 11.1752 14.5489 12.1911 14.5489 12.8944C14.5489 13.5196 14.7051 13.9104 15.1739 13.9104C16.1113 13.9104 16.9707 12.2692 17.5957 12.2692C18.3769 12.2692 17.9081 17.0363 19.1581 17.0363C20.1737 17.0363 20.6424 11.9567 21.3456 11.9567C22.0487 11.9567 22.5174 13.4415 23.1424 13.4415C23.9236 13.4415 23.533 10.8626 24.3923 10.8626C25.2517 10.8626 27.8297 13.9104 29.0016 13.9104C29.3922 13.9104 29.4703 13.5978 29.4703 13.2852C29.4703 11.9567 27.5954 8.83073 27.5954 7.89296C27.5954 7.65851 27.6735 7.58036 27.986 7.58036C29.0016 7.58036 31.8921 8.98703 33.2983 8.98703C33.7671 8.90888 34.0796 8.67444 34.0796 8.2837ZM31.3453 3.28222C31.3453 3.75111 32.9858 4.76703 33.6889 4.76703C34.1577 4.76703 34.2358 4.14185 34.2358 3.59481C34.2358 2.81333 33.9233 2.81333 33.2202 2.81333C32.439 2.73518 31.3453 2.96963 31.3453 3.28222ZM25.3298 0.625185C25.3298 0.468888 24.5486 0.312592 23.533 0.312592C21.8924 0.312592 22.1268 1.71926 20.7987 1.71926C19.4706 1.71926 19.7831 0.312592 18.1425 0.312592C17.1269 0.312592 16.1894 0.468888 16.1894 0.703333C16.1894 1.01593 17.3613 0.859629 17.3613 1.71926C17.3613 2.57889 14.7832 2.89148 14.7832 3.43852C14.7832 3.59481 15.0176 3.67296 15.252 3.67296C15.7988 3.67296 16.7363 3.43852 17.3613 3.43852C17.7519 3.43852 18.0644 3.51666 18.0644 3.82926C18.0644 4.45444 16.6582 5.62666 16.6582 6.09555C16.6582 6.25185 16.8144 6.32999 16.8926 6.32999C17.4394 6.32999 18.2988 5.00148 19.08 5.00148C20.4081 5.00148 19.5487 7.89296 20.2518 7.89296C21.0331 7.89296 20.7206 5.07963 21.8143 5.07963C22.6736 5.07963 23.3767 7.03333 24.0017 7.03333C24.158 7.03333 24.3142 6.87703 24.3142 6.72074C24.3142 6.1737 23.533 5.07963 23.533 4.37629C23.533 3.9074 23.8455 3.75111 24.2361 3.75111C24.8611 3.75111 25.6423 4.14185 26.0329 4.14185C26.1892 4.14185 26.3454 4.0637 26.3454 3.9074C26.3454 3.28222 24.0798 2.65703 24.0798 1.79741C24.0798 1.01592 25.3298 1.01592 25.3298 0.625185Z" fill="#59595B"/>
<path d="M70.7191 4.76701C70.7191 7.0333 69.0785 8.75256 66.0317 9.2996C66.3442 9.2996 66.6567 9.2996 66.9692 9.2996C70.4847 9.2996 71.7347 7.73663 71.7347 6.40812C71.8128 5.62664 71.4222 5.00145 70.7191 4.76701ZM66.4223 7.34589C66.4223 5.54849 62.0475 5.0796 62.0475 4.68886C62.0475 4.37627 64.4693 3.82923 65.7192 3.75108C63.7662 1.32849 61.0319 1.56294 61.0319 1.09405C61.0319 0.859603 63.0631 0.312566 64.938 0.312566C66.5005 0.312566 67.9848 0.703306 67.9848 1.87553C67.9848 2.57886 67.4379 3.20405 67.4379 4.21997C67.4379 4.76701 67.7504 5.2359 68.4535 5.2359C69.2348 5.2359 69.391 4.37627 69.391 3.51664C69.391 2.8133 69.2348 2.18812 69.2348 1.87553C69.2348 0.781455 69.9379 0.0781218 71.0316 0.0781218C71.8909 0.0781218 72.1253 0.468862 73.3753 0.468862C72.9065 0.937751 72.594 1.71923 72.594 2.03182C72.594 3.1259 73.2971 3.82923 73.2971 6.01738C73.2971 10.0811 69.5472 11.4877 64.8599 11.4877C63.6099 11.4877 62.2037 11.4096 60.8756 11.1751C60.6413 11.1751 60.6413 11.097 60.6413 10.9407C60.6413 10.6281 62.4381 10.3937 62.4381 8.75256C62.4381 8.12737 62.2037 7.50219 62.2037 7.26775C62.2037 7.11145 62.2818 7.0333 62.4381 7.0333C62.8287 7.0333 63.6099 8.51812 65.0161 8.51812C65.4849 8.67441 66.4223 8.51812 66.4223 7.34589ZM70.5629 1.71923C70.5629 2.10997 70.8753 2.34442 71.1878 2.34442C71.5784 2.34442 71.8128 2.03182 71.8128 1.71923C71.8128 1.32849 71.5003 1.09405 71.1878 1.09405C70.8753 1.09405 70.5629 1.32849 70.5629 1.71923Z" fill="#59595B"/>
<path d="M68.2973 25.3982C68.2973 24.8511 66.9692 24.773 66.813 23.2882C66.813 23.0537 66.7349 22.663 66.4224 22.663C65.9537 22.663 66.3443 24.0697 65.7974 24.0697C64.6256 24.0697 64.2349 21.8034 63.7662 21.8034C63.6881 21.8034 63.5318 21.8815 63.5318 22.1941C63.5318 22.5067 63.61 22.663 63.61 22.9756C63.61 23.2882 63.5318 23.5226 63.2193 23.5226C62.5162 23.5226 61.8913 21.8815 61.3444 21.8815C61.1882 21.8815 61.11 21.9597 61.11 22.116C61.11 22.4285 61.6569 22.9756 61.6569 23.2882C61.6569 23.9134 60.0163 23.6008 60.0163 24.0697C60.0163 24.3041 60.2507 24.3822 60.5632 24.3822C61.11 24.3822 61.9694 24.1478 62.36 24.1478C62.5944 24.1478 62.985 24.226 62.985 24.5385C62.985 24.9293 62.0475 25.32 62.0475 25.7108C62.0475 25.8671 62.2038 25.9452 62.36 25.9452C63.0631 25.9452 64.3131 24.773 65.1724 24.773C65.3287 24.773 65.7193 24.8511 65.7193 25.0856C65.7193 25.3982 64.8599 26.0234 64.8599 26.4922C64.8599 26.6485 64.938 26.8048 65.0943 26.8048C65.563 26.8048 66.188 25.6326 67.0474 25.6326C67.3599 25.6326 67.8286 25.7889 68.1411 25.7889C68.2192 25.5545 68.2973 25.4763 68.2973 25.3982ZM69.0004 37.7456C69.3911 36.4952 69.9379 35.5574 70.7973 34.1508C69.9379 33.6819 67.7505 32.8222 67.7505 31.2593C67.7505 29.4619 69.9379 28.1334 70.4066 28.1334C70.641 28.1334 70.641 28.2897 70.641 28.6804C70.641 29.6182 70.1723 31.103 70.1723 31.8845C70.1723 32.5878 70.641 33.2911 71.0316 33.2911C71.5004 33.2911 72.6722 31.7282 72.6722 30.2434C72.6722 27.5082 70.3285 26.7267 69.5473 26.7267C68.8442 26.7267 67.5942 27.8208 64.6256 27.8208C59.157 27.8208 57.907 22.3504 57.907 20.006C57.907 19.9278 57.907 19.8497 57.9851 19.8497C58.1414 19.8497 58.6882 20.553 60.4069 20.553C61.2663 20.553 62.1256 20.3185 63.4537 20.3185C66.5005 20.3185 67.9067 22.4285 69.7817 25.1637C70.9535 25.8671 73.6878 27.0393 73.6878 30.2434C73.6878 33.1348 70.641 34.6978 69.9379 37.7456C71.1097 37.5893 71.8129 35.4793 72.9847 35.4793C73.6097 35.4793 73.844 35.9482 73.844 36.7297C73.844 37.8237 73.2191 39.543 71.9691 40.5589C71.9691 40.4808 71.9691 40.3245 71.9691 40.1682C71.9691 39.4648 71.6566 38.4489 70.8754 38.4489C69.6254 38.4489 69.1567 39.8556 68.4536 40.9496C67.6723 38.3708 66.7349 35.9482 64.938 34.5415C63.1412 33.0567 60.0163 33.8382 60.0163 31.1811C60.0163 30.4778 60.4851 29.4619 60.4851 28.6022C60.4851 28.2897 60.4069 28.0552 60.2507 27.8208C62.6725 28.7585 61.8131 30.3997 63.3756 32.0408C64.3131 33.1348 66.8911 34.1508 68.4536 38.6052C68.4536 38.4489 68.5317 38.1363 68.5317 37.9019C68.5317 34.1508 63.5318 30.3997 63.0631 28.8367C65.9537 29.1493 66.5005 29.8526 67.9067 33.76C68.063 34.8541 69.0004 36.8078 69.0004 37.7456Z" fill="#59595B"/>
<path d="M54.9383 10.7063C53.1415 10.7063 51.9696 9.84663 51.9696 9.37774C51.9696 9.1433 52.1259 8.987 52.3602 8.987C52.9071 8.987 54.1571 9.84663 54.5477 9.84663C54.6258 9.84663 54.7039 9.76849 54.7039 9.61219C54.7039 9.1433 54.2352 8.36182 54.2352 7.97108C54.2352 7.89293 54.3133 7.81478 54.4695 7.81478C55.1726 7.81478 56.1882 8.12738 56.7351 8.12738C56.8913 8.12738 56.9695 8.04923 56.9695 7.89293C56.9695 7.34589 55.3289 6.25182 55.3289 5.86108C55.3289 5.54849 57.3601 5.0796 57.3601 4.61071C57.4382 4.14182 54.6258 4.53256 54.6258 3.98553C54.6258 3.59479 55.1726 3.04775 55.1726 2.73516C55.1726 2.57886 55.0945 2.57886 54.8602 2.57886C54.6258 2.57886 53.3758 3.04775 52.9071 3.04775C52.6727 3.04775 52.3602 2.9696 52.3602 2.65701C52.3602 2.03182 53.3758 1.40664 54.9383 1.40664C57.4382 1.40664 59.0007 3.1259 59.0007 6.09552C58.9225 9.76849 56.3445 10.7063 54.9383 10.7063ZM50.0165 5.86108C50.0165 5.54849 49.0009 5.0796 49.0009 4.76701C49.0009 4.68886 49.0791 4.68886 49.1572 4.68886C49.4697 4.68886 49.9384 4.76701 50.329 4.76701C50.6415 4.76701 50.7197 3.36034 50.954 3.36034C51.1103 3.36034 51.4228 4.68886 51.7352 4.68886C52.0477 4.68886 52.6727 4.29812 52.9071 4.29812C52.9852 4.29812 52.9852 4.29812 52.9852 4.37627C52.9852 4.53256 52.3602 5.2359 52.3602 5.47034C52.3602 5.70478 53.7664 6.01738 53.7664 6.17367C53.7664 6.40812 52.2821 6.40812 52.2821 6.64256C52.2821 6.79886 52.829 7.50219 52.829 7.73664C52.829 7.81478 52.829 7.81478 52.7508 7.81478C52.5165 7.81478 51.7352 7.42404 51.5009 7.42404C51.1884 7.42404 50.7978 8.43997 50.5634 8.43997C50.4853 8.43997 50.4072 8.36182 50.4072 8.20552L50.329 7.1896C50.329 7.11145 50.2509 6.95515 50.1728 6.95515C49.8603 6.95515 49.3134 6.95515 49.0791 6.95515C48.9228 6.95515 48.9228 6.95515 48.9228 6.87701C48.9228 6.72071 50.0165 6.01738 50.0165 5.86108ZM49.2353 10.0029C49.6259 10.0029 49.7041 11.0189 49.7822 11.5659C49.8603 11.8785 49.8603 11.8785 50.0165 11.8785C50.329 11.8785 50.7978 10.7063 51.1103 10.7063C51.579 10.7063 52.9071 12.0348 55.0945 12.0348C58.2194 12.0348 61.11 9.84663 61.11 6.01738C61.11 2.34442 58.5319 0.15627 54.8602 0.15627C53.1415 0.15627 51.8915 1.0159 51.1884 1.0159C50.8759 1.09405 50.2509 0.0781218 49.9384 0.0781218C49.7822 0.0781218 49.7041 0.312566 49.7041 0.781455C49.7041 1.09405 49.7041 1.95368 49.3916 1.95368C48.7666 1.95368 46.4229 0.15627 46.4229 0.859603C46.4229 1.48479 47.9854 3.20405 47.9854 3.67293C47.9854 4.14182 46.4229 4.53256 46.4229 4.84516C46.4229 5.39219 48.0635 5.54849 48.0635 6.25182C48.0635 6.95515 46.3448 7.50219 46.3448 8.04923C46.3448 8.51812 48.0635 8.20552 48.0635 8.75256C48.0635 9.2996 46.8135 11.0189 46.8135 11.5659C46.8135 11.7222 46.8135 11.7222 46.9698 11.7222C47.4385 11.7222 48.8447 10.0029 49.2353 10.0029Z" fill="#59595B"/>
<path d="M37.6732 54.9381C37.6732 55.1725 37.5951 55.407 37.3607 55.6414C37.0483 55.0944 36.267 54.8599 35.9545 54.8599C33.2984 54.8599 34.314 58.6892 31.5015 58.6892C30.3297 58.6892 30.2516 58.5329 29.7828 58.5329C29.6266 58.5329 29.4703 58.6111 29.4703 58.7674C29.4703 59.4707 30.4078 61.0336 33.064 61.0336C35.7202 61.0336 38.2201 59.3925 38.2201 57.4388C38.2201 57.1262 38.142 56.7355 37.9857 56.4229C38.0638 56.2666 38.3763 56.1885 38.6107 56.1885C39.0013 56.1885 39.2357 56.6574 39.6263 56.6574C40.0169 56.6574 40.3294 56.3448 40.3294 55.954C40.3294 55.6414 40.1732 55.407 39.8607 55.2507C40.095 55.0944 40.2513 54.8599 40.2513 54.5474C40.2513 54.0785 39.9388 53.6877 39.4701 53.6877C39.2357 53.6877 39.0794 53.7659 38.9232 53.9222C38.8451 53.4533 38.6107 53.0625 38.142 53.0625C37.7514 53.0625 37.4389 53.3751 37.4389 53.7659C37.3607 54.2348 37.6732 54.5474 37.6732 54.9381Z" fill="#59595B"/>
<path d="M23.611 50.2493C25.6422 50.7963 26.6578 51.8904 26.8922 53.1407C27.1266 54.3911 27.3609 55.407 27.8297 55.9541C28.4546 56.6574 29.7046 57.2826 30.7983 57.2826C31.7358 57.2826 32.4389 56.97 32.4389 56.1104C32.4389 55.1726 31.1889 53.1407 29.314 53.1407C29.1578 53.1407 28.9234 53.1407 28.6109 53.1407C28.3765 53.1407 28.064 53.0626 27.8297 52.9063C27.4391 52.5156 27.2828 50.64 26.5016 49.4678C25.6422 48.2174 24.7048 47.8267 23.4548 47.8267C22.5954 47.8267 21.5798 48.2956 21.5798 48.9989C21.7361 49.4678 21.9705 49.7804 23.611 50.2493ZM30.7983 55.9541C30.0171 55.9541 28.8453 55.1726 28.8453 54.7037C28.8453 54.313 29.2359 54.0785 29.4702 54.0785C30.0952 54.0785 31.2671 54.86 31.2671 55.5633C31.2671 55.7196 31.1108 55.9541 30.7983 55.9541Z" fill="#59595B"/>
<path d="M28.3766 36.0263C28.3766 34.3852 32.2828 33.5255 32.2828 31.4937C32.2828 31.1811 32.1265 30.5559 31.8921 30.1652C33.2202 30.8685 34.2358 32.197 34.2358 33.2129C34.2358 35.0103 32.3609 35.7918 32.3609 36.8859C32.3609 38.1363 34.3139 38.3707 34.3139 39.9337C34.3139 41.2622 32.439 42.747 32.439 44.4663C32.439 45.7948 33.3765 46.8107 34.7827 47.0451C34.3139 47.1233 33.9233 47.2014 33.4546 47.2014C30.8765 47.2014 28.2204 45.0914 28.2204 42.5126C28.2204 41.2622 28.7672 40.1681 29.5485 39.3866C30.2516 40.0118 30.9547 40.4026 31.4234 40.4026C31.814 40.4026 32.0484 40.1681 32.0484 39.8555C32.2046 38.9177 28.3766 38.0581 28.3766 36.0263ZM36.5795 48.9207C35.7202 49.3114 35.3295 49.2333 35.3295 50.1711C35.3295 50.4837 35.2514 50.9526 35.2514 51.187C35.2514 51.4996 35.3295 51.6559 35.642 51.6559C36.5795 51.6559 37.9857 50.0929 37.9857 48.7644C37.9857 48.3737 37.7514 48.2174 37.517 48.2174C37.4389 48.2174 37.2045 48.6863 36.5795 48.9207ZM36.5014 47.1233C36.5014 45.9511 34.1577 45.9511 34.1577 44.2318C34.1577 43.7629 34.4702 43.0596 35.0171 42.2781C35.2514 43.6066 35.7983 44.31 36.9701 44.7007C39.2357 45.5603 39.5482 46.8107 39.5482 48.2174C39.5482 50.4837 37.9076 53.3751 33.7671 53.3751C30.4078 53.3751 28.0641 50.4055 28.0641 47.9048C28.0641 47.2014 28.2204 46.42 28.6891 46.42C29.0797 46.42 29.236 46.7326 29.4703 47.0451C30.6422 48.2174 31.8921 48.53 33.689 48.53C35.2514 48.4518 36.5014 47.7485 36.5014 47.1233Z" fill="#59595B"/>
<path d="M18.3769 47.6704C18.455 48.2174 18.0644 48.6863 17.5176 48.7644C16.9707 48.8426 16.502 48.4518 16.4238 47.9048C16.3457 47.3578 16.7363 46.8889 17.2832 46.8107C17.8301 46.7326 18.2988 47.1233 18.3769 47.6704ZM13.5333 48.6863C13.6114 49.5459 14.4708 50.2492 15.4082 50.0929C15.7207 50.0929 16.0332 49.9366 16.2676 49.8585C16.502 50.64 17.1269 51.187 18.0644 51.1089C19.0019 50.9526 19.6269 50.2492 19.5488 49.3115C19.5488 49.077 19.4706 48.9207 19.3925 48.6863C19.3925 48.6863 19.5488 48.6863 19.6269 48.6863C20.5644 48.53 21.1893 47.7485 21.1112 46.8889C21.0331 45.9511 20.1737 45.2478 19.3144 45.4041C19.0019 45.4822 18.6894 45.5604 18.455 45.7166C18.2207 44.9352 17.5176 44.31 16.502 44.4663C15.6426 44.6226 15.0176 45.4041 15.0958 46.3418C15.0958 46.4981 15.1739 46.6544 15.252 46.8889C15.252 46.8889 15.0958 46.8889 15.0176 46.8889C14.2364 46.8889 13.4552 47.6703 13.5333 48.6863Z" fill="#59595B"/>
</svg>
