<svg width="12" height="12" viewBox="0 0 12 12" fill="none" xmlns="http://www.w3.org/2000/svg">
<path d="M1.5 0C0.675781 0 0 0.675781 0 1.5V10.5C0 11.3242 0.675781 12 1.5 12H10.5C11.3242 12 12 11.3242 12 10.5V1.5C12 0.675781 11.3242 0 10.5 0H1.5ZM1.5 1H10.5C10.7812 1 11 1.21875 11 1.5V10.5C11 10.7812 10.7812 11 10.5 11H1.5C1.21875 11 1 10.7812 1 10.5V1.5C1 1.21875 1.21875 1 1.5 1ZM6 3C4.90234 3 4 3.90234 4 5C4 5.53516 4.21875 6.02344 4.5625 6.38281C3.63672 6.89453 3 7.87109 3 9H4C4 7.89062 4.89062 7 6 7C7.10938 7 8 7.89062 8 9H9C9 7.87109 8.36328 6.89453 7.4375 6.38281C7.78125 6.02344 8 5.53516 8 5C8 3.90234 7.09766 3 6 3ZM6 4C6.55859 4 7 4.44141 7 5C7 5.55859 6.55859 6 6 6C5.44141 6 5 5.55859 5 5C5 4.44141 5.44141 4 6 4Z" fill="#757575"/>
</svg>
