<svg width="40" height="34" viewBox="0 0 40 34" fill="none" xmlns="http://www.w3.org/2000/svg">
<path d="M33.4399 0.199961C27.7371 0.193399 24.5937 3.38934 22.661 9.61715C23.6716 9.24309 24.6856 8.78043 25.6043 8.78043C27.537 8.78043 28.1801 9.49902 27.9045 11.7303C27.8126 13.1248 27.2613 15.3757 25.6043 17.9778C23.9473 20.4879 22.5068 21.2 21.6799 21.2C20.6693 21.2 19.9015 19.7464 19.0746 15.8417C18.799 14.7261 18.1559 12.2159 17.4176 7.47777C16.7745 3.11043 14.6351 0.761055 11.5999 1.03996C10.3137 1.13184 8.77478 2.32949 6.19899 4.56074C4.35821 6.23418 2.61259 7.44168 0.679932 9.11512L2.52071 11.4743C4.26634 10.2668 5.28024 9.8009 5.55587 9.8009C6.84212 9.8009 8.03649 11.8451 9.23415 16.0287C10.2448 19.8382 11.3473 23.6478 12.3612 27.4573C13.9231 31.6409 15.8557 33.6851 18.064 33.6851C21.7423 33.6851 26.1556 30.3415 31.399 23.464C36.5473 16.9573 39.1362 11.5695 39.3199 7.75996C39.5037 2.74293 37.4857 0.291836 33.4399 0.199961Z" fill="white"/>
</svg>
