<svg width="38" height="34" viewBox="0 0 38 34" fill="none" xmlns="http://www.w3.org/2000/svg">
<path d="M37.8308 32.4642L19.6591 0.986563C19.3859 0.5175 18.6141 0.5175 18.3409 0.986563L0.100928 32.58C-0.0326661 32.8145 -0.0326661 33.1055 0.100928 33.34C0.23749 33.5745 0.489834 33.72 0.75999 33.72H37.24C37.2459 33.72 37.2519 33.72 37.2548 33.72C37.6764 33.72 38.0148 33.3816 38.0148 32.96C38.0148 32.77 37.9466 32.5978 37.8308 32.4642ZM17.8541 12.6419C17.8541 12.4786 17.9639 12.3688 18.1272 12.3688H19.8728C20.0361 12.3688 20.143 12.4786 20.143 12.6419V23.6322C20.143 23.7955 20.0361 23.9053 19.8728 23.9053H18.1272C17.9639 23.9053 17.8541 23.7955 17.8541 23.6322V12.6419ZM20.1994 28.3525C20.1994 28.5158 20.0895 28.6227 19.9292 28.6227H18.0737C17.9105 28.6227 17.8036 28.5128 17.8036 28.3525V26.3605C17.8036 26.1972 17.9134 26.0903 18.0737 26.0903H19.9292C20.0925 26.0903 20.1994 26.1972 20.1994 26.3605V28.3525Z" fill="#333333"/>
</svg>
