<svg width="40" height="41" viewBox="0 0 40 41" fill="none" xmlns="http://www.w3.org/2000/svg">
<path d="M15.8619 1.68025C15.3362 1.71619 14.8291 1.97869 14.4791 2.42869L12.3994 5.22869L8.79945 5.38806C7.91945 5.38806 7.12007 6.10806 7.04007 6.98806L6.47913 10.4287L3.44007 12.1881C2.64007 12.6681 2.31882 13.5487 2.55882 14.4287L3.67913 17.7881L1.84007 20.8287C1.36007 21.5487 1.51882 22.5887 2.15882 23.2287L4.64007 25.6287L4.31976 29.149C4.23976 30.029 4.79913 30.909 5.67913 31.149L9.04007 32.1084L10.3994 35.3881C10.7194 36.1881 11.6788 36.6684 12.5588 36.5084L15.9994 35.7881L18.7198 38.0287C19.0398 38.2687 19.5198 38.4287 19.9198 38.4287C20.3198 38.4287 20.7998 38.2687 21.1198 38.0287L23.8401 35.7881L27.2791 36.5084C28.1591 36.6684 29.0401 36.1881 29.4401 35.3881L30.7994 32.1084L34.1588 31.149C35.0388 30.909 35.5998 30.109 35.5198 29.149L35.3588 25.6287L37.9198 23.149C38.5598 22.509 38.7201 21.5487 38.2401 20.8287L36.3198 17.8693L37.4401 14.5084C37.7601 13.6284 37.3588 12.7493 36.5588 12.2693L33.5198 10.4287L32.9588 6.90838C32.7988 6.02838 32.0794 5.38838 31.1994 5.30838L27.6791 5.149L25.5198 2.42869C24.9598 1.70869 23.9994 1.46931 23.1994 1.86931L19.9994 3.38806L16.7994 1.86931C16.4994 1.71931 16.1774 1.65869 15.8619 1.68025ZM15.5994 11.2287C16.8794 11.2287 17.8401 11.949 18.2401 13.149C18.4001 13.629 18.3994 13.8687 18.3994 15.6287C18.3994 17.3887 18.3201 17.7084 18.2401 18.1084C17.8401 19.2284 16.8794 20.0287 15.5994 20.0287C14.3194 20.0287 13.3588 19.3084 12.9588 18.1084C12.7988 17.6284 12.7994 17.3887 12.7994 15.6287C12.7994 13.8687 12.8788 13.549 12.9588 13.149C13.3588 12.029 14.3194 11.2287 15.5994 11.2287ZM24.3994 11.2287H25.5198C25.6798 11.2287 25.6791 11.3893 25.6791 11.4693L16.0791 28.5881C15.9991 28.7481 15.9188 28.8287 15.7588 28.8287H14.6401C14.4801 28.8287 14.3991 28.6681 14.4791 28.5881L23.9994 11.4693C24.0794 11.3093 24.1594 11.2287 24.3994 11.2287ZM15.5994 12.9084C15.0394 12.9084 14.6391 13.2284 14.4791 13.7084C14.3991 13.9484 14.3994 14.1884 14.3994 15.7084C14.3994 17.2284 14.4791 17.3887 14.4791 17.6287C14.6391 18.1887 15.0394 18.4287 15.5994 18.4287C16.1594 18.4287 16.5598 18.1087 16.7198 17.6287C16.7998 17.3887 16.7994 17.1484 16.7994 15.7084C16.7994 14.1884 16.7198 13.9484 16.7198 13.7084C16.5598 13.1484 16.1594 12.9084 15.5994 12.9084ZM24.3994 20.0287C25.6794 20.0287 26.6401 20.749 27.0401 21.949C27.2001 22.429 27.1994 22.6687 27.1994 24.4287C27.1994 26.1887 27.1201 26.5084 27.0401 26.9084C26.6401 28.0284 25.6794 28.8287 24.3994 28.8287C23.1194 28.8287 22.1588 28.1084 21.7588 26.9084C21.5988 26.4284 21.5994 26.1887 21.5994 24.4287C21.5994 22.6687 21.6788 22.349 21.7588 21.949C22.1588 20.829 23.1194 20.0287 24.3994 20.0287ZM24.3994 21.6287C23.8394 21.6287 23.4391 21.9487 23.2791 22.4287C23.1991 22.6687 23.1994 22.9087 23.1994 24.4287C23.1994 25.9487 23.2791 26.109 23.2791 26.349C23.4391 26.909 23.8394 27.149 24.3994 27.149C24.9594 27.149 25.3598 26.829 25.5198 26.349C25.5998 26.109 25.5994 25.8687 25.5994 24.4287C25.5994 22.9087 25.5198 22.6687 25.5198 22.4287C25.3598 21.9487 24.9594 21.6287 24.3994 21.6287Z" fill="#FF6600"/>
</svg>
