<svg width="30" height="37" viewBox="0 0 30 37" fill="none" xmlns="http://www.w3.org/2000/svg">
<path d="M17.5703 0.0285645C8.85048 0.0285645 5.66773 2.07606 5.27442 8.28607C5.58405 13.7704 7.13777 17.3901 7.86302 19.0636C7.95786 19.2858 8.02202 19.4686 8.08617 19.6261C8.2368 19.9945 8.07223 20.4192 7.70681 20.5711C7.61755 20.6076 7.52829 20.6161 7.43903 20.6161C7.15729 20.6161 6.88114 20.4445 6.76956 20.1661C6.70819 20.017 6.63846 19.8342 6.54641 19.6261C5.87136 18.0651 4.49617 14.9095 3.98012 10.1761C2.77787 10.342 1.64815 11.017 0.922898 12.0886C0.256222 13.0786 -0.653134 15.2751 0.699743 18.7261C3.87133 27.1186 7.59523 28.3504 9.82678 29.0986C10.0806 29.1829 10.3149 29.2645 10.5186 29.3461C11.4726 29.7314 13.4837 29.8186 15.004 29.8186C17.5703 29.8186 24.608 29.4501 26.2287 27.8161C29.0181 25.0036 30 16.3298 30 9.74856C30 2.39106 26.9762 0.0285645 17.5703 0.0285645ZM27.0767 28.9861C24.608 31.1517 16.6107 31.2586 15.004 31.2586C11.3972 31.2586 10.3484 30.8339 10.0053 30.6961C9.82957 30.6258 9.62037 30.5526 9.38047 30.4711C9.22705 30.4204 9.05969 30.3726 8.88953 30.3136C9.36653 32.9939 9.7431 34.1217 10.2954 34.6786C11.3889 35.6939 13.3219 36.0286 18.2174 36.0286C23.3277 36.0286 25.4867 35.5251 26.1394 34.2061C26.728 33.1092 26.9735 30.8029 27.0767 28.9861Z" fill="#FF6600"/>
</svg>
