<svg width="40" height="41" viewBox="0 0 40 41" fill="none" xmlns="http://www.w3.org/2000/svg">
<path d="M37.9972 22.2791C37.8453 19.6986 36.1241 18.8771 34.8669 18.2794C34.2116 17.965 33.6434 17.6959 33.4381 17.2767C33.4072 16.8688 33.41 16.5402 33.4128 16.1663V16.1096C33.7728 15.6875 34.0766 14.9992 34.22 14.376C34.5378 14.1551 34.8697 13.7189 34.9766 12.8436C35.0272 12.3989 34.9259 12.0391 34.7628 11.77C35.0103 10.8607 35.4013 8.88072 34.5772 7.54654C34.2172 6.96019 33.6631 6.56928 32.9628 6.40216C32.5156 5.90928 31.7478 5.64301 30.7522 5.64301H30.7494C29.2053 5.67134 28.0662 6.15855 27.3631 7.09049C26.5644 8.15273 26.3928 9.71634 26.8513 11.7473C26.6797 12.0193 26.57 12.3904 26.6234 12.8464C26.7303 13.7245 27.065 14.1608 27.3828 14.3789C27.5319 14.9964 27.8441 15.6875 28.2097 16.1124V16.1691C28.2125 16.5402 28.2153 16.8688 28.1844 17.2738C28.0859 17.4551 27.8834 17.6166 27.5966 17.7724C26.9216 15.9255 25.3466 15.1947 24.1569 14.6423C23.4509 14.3166 22.8378 14.0305 22.6381 13.648C22.6072 13.243 22.61 12.9172 22.6128 12.5433L22.6156 12.4838C22.9728 12.0618 23.2794 11.3763 23.4228 10.7503C23.7378 10.5321 24.0725 10.0931 24.1766 9.2178C24.23 8.77591 24.1287 8.41333 23.9656 8.14423C24.2103 7.23495 24.6013 5.25494 23.78 3.9236C23.4172 3.33724 22.8631 2.94351 22.1656 2.77638C21.8113 2.38831 21.1616 2.02856 19.9522 2.02856C18.4053 2.05972 17.2634 2.5441 16.5631 3.47604C15.7644 4.53545 15.5956 6.09623 16.0541 8.12157C15.8825 8.3935 15.7728 8.76458 15.8263 9.22063C15.9303 10.0988 16.265 10.535 16.5856 10.7531C16.7319 11.3706 17.0469 12.0618 17.4097 12.4867V12.5462C17.4125 12.9201 17.4153 13.2458 17.3844 13.648C17.1847 14.0305 16.5688 14.3166 15.86 14.6423C14.6647 15.1947 13.0841 15.9255 12.4062 17.7724C12.1194 17.6166 11.9141 17.4551 11.8184 17.2738C11.7875 16.8659 11.7903 16.5373 11.7931 16.1606V16.1124C12.1559 15.6875 12.4709 14.9964 12.6172 14.3789C12.935 14.1579 13.2697 13.7217 13.3766 12.8436C13.43 12.3875 13.3203 12.0164 13.1488 11.7445C13.6072 9.71635 13.4356 8.1499 12.6369 7.09049C11.9338 6.15855 10.7947 5.67134 9.23656 5.64301C8.24938 5.64301 7.48438 5.90928 7.03719 6.40216C6.33688 6.56928 5.78281 6.96302 5.42 7.54938C4.59875 8.88072 4.98969 10.8607 5.23719 11.77C5.07406 12.0391 4.97281 12.4017 5.02344 12.8464C5.13031 13.7217 5.46219 14.1579 5.78 14.3789C5.92344 15.002 6.22719 15.6875 6.58719 16.1096V16.1691C6.59 16.543 6.59281 16.8716 6.56188 17.2795C6.35656 17.6959 5.78563 17.9678 5.13313 18.2794C3.87594 18.8771 2.15469 19.6986 2 22.3216V30.2983C2 30.3464 2.00563 30.3946 2.01406 30.4428C2.05625 30.6552 3.11375 35.3857 10.2969 37.7595C10.2969 37.7595 10.415 37.8643 11.3459 37.9747C11.3431 37.6547 11.3431 37.1221 11.3713 36.5952C11.6413 33.9467 13.7591 33.0828 15.3172 32.4454C16.1666 32.0999 16.9681 31.7713 17.2072 31.301C17.2438 30.8535 17.2381 30.4909 17.2353 30.0802V29.998C16.8359 29.542 16.4872 28.7743 16.3297 28.0945C15.9922 27.8707 15.6266 27.409 15.5141 26.4572C15.455 25.9672 15.5788 25.5706 15.7644 25.2845C15.2609 23.0836 15.4409 21.3896 16.3044 20.2453C17.0553 19.2482 18.2787 18.7241 19.9381 18.6958C21.0153 18.6958 21.8366 18.9819 22.3091 19.5144C23.0628 19.6901 23.6619 20.1093 24.0472 20.7353C24.9359 22.1771 24.5 24.3384 24.2328 25.3072C24.4128 25.5933 24.5281 25.9814 24.4719 26.4601C24.3566 27.409 23.9938 27.8707 23.6534 28.0945C23.4988 28.7743 23.1613 29.5391 22.7703 29.9924L22.7675 30.0802C22.7647 30.4909 22.7619 30.8507 22.7956 31.301C23.0375 31.7741 23.8363 32.1027 24.68 32.4454C26.2409 33.0856 28.3644 33.9552 28.6175 36.5952C28.6484 36.9805 28.64 37.7113 28.6344 38.0286C29.3122 37.9521 29.3544 37.8841 29.3544 37.8841C36.8666 35.55 37.9409 30.6637 37.9859 30.4428C37.9944 30.3946 38 30.3464 38 30.2983L37.9972 22.2791Z" fill="#FF6600"/>
</svg>
