<svg width="40" height="41" viewBox="0 0 40 41" fill="none" xmlns="http://www.w3.org/2000/svg">
<path d="M24.2489 3.02856L24.19 3.39075C23.1253 3.16701 22.0131 3.03158 21.5459 3.03158C19.8073 3.03158 17.2146 3.19533 16.792 3.25946C10.6088 4.2191 7.20008 8.21999 6.37406 15.4907L3.26211 20.854C2.71118 21.8454 3.05195 23.0517 4.06651 23.6157L6.4133 24.7898L7.17393 30.3689C7.51314 32.4845 9.33123 34.0215 11.3951 33.9349L13.8189 33.9364V37.0286H27.7276H29.273L29.2865 32.0787C29.2865 29.8681 29.9872 27.5958 31.4522 25.6062C32.0108 24.8468 32.7358 23.3238 33.3312 21.9994L35.1995 20.1312L33.2919 17.4812C33.4855 17.1025 33.6486 16.7082 33.7809 16.2981L37 15.7337V15.0848V11.9172L33.7779 11.3905C33.6446 10.9798 33.4818 10.585 33.2874 10.2058L35.1633 7.53172L32.4649 4.83345L29.8223 6.73189C29.4406 6.53519 29.043 6.36977 28.6285 6.2354L28.0671 3.02856H24.2489ZM25.5634 4.57388H26.7692L27.2642 7.40344L27.7517 7.52568C28.3882 7.68446 28.9866 7.93604 29.5325 8.26665L29.9687 8.53074L32.3004 6.85413L33.1531 7.70677L31.496 10.07L31.7541 10.5001C32.0815 11.0451 32.3307 11.6384 32.489 12.2718L32.6128 12.7653L35.4546 13.2301V14.4343L32.6098 14.9354L32.489 15.4228C32.3323 16.0553 32.0828 16.6498 31.7556 17.1945L31.4945 17.6306L33.1772 19.9682L32.3245 20.8208L29.9642 19.1639L29.5325 19.4264C28.9906 19.7562 28.3896 20.0093 27.7547 20.1704L27.2718 20.2927L26.7707 23.1207H25.5619L25.0925 20.3002L24.599 20.178C23.9614 20.0205 23.3611 19.7701 22.8121 19.44L22.382 19.1805L20.0398 20.8208L19.1856 19.9667L20.8441 17.6472L20.58 17.2126C20.2461 16.6609 19.9948 16.0613 19.836 15.4213L19.7153 14.9338L16.9097 14.4374V13.2271L19.7153 12.7592L19.839 12.2688C19.9995 11.6262 20.2507 11.0245 20.5831 10.4745L20.8441 10.0444L19.2082 7.70526L20.0624 6.85111L22.3865 8.51112L22.8212 8.25005C23.3674 7.92218 23.9688 7.67278 24.6066 7.51662L25.1031 7.3959L25.5634 4.57388ZM26.1821 9.984C24.0575 9.984 22.3186 11.7228 22.3186 13.8473C22.3186 15.9718 24.0575 17.7106 26.1821 17.7106C28.3068 17.7106 30.0457 15.9718 30.0457 13.8473C30.0457 11.7228 28.3068 9.984 26.1821 9.984ZM26.1821 11.5293C27.4716 11.5293 28.5003 12.558 28.5003 13.8473C28.5003 15.1366 27.4716 16.1653 26.1821 16.1653C24.8927 16.1653 23.864 15.1366 23.864 13.8473C23.864 12.558 24.8927 11.5293 26.1821 11.5293Z" fill="#FF6600"/>
</svg>
