<svg width="40" height="41" viewBox="0 0 40 41" fill="none" xmlns="http://www.w3.org/2000/svg">
<g clip-path="url(#clip0)">
<path d="M15.9879 0.816002C15.5473 0.825377 15.1941 1.18788 15.2004 1.6285V6.4285C15.1973 6.716 15.3473 6.98475 15.5973 7.13163C15.8473 7.27538 16.1535 7.27538 16.4035 7.13163C16.6535 6.98475 16.8035 6.716 16.8004 6.4285V1.6285C16.8035 1.41288 16.7191 1.2035 16.566 1.05038C16.4129 0.897252 16.2035 0.812877 15.9879 0.816002ZM8.79102 3.22225C8.46602 3.22225 8.17539 3.41913 8.05039 3.71913C7.92851 4.02225 8.00039 4.366 8.23477 4.59413L11.4348 7.79413C11.6348 8.0035 11.9348 8.08788 12.2129 8.01288C12.4941 7.941 12.7129 7.72225 12.7848 7.441C12.8598 7.16288 12.7754 6.86288 12.566 6.66288L9.36602 3.46288C9.21602 3.30663 9.00977 3.22225 8.79102 3.22225ZM23.1848 3.22225C22.9754 3.22538 22.7785 3.31288 22.6348 3.46288L19.4348 6.66288C19.2254 6.86288 19.141 7.16288 19.216 7.441C19.2879 7.72225 19.5066 7.941 19.7879 8.01288C20.066 8.08788 20.366 8.0035 20.566 7.79413L23.766 4.59413C24.0035 4.36288 24.0723 4.01288 23.9441 3.70975C23.816 3.4035 23.516 3.20975 23.1848 3.22225ZM31.3379 4.8285C30.7598 4.8285 30.1785 5.05038 29.7379 5.491L14.4004 20.8285C14.4004 20.8285 12.0598 16.4254 10.8879 15.2504C8.84101 13.2035 4.88164 12.2035 3.83789 13.2473L2.40039 14.6816L6.92539 19.2066L10.4004 29.6285L16.6816 35.9098C18.9566 38.1847 22.6441 38.1847 24.9191 35.9098L33.7379 27.091C34.6223 26.2066 34.6223 24.7754 33.7379 23.891C32.8535 23.0066 31.4223 23.0066 30.5379 23.891L31.3379 23.091C32.2223 22.2066 32.2223 20.7754 31.3379 19.891C30.4535 19.0066 29.0223 19.0066 28.1379 19.891L28.9379 19.091C29.8223 18.2066 29.8223 16.7754 28.9379 15.891C28.0535 15.0066 26.6223 15.0066 25.7379 15.891L32.9379 8.691C33.8223 7.80663 33.8223 6.37538 32.9379 5.491C32.4973 5.05038 31.916 4.8285 31.3379 4.8285Z" fill="#FF6600"/>
</g>
<defs>
<clipPath id="clip0">
<rect y="0.0285645" width="40" height="40" fill="white"/>
</clipPath>
</defs>
</svg>
