<svg width="40" height="41" viewBox="0 0 40 41" fill="none" xmlns="http://www.w3.org/2000/svg">
<g clip-path="url(#clip0)">
<path d="M20 0.0285645C15.5875 0.0285645 12 3.61606 12 8.02856C12 12.4411 15.5875 16.0286 20 16.0286C24.4125 16.0286 28 12.4411 28 8.02856C28 3.61606 24.4125 0.0285645 20 0.0285645ZM20 16.8286C16.0094 16.8286 13.6125 18.5473 12.275 20.0286H27.725C26.3875 18.5473 23.9906 16.8286 20 16.8286ZM10 21.6286C9.31562 21.6286 8.68125 21.9067 8.225 22.4036C7.76875 22.8973 7.54375 23.5629 7.6 24.2536L8.3 32.1286C8.58125 32.0661 8.85625 32.0286 9.15 32.0286C10.2219 32.0286 11.2344 32.4629 12 33.2286L13.1 34.3286C13.9031 35.0817 14.3781 36.0817 14.4 37.1786C14.4031 37.3286 14.3625 37.4817 14.35 37.6286H25.65C25.6375 37.4817 25.5969 37.3286 25.6 37.1786C25.6219 36.0817 26.0969 35.0817 26.9 34.3286L28 33.2286C28.7656 32.4629 29.7781 32.0286 30.85 32.0286C31.1906 32.0286 31.5031 32.0942 31.825 32.1786L32.55 24.2536C32.6063 23.5692 32.3813 22.8973 31.925 22.4036C31.4688 21.9098 30.8344 21.6286 30.15 21.6286H10ZM27.6 24.8286C28.2625 24.8286 28.8 25.3661 28.8 26.0286C28.8 26.6911 28.2625 27.2286 27.6 27.2286C26.9375 27.2286 26.4 26.6911 26.4 26.0286C26.4 25.3661 26.9375 24.8286 27.6 24.8286ZM9.15 33.6286C8.53125 33.6286 7.93125 33.8723 7.45 34.3536L6.875 34.9036C6.23438 35.5442 6.23438 36.5879 6.875 37.2286L9.2 39.5536C9.84062 40.1942 10.8844 40.1942 11.525 39.5536L12.075 38.9786C13.0344 38.0192 13.0406 36.4379 12 35.4786L10.875 34.3536C10.3938 33.8723 9.76875 33.6286 9.15 33.6286ZM30.85 33.6286C30.2313 33.6286 29.6031 33.8723 29.125 34.3536L28 35.4786C26.9594 36.4379 26.9656 38.0192 27.925 38.9786L28.475 39.5536C29.1156 40.1942 30.1594 40.1942 30.8 39.5536L33.125 37.2286C33.7656 36.5879 33.7656 35.5442 33.125 34.9036L32.55 34.3536C32.0688 33.8723 31.4688 33.6286 30.85 33.6286Z" fill="#FF6600"/>
</g>
<defs>
<clipPath id="clip0">
<rect y="0.0285645" width="40" height="40" fill="white"/>
</clipPath>
</defs>
</svg>
