<svg width="40" height="41" viewBox="0 0 40 41" fill="none" xmlns="http://www.w3.org/2000/svg">
<path d="M20.0008 1.62866C17.8442 1.62866 15.7765 2.00927 13.8523 2.69429C13.7728 2.66735 13.6895 2.65311 13.6055 2.6521C13.5867 2.65196 13.5679 2.65248 13.5492 2.65366C10.0136 2.88092 6.98347 3.2874 4.78359 3.82554C3.68366 4.0946 2.79389 4.38924 2.11328 4.75366C1.77298 4.93587 1.48086 5.13432 1.23984 5.39741C0.998828 5.66051 0.800781 6.02697 0.800781 6.44116C0.800781 6.97319 1.10951 7.40013 1.45703 7.69429C1.80455 7.98845 2.23015 8.21239 2.74297 8.42241C3.40378 8.69304 4.22992 8.93054 5.17734 9.14585C5.17493 9.14913 5.17194 9.15194 5.16953 9.15522C5.26715 9.17795 5.38082 9.19424 5.48047 9.21616C5.91461 9.30952 6.36745 9.39908 6.85391 9.48335C6.86492 9.48526 6.87881 9.48614 6.88984 9.48804C8.56164 9.77599 10.3789 9.97837 12.143 10.1162C12.6841 10.1603 13.2412 10.1968 13.8086 10.2318C14.0019 10.2434 14.1618 10.2512 14.3508 10.2615C15.3309 10.316 16.3331 10.3561 17.3758 10.3818C18.6289 10.4152 19.6273 10.4287 20.0008 10.4287C20.3743 10.4287 21.3727 10.4152 22.6258 10.3818C23.6684 10.3561 24.6707 10.316 25.6508 10.2615C25.8397 10.2512 25.9996 10.2434 26.193 10.2318C26.7604 10.1968 27.3175 10.1603 27.8586 10.1162C29.6227 9.97837 31.4399 9.77599 33.1117 9.48804C33.1228 9.48614 33.1366 9.48526 33.1477 9.48335C33.6341 9.39908 34.0869 9.30952 34.5211 9.21616C34.6207 9.19424 34.7344 9.17795 34.832 9.15522C34.8296 9.15194 34.8266 9.14913 34.8242 9.14585C35.7716 8.93054 36.5978 8.69304 37.2586 8.42241C37.7714 8.21239 38.197 7.98845 38.5445 7.69429C38.892 7.40013 39.2008 6.97319 39.2008 6.44116C39.2008 6.02697 39.0027 5.66051 38.7617 5.39741C38.5207 5.13432 38.2286 4.93587 37.8883 4.75366C37.2077 4.38924 36.3179 4.0946 35.218 3.82554C33.0181 3.2874 29.988 2.88092 26.4523 2.65366C26.3496 2.64759 26.2467 2.66138 26.1492 2.69429C24.2251 2.00927 22.1574 1.62866 20.0008 1.62866ZM10.0352 4.5771C8.65919 5.46822 7.40917 6.53683 6.31797 7.7521C5.06696 7.50344 4.04018 7.22413 3.34922 6.94116C2.93098 6.76988 2.63408 6.59318 2.49141 6.47241C2.46519 6.45022 2.46115 6.45127 2.45703 6.4521C2.52536 6.38448 2.65188 6.2803 2.86797 6.1646C3.34249 5.91052 4.13912 5.62919 5.16328 5.37866C6.44877 5.0642 8.12773 4.79436 10.0352 4.5771ZM29.9664 4.5771C31.8738 4.79436 33.5528 5.0642 34.8383 5.37866C35.8624 5.62919 36.6591 5.91052 37.1336 6.1646C37.3497 6.2803 37.4762 6.38448 37.5445 6.4521C37.5404 6.45127 37.5364 6.45022 37.5102 6.47241C37.3675 6.59318 37.0706 6.76988 36.6523 6.94116C35.9614 7.22413 34.9346 7.50344 33.6836 7.7521C32.5924 6.53683 31.3424 5.46822 29.9664 4.5771ZM4.21953 10.5771C2.55873 13.3411 1.60078 16.5751 1.60078 20.0287C1.60078 30.1751 9.85438 38.4287 20.0008 38.4287C30.1472 38.4287 38.4008 30.1751 38.4008 20.0287C38.4008 16.5751 37.4421 13.3411 35.7805 10.5771C34.1357 11.0091 32.2788 11.2803 30.5164 11.4787C25.8604 12.0027 20.94 12.0287 20.0008 12.0287C19.0616 12.0287 14.1412 12.0027 9.48516 11.4787C7.72276 11.2803 5.86513 11.0091 4.21953 10.5771ZM13.6008 13.6287C14.9264 13.6287 16.0008 14.7031 16.0008 16.0287C16.0008 17.3543 14.9264 18.4287 13.6008 18.4287C12.2752 18.4287 11.2008 17.3543 11.2008 16.0287C11.2008 14.7031 12.2752 13.6287 13.6008 13.6287ZM26.4008 13.6287C27.7264 13.6287 28.8008 14.7031 28.8008 16.0287C28.8008 17.3543 27.7264 18.4287 26.4008 18.4287C25.0752 18.4287 24.0008 17.3543 24.0008 16.0287C24.0008 14.7031 25.0752 13.6287 26.4008 13.6287ZM9.73047 22.4396C9.93247 22.4728 10.122 22.5838 10.2508 22.763C10.2884 22.8158 14.1032 28.0287 20.0008 28.0287C25.8984 28.0287 29.7124 22.815 29.7508 22.763C30.0076 22.4046 30.5056 22.3219 30.8664 22.5787C31.224 22.8355 31.3084 23.3335 31.0508 23.6927C30.8788 23.9351 26.7352 29.6287 20.0008 29.6287C13.2664 29.6287 9.12278 23.9351 8.95078 23.6927C8.69398 23.3335 8.77676 22.8363 9.13516 22.5787C9.31436 22.4507 9.52847 22.4064 9.73047 22.4396Z" fill="#FF6600"/>
</svg>
