<svg width="43" height="43" viewBox="0 0 43 43" fill="none" xmlns="http://www.w3.org/2000/svg">
<path fill-rule="evenodd" clip-rule="evenodd" d="M38.686 25.1647L8.16602 33.3425C12.4869 38.1286 19.2734 40.3793 25.9293 38.5959C32.5852 36.8124 37.3371 31.47 38.686 25.1647ZM34.9073 10.045L3.87866 18.3591C5.05105 11.8002 9.8891 6.1793 16.7507 4.34075C23.6122 2.5022 30.6125 4.951 34.9073 10.045Z" fill="#FF6600"/>
<path d="M9.98433 24.824L5.93458 25.9091C5.75651 25.9568 5.68825 26.0582 5.72981 26.2133C5.82985 26.5867 6.12556 26.8861 6.61694 27.1115C7.11252 27.3297 7.59296 27.3764 8.05825 27.2518C8.33398 27.1779 8.62457 27.0446 8.93004 26.8519C9.23971 26.652 9.48291 26.4452 9.65963 26.2316C9.818 26.0414 9.95463 25.9309 10.0695 25.9001C10.2189 25.8601 10.39 25.9128 10.5828 26.0581C10.7757 26.2035 10.8983 26.3738 10.9506 26.5691C11.0615 26.9827 10.9099 27.4512 10.4961 27.9746C9.76588 28.9029 8.80338 29.5271 7.60856 29.8473C6.40225 30.1705 5.29735 30.091 4.29388 29.6087C3.80517 29.3703 3.36615 29.0416 2.97683 28.6226C2.46398 28.0643 2.11136 27.4261 1.91896 26.708C1.66038 25.743 1.72092 24.7971 2.10059 23.8704C2.42755 23.0686 2.93777 22.3993 3.63127 21.8625C4.151 21.4585 4.75266 21.165 5.43623 20.9818C6.52766 20.6894 7.53848 20.751 8.46871 21.1666C8.9367 21.3737 9.3454 21.6582 9.69482 22.0202C10.0941 22.4304 10.3553 22.8652 10.4784 23.3248C10.5785 23.6982 10.5833 24.0263 10.4928 24.3091C10.4008 24.5862 10.2313 24.7578 9.98433 24.824ZM5.72687 24.2378L6.59713 24.0046C6.96477 23.9061 7.10318 23.6874 7.01237 23.3485C6.92925 23.0383 6.77249 22.8094 6.54209 22.6618C6.31168 22.5142 6.05287 22.4789 5.76565 22.5559C5.44397 22.642 5.22508 22.8361 5.10899 23.1382C4.99976 23.4198 4.97747 23.6813 5.04212 23.9226C5.0883 24.0949 5.16083 24.2048 5.25972 24.2522C5.36435 24.298 5.52007 24.2932 5.72687 24.2378Z" fill="#FF6600"/>
<path d="M15.0327 18.4012C16.0322 18.1334 16.9472 18.1591 17.7777 18.4784C18.2177 18.6498 18.5565 18.8915 18.794 19.2035C19.0357 19.5081 19.2381 19.9649 19.4012 20.5738L19.728 21.8622C19.9666 22.7526 20.1845 23.313 20.3816 23.5434C20.4787 23.6528 20.5606 23.7171 20.6272 23.7361C20.6939 23.7552 20.823 23.7545 21.0145 23.734C21.206 23.7134 21.3303 23.8094 21.3872 24.022C21.4611 24.2977 21.4261 24.6149 21.2821 24.9737C21.1438 25.3309 20.9264 25.6569 20.6299 25.9519C20.2668 26.3201 19.8497 26.5673 19.3787 26.6935C18.7755 26.8551 18.2433 26.776 17.7821 26.4563C17.6215 26.3393 17.4894 26.2946 17.386 26.3224C17.2712 26.3531 17.1382 26.4657 16.9871 26.6601C16.525 27.2334 15.9292 27.6177 15.1997 27.8132C14.4472 28.0149 13.7952 28.0172 13.2437 27.8202C12.8823 27.6892 12.5672 27.4781 12.2983 27.1869C12.0278 26.89 11.8426 26.5548 11.7426 26.1814C11.5825 25.584 11.6821 24.9909 12.0415 24.4021C12.6001 23.4766 13.6283 22.8102 15.126 22.4027C15.4592 22.3134 15.6604 22.2257 15.7296 22.1394C15.7973 22.0474 15.7988 21.8807 15.7342 21.6395C15.571 21.0306 15.3901 20.6081 15.1914 20.3719C14.9911 20.1301 14.7474 20.0476 14.4601 20.1246C14.2878 20.1708 14.1466 20.264 14.0364 20.4044C13.932 20.5432 13.8162 20.7774 13.689 21.107C13.3733 21.9735 12.9368 22.4814 12.3796 22.6307C12.0981 22.7061 11.846 22.6844 11.6233 22.5655C11.4006 22.4466 11.2531 22.2522 11.1807 21.9822C11.1069 21.7065 11.1421 21.4015 11.2865 21.0673C11.4367 20.7316 11.6736 20.4095 11.9973 20.1011C12.8893 19.2711 13.9011 18.7044 15.0327 18.4012ZM15.7922 23.5448C15.5394 23.6126 15.346 23.7752 15.2118 24.0328C15.0834 24.2889 15.0577 24.5605 15.1347 24.8477C15.2085 25.1234 15.3346 25.3298 15.5129 25.4667C15.6897 25.5979 15.8872 25.6342 16.1055 25.5757C16.565 25.4526 16.6909 25.0033 16.4831 24.2278C16.3985 23.9119 16.307 23.7086 16.2089 23.6179C16.1164 23.5257 15.9775 23.5013 15.7922 23.5448Z" fill="#FF6600"/>
<path d="M23.574 16.1218C23.8612 16.0448 24.3463 15.9826 25.0292 15.935C25.1675 15.9226 25.2797 15.9049 25.3659 15.8818C25.4636 15.8556 25.6393 15.7531 25.893 15.5743C26.0113 15.4872 26.1164 15.4313 26.2083 15.4067C26.4725 15.3359 26.7851 15.4338 27.1458 15.7004C27.4365 15.9119 27.6938 16.16 27.9179 16.4447C28.1419 16.7295 28.2855 16.9896 28.3486 17.2251C28.4102 17.4549 28.3813 17.6689 28.262 17.8671C28.1412 18.0595 27.9602 18.1881 27.7189 18.2527C27.5179 18.3066 27.3238 18.3062 27.1368 18.2517C26.9556 18.1956 26.6451 18.0479 26.2054 17.8086C25.7424 17.551 25.3902 17.4545 25.1489 17.5191C24.9881 17.5622 24.8635 17.6602 24.7752 17.8132C24.6911 17.9589 24.6706 18.1121 24.7137 18.273C24.7891 18.5544 25.1299 18.7463 25.7361 18.8487C26.8238 19.0251 27.6955 19.3026 28.351 19.681C28.9045 20.0006 29.266 20.4763 29.4353 21.1082C29.6492 21.9067 29.4774 22.6669 28.9197 23.3889C28.4412 24.0158 27.7654 24.4463 26.8923 24.6802C26.6682 24.7402 26.2504 24.8122 25.6387 24.896C25.0646 24.9822 24.7431 25.0344 24.6741 25.0529C24.5994 25.0729 24.5156 25.1046 24.4226 25.148C24.2621 25.2156 24.1446 25.2595 24.0699 25.2795C23.7999 25.3518 23.5689 25.3398 23.3769 25.2435C23.0844 25.0941 22.7768 24.8194 22.4542 24.4195C22.13 24.0138 21.924 23.6472 21.8363 23.3198C21.6947 22.7913 21.8307 22.4717 22.2443 22.3609C22.4051 22.3178 22.5662 22.3331 22.7276 22.4068C22.8932 22.4733 23.2529 22.6786 23.8069 23.0227C24.1101 23.2123 24.3524 23.3352 24.5336 23.3913C24.7134 23.4416 24.8923 23.443 25.0703 23.3952C25.2599 23.3445 25.3991 23.2548 25.4878 23.1264C25.575 22.9922 25.5962 22.8418 25.5516 22.6753C25.4823 22.4168 25.1981 22.2405 24.6988 22.1465C23.6524 21.9405 22.8577 21.6516 22.3148 21.2799C21.7777 20.9067 21.4245 20.4041 21.2551 19.7723C21.072 19.0887 21.1239 18.4437 21.4109 17.8373C21.8189 16.9707 22.54 16.3989 23.574 16.1218Z" fill="#FF6600"/>
<path d="M37.8845 16.831L37.5852 20.2635C37.5115 21.1144 37.3965 21.8225 37.2401 22.3877C37.091 22.9572 36.8817 23.4627 36.6121 23.9043C36.0562 24.8167 35.2527 25.4138 34.2015 25.6954C33.3513 25.9232 32.602 25.8839 31.9534 25.5774C31.4532 25.3421 31.1316 24.9573 30.9884 24.423C30.8699 23.9807 30.9114 23.5725 31.1128 23.1984C31.3184 22.817 31.628 22.5709 32.0416 22.46C32.4552 22.3492 32.8253 22.3978 33.152 22.6058C33.3065 22.6999 33.4169 22.7903 33.4833 22.8772C33.5496 22.9641 33.6677 23.1633 33.8374 23.475C33.9683 23.7108 34.1458 23.7987 34.3698 23.7387C34.5479 23.6909 34.6764 23.5734 34.7555 23.386C34.8346 23.1985 34.8433 22.9899 34.7818 22.7602C34.7094 22.4902 34.4392 22.0793 33.9712 21.5274L30.7102 17.6636C30.3688 17.2625 30.1282 17.0192 29.9882 16.9335C29.8483 16.8479 29.5693 16.7718 29.1513 16.7053C29.0241 16.6901 28.8997 16.628 28.7782 16.519C28.6608 16.4026 28.5852 16.2813 28.5513 16.1549C28.4143 15.6437 28.8296 15.1599 29.7971 14.7037C30.4426 14.4014 31.199 14.1341 32.0664 13.9017C32.6753 13.7385 33.1719 13.6732 33.5562 13.7057C34.0719 13.746 34.3836 13.9673 34.4913 14.3694C34.5298 14.513 34.5091 14.7001 34.4293 14.9308C34.3522 15.1485 34.3329 15.3292 34.3714 15.4728C34.4083 15.6106 34.4755 15.7466 34.573 15.8805C34.6762 16.0129 34.8732 16.2311 35.1639 16.5349C35.4899 16.8785 35.7362 17.028 35.9028 16.9833C36.0809 16.9356 36.2178 16.7112 36.3134 16.31C36.4076 15.903 36.4108 15.5358 36.323 15.2084C36.2522 14.9442 36.1227 14.748 35.9345 14.6199C35.6469 14.4199 35.4785 14.228 35.4293 14.0442C35.3508 13.7512 35.4837 13.4662 35.8282 13.1892C36.1711 12.9065 36.67 12.6774 37.3248 12.5019C38.5426 12.1756 39.23 12.3054 39.387 12.8913C39.444 13.1039 39.4269 13.2931 39.336 13.4591C39.2492 13.6178 39.0575 13.7985 38.7608 14.0011C38.5128 14.1784 38.3407 14.4092 38.2445 14.6936C38.0949 15.1462 37.9749 15.8586 37.8845 16.831Z" fill="#FF6600"/>
</svg>
