<svg width="680" height="240" viewBox="0 0 680 240" fill="none" xmlns="http://www.w3.org/2000/svg">
<mask id="mask0" mask-type="alpha" maskUnits="userSpaceOnUse" x="0" y="0" width="680" height="240">
<rect width="680" height="240" fill="#FB5801"/>
</mask>
<g mask="url(#mask0)">
<rect width="699" height="240" fill="#FF6600"/>
<path opacity="0.5" d="M146.3 104.698L-174 256L-174 341.5L484 341.5L188.071 109.392C176.158 100.049 159.99 98.2317 146.3 104.698Z" fill="url(#paint0_linear)"/>
<path opacity="0.5" d="M621.854 219.918L958 124.236L620.5 -111.5L133 -91.5L588.593 214.647C598.364 221.213 610.531 223.141 621.854 219.918Z" fill="url(#paint1_linear)"/>
<path opacity="0.7" d="M400.273 159.202L715 -7.00001L115.5 -20.5L358.044 156.163C370.387 165.153 386.771 166.332 400.273 159.202Z" fill="url(#paint2_linear)"/>
<path opacity="0.7" d="M68.647 102.533L343.493 -157.298L-221 -14.2976L23.1157 109.161C38.1717 116.775 56.3866 114.124 68.647 102.533Z" fill="url(#paint3_linear)"/>
</g>
<defs>
<linearGradient id="paint0_linear" x1="161.404" y1="163.194" x2="37.4111" y2="349.216" gradientUnits="userSpaceOnUse">
<stop stop-color="#F85100"/>
<stop offset="1" stop-color="#FF5300" stop-opacity="0"/>
</linearGradient>
<linearGradient id="paint1_linear" x1="565" y1="201.736" x2="669.5" y2="46.7358" gradientUnits="userSpaceOnUse">
<stop stop-color="#F85100"/>
<stop offset="1" stop-color="#FF5300" stop-opacity="0"/>
</linearGradient>
<linearGradient id="paint2_linear" x1="389.5" y1="149.202" x2="275.386" y2="-32.2231" gradientUnits="userSpaceOnUse">
<stop stop-color="#FF7A02"/>
<stop offset="1" stop-color="#FF7A02" stop-opacity="0"/>
</linearGradient>
<linearGradient id="paint3_linear" x1="59.5" y1="100.202" x2="-54.6136" y2="-81.2231" gradientUnits="userSpaceOnUse">
<stop stop-color="#FF7A02"/>
<stop offset="1" stop-color="#FF7A02" stop-opacity="0"/>
</linearGradient>
</defs>
</svg>
