<svg width="12" height="11" viewBox="0 0 12 11" fill="#1D415C" xmlns="http://www.w3.org/2000/svg">
  <path d="M0.75 10V3.25H11.25V10C11.25 10.2031 11.1719 10.375 11.0156 10.5156C10.875 10.6719 10.7031 10.75 10.5 10.75H1.5C1.29688 10.75 1.11719 10.6719 0.960938 10.5156C0.820312 10.375 0.75 10.2031 0.75 10ZM4.5 5.03125V5.21875C4.5 5.40625 4.59375 5.5 4.78125 5.5H7.21875C7.40625 5.5 7.5 5.40625 7.5 5.21875V5.03125C7.5 4.84375 7.40625 4.75 7.21875 4.75H4.78125C4.59375 4.75 4.5 4.84375 4.5 5.03125ZM11.25 0.25C11.4531 0.25 11.625 0.328125 11.7656 0.484375C11.9219 0.625 12 0.796875 12 1V2.125C12 2.23438 11.9609 2.32812 11.8828 2.40625C11.8203 2.46875 11.7344 2.5 11.625 2.5H0.375C0.265625 2.5 0.171875 2.46875 0.09375 2.40625C0.03125 2.32812 0 2.23438 0 2.125V1C0 0.796875 0.0703125 0.625 0.210938 0.484375C0.367188 0.328125 0.546875 0.25 0.75 0.25H11.25Z" />
</svg>
