<svg width="15" height="17" viewBox="0 0 15 17" fill="#1D415C" xmlns="http://www.w3.org/2000/svg">
  <path d="M5.14286 13.3929C5.14286 13.5737 5.00223 13.7143 4.82143 13.7143H4.17857C3.99777 13.7143 3.85714 13.5737 3.85714 13.3929V6.32143C3.85714 6.14062 3.99777 6 4.17857 6H4.82143C5.00223 6 5.14286 6.14062 5.14286 6.32143V13.3929ZM7.71429 13.3929C7.71429 13.5737 7.57366 13.7143 7.39286 13.7143H6.75C6.5692 13.7143 6.42857 13.5737 6.42857 13.3929V6.32143C6.42857 6.14062 6.5692 6 6.75 6H7.39286C7.57366 6 7.71429 6.14062 7.71429 6.32143V13.3929ZM10.2857 13.3929C10.2857 13.5737 10.1451 13.7143 9.96429 13.7143H9.32143C9.14062 13.7143 9 13.5737 9 13.3929V6.32143C9 6.14062 9.14062 6 9.32143 6H9.96429C10.1451 6 10.2857 6.14062 10.2857 6.32143V13.3929ZM4.82143 3.42857L5.31362 2.25335C5.34375 2.21317 5.42411 2.1529 5.48438 2.14286H8.66853C8.71875 2.1529 8.80915 2.21317 8.83929 2.25335L9.32143 3.42857H4.82143ZM14.1429 3.75C14.1429 3.5692 14.0022 3.42857 13.8214 3.42857H10.7176L10.0145 1.75112C9.81362 1.25893 9.21094 0.857142 8.67857 0.857142H5.46429C4.93192 0.857142 4.32924 1.25893 4.12835 1.75112L3.42522 3.42857H0.321429C0.140625 3.42857 0 3.5692 0 3.75V4.39286C0 4.57366 0.140625 4.71429 0.321429 4.71429H1.28571V14.2768C1.28571 15.3817 2.00893 16.2857 2.89286 16.2857H11.25C12.1339 16.2857 12.8571 15.3415 12.8571 14.2366V4.71429H13.8214C14.0022 4.71429 14.1429 4.57366 14.1429 4.39286V3.75Z" />
</svg>
