<svg width="14" height="9" viewBox="0 0 14 9" fill="none" xmlns="http://www.w3.org/2000/svg">
  <path d="M13.4297 4.14844C13.4766 4.25781 13.5 4.375 13.5 4.5C13.5 4.625 13.4766 4.74219 13.4297 4.85156C12.7734 6.10156 11.8516 7.10938 10.6641 7.875C9.47656 8.625 8.17188 9 6.75 9C5.8125 9 4.90625 8.82812 4.03125 8.48438C3.17188 8.125 2.40625 7.64062 1.73438 7.03125C1.0625 6.40625 0.507812 5.67969 0.0703125 4.85156C0.0234375 4.74219 0 4.625 0 4.5C0 4.375 0.0234375 4.25781 0.0703125 4.14844C0.726562 2.89844 1.64844 1.89844 2.83594 1.14844C4.02344 0.382812 5.32812 0 6.75 0C8.17188 0 9.47656 0.382812 10.6641 1.14844C11.8516 1.89844 12.7734 2.89844 13.4297 4.14844ZM6.75 7.875C7.6875 7.875 8.48438 7.54688 9.14062 6.89062C9.79688 6.23438 10.125 5.4375 10.125 4.5C10.125 3.5625 9.79688 2.76562 9.14062 2.10938C8.48438 1.45312 7.6875 1.125 6.75 1.125C5.8125 1.125 5.01562 1.45312 4.35938 2.10938C3.70312 2.76562 3.375 3.5625 3.375 4.5C3.375 5.4375 3.70312 6.23438 4.35938 6.89062C5.01562 7.54688 5.8125 7.875 6.75 7.875ZM6.75 2.25C7.375 2.25 7.90625 2.46875 8.34375 2.90625C8.78125 3.34375 9 3.875 9 4.5C9 5.10938 8.78125 5.64062 8.34375 6.09375C7.90625 6.53125 7.375 6.75 6.75 6.75C6.14062 6.75 5.60938 6.53125 5.15625 6.09375C4.71875 5.64062 4.5 5.10938 4.5 4.5C4.5 4.29688 4.53125 4.10156 4.59375 3.91406C4.78125 4.05469 5 4.125 5.25 4.125C5.5625 4.125 5.82812 4.01562 6.04688 3.79688C6.26562 3.57812 6.375 3.3125 6.375 3C6.375 2.75 6.30469 2.53125 6.16406 2.34375C6.35156 2.28125 6.54688 2.25 6.75 2.25Z" fill="#FF6600"/>
</svg>
