<svg width="30" height="24" viewBox="0 0 30 24" fill="#fff" xmlns="http://www.w3.org/2000/svg">
  <path d="M6 16.5C6.40625 16.5 6.75 16.6562 7.03125 16.9688C7.34375 17.25 7.5 17.5938 7.5 18V22.5C7.5 22.9062 7.34375 23.25 7.03125 23.5312C6.75 23.8438 6.40625 24 6 24H1.5C1.09375 24 0.734375 23.8438 0.421875 23.5312C0.140625 23.25 0 22.9062 0 22.5V18C0 17.5938 0.140625 17.25 0.421875 16.9688C0.734375 16.6562 1.09375 16.5 1.5 16.5H6ZM4.875 12.75V15H2.625V12.2812C2.625 11.8125 2.79688 11.4062 3.14062 11.0625C3.51562 10.6875 3.9375 10.5 4.40625 10.5H13.875V7.5H12C11.5938 7.5 11.2344 7.35938 10.9219 7.07812C10.6406 6.76562 10.5 6.40625 10.5 6V1.5C10.5 1.09375 10.6406 0.75 10.9219 0.46875C11.2344 0.15625 11.5938 0 12 0H18C18.4062 0 18.75 0.15625 19.0312 0.46875C19.3438 0.75 19.5 1.09375 19.5 1.5V6C19.5 6.40625 19.3438 6.76562 19.0312 7.07812C18.75 7.35938 18.4062 7.5 18 7.5H16.125V10.5H25.5938C26.0625 10.5 26.4688 10.6875 26.8125 11.0625C27.1875 11.4062 27.375 11.8125 27.375 12.2812V15H25.125V12.75H16.125V15H13.875V12.75H4.875ZM17.25 16.5C17.6562 16.5 18 16.6562 18.2812 16.9688C18.5938 17.25 18.75 17.5938 18.75 18V22.5C18.75 22.9062 18.5938 23.25 18.2812 23.5312C18 23.8438 17.6562 24 17.25 24H12.75C12.3438 24 11.9844 23.8438 11.6719 23.5312C11.3906 23.25 11.25 22.9062 11.25 22.5V18C11.25 17.5938 11.3906 17.25 11.6719 16.9688C11.9844 16.6562 12.3438 16.5 12.75 16.5H17.25ZM28.5 16.5C28.9062 16.5 29.25 16.6562 29.5312 16.9688C29.8438 17.25 30 17.5938 30 18V22.5C30 22.9062 29.8438 23.25 29.5312 23.5312C29.25 23.8438 28.9062 24 28.5 24H24C23.5938 24 23.2344 23.8438 22.9219 23.5312C22.6406 23.25 22.5 22.9062 22.5 22.5V18C22.5 17.5938 22.6406 17.25 22.9219 16.9688C23.2344 16.6562 23.5938 16.5 24 16.5H28.5Z" />
</svg>
