<svg width="18" height="21" viewBox="0 0 18 21" fill="#F89739" xmlns="http://www.w3.org/2000/svg">
  <path d="M10.5469 19.7578C10.0521 20.2526 9.46615 20.5 8.78906 20.5C8.11198 20.5 7.52604 20.2526 7.03125 19.7578C6.53646 19.2891 6.28906 18.7031 6.28906 18H11.2891C11.2891 18.7031 11.0417 19.2891 10.5469 19.7578ZM17.1875 14.6406C17.4219 14.901 17.5391 15.1875 17.5391 15.5C17.5391 15.8385 17.4219 16.138 17.1875 16.3984C16.9531 16.6328 16.6536 16.75 16.2891 16.75H1.28906C1.05469 16.75 0.833333 16.6979 0.625 16.5938C0.442708 16.4635 0.299479 16.3073 0.195312 16.125C0.0911458 15.9167 0.0390625 15.7083 0.0390625 15.5C0.0390625 15.1875 0.15625 14.901 0.390625 14.6406C0.416667 14.6146 0.455729 14.5625 0.507812 14.4844C0.898438 14.0938 1.19792 13.7422 1.40625 13.4297C1.64062 13.1172 1.88802 12.5312 2.14844 11.6719C2.40885 10.7865 2.53906 9.77083 2.53906 8.625C2.53906 7.11458 3.00781 5.79948 3.94531 4.67969C4.88281 3.5599 6.08073 2.85677 7.53906 2.57031V1.75C7.53906 1.41146 7.65625 1.125 7.89062 0.890625C8.15104 0.630208 8.45052 0.5 8.78906 0.5C9.1276 0.5 9.41406 0.630208 9.64844 0.890625C9.90885 1.125 10.0391 1.41146 10.0391 1.75V2.57031C11.0026 2.7526 11.862 3.13021 12.6172 3.70312C13.3724 4.27604 13.9583 4.99219 14.375 5.85156C14.8177 6.71094 15.0391 7.63542 15.0391 8.625C15.0391 9.77083 15.1693 10.7865 15.4297 11.6719C15.6901 12.5312 15.9245 13.1172 16.1328 13.4297C16.3672 13.7422 16.6797 14.0938 17.0703 14.4844C17.1224 14.5625 17.1615 14.6146 17.1875 14.6406Z" />
</svg>
