<svg width="27" height="25" viewBox="0 0 27 25" fill="#fff" xmlns="http://www.w3.org/2000/svg">
  <path d="M23.6719 15H9.9375L10.2188 16.5H22.8281C23.1719 16.5 23.4531 16.6406 23.6719 16.9219C23.8906 17.2031 23.9688 17.5156 23.9062 17.8594L23.625 19.0312C24.625 19.5 25.125 20.2812 25.125 21.375C25.125 22.0938 24.8594 22.7031 24.3281 23.2031C23.8281 23.7344 23.2031 24 22.4531 24C21.7656 24 21.1719 23.75 20.6719 23.25C20.1719 22.75 19.9062 22.1562 19.875 21.4688C19.8438 20.6875 20.1094 20.0312 20.6719 19.5H10.8281C11.3594 20 11.625 20.625 11.625 21.375C11.625 22.125 11.3438 22.75 10.7812 23.25C10.25 23.7812 9.60938 24.0312 8.85938 24C8.20312 23.9688 7.625 23.7031 7.125 23.2031C6.65625 22.7344 6.40625 22.1719 6.375 21.5156C6.375 21.1719 6.42188 20.8438 6.51562 20.5312C6.60938 20.2188 6.75 19.9531 6.9375 19.7344C7.15625 19.4844 7.40625 19.2656 7.6875 19.0781L4.40625 3H1.125C0.8125 3 0.546875 2.89062 0.328125 2.67188C0.109375 2.45312 0 2.1875 0 1.875V1.125C0 0.8125 0.109375 0.546875 0.328125 0.328125C0.546875 0.109375 0.8125 0 1.125 0H5.95312C6.10938 0 6.26562 0.046875 6.42188 0.140625C6.57812 0.203125 6.70312 0.3125 6.79688 0.46875C6.92188 0.59375 7 0.734375 7.03125 0.890625L7.45312 3H25.875C26.25 3 26.5469 3.14062 26.7656 3.42188C26.9844 3.70312 27.0469 4.01562 26.9531 4.35938L24.75 14.1094C24.625 14.7031 24.2656 15 23.6719 15ZM18.8906 9H16.875V6.1875C16.875 5.8125 16.6875 5.625 16.3125 5.625H15.1875C14.8125 5.625 14.625 5.8125 14.625 6.1875V9H12.6094C12.3594 9 12.1875 9.125 12.0938 9.375C12 9.59375 12.0312 9.78125 12.1875 9.9375L15.375 13.125C15.625 13.375 15.875 13.375 16.125 13.125L19.3125 9.9375C19.4688 9.78125 19.5 9.59375 19.4062 9.375C19.3125 9.125 19.1406 9 18.8906 9Z" />
</svg>
