<svg width="18" height="13" viewBox="0 0 18 13" fill="none" xmlns="http://www.w3.org/2000/svg">
  <path d="M11.6758 6.75C11.8034 6.75 11.9219 6.73177 12.0312 6.69531L15.7773 5.62891V10.4961C15.7773 10.6966 15.7135 10.8789 15.5859 11.043C15.4583 11.1888 15.3034 11.2891 15.1211 11.3438L9.1875 12.8203C8.91406 12.8932 8.63151 12.8932 8.33984 12.8203L2.43359 11.3438C2.2513 11.2891 2.09635 11.1888 1.96875 11.043C1.84115 10.8789 1.77734 10.6966 1.77734 10.4961V5.62891L5.52344 6.69531C5.63281 6.73177 5.7513 6.75 5.87891 6.75C6.38932 6.75 6.77214 6.54036 7.02734 6.12109L8.77734 3.19531L10.5273 6.12109C10.7826 6.54036 11.1654 6.75 11.6758 6.75ZM17.4727 3.6875C17.5456 3.8151 17.5547 3.94271 17.5 4.07031C17.4453 4.19792 17.3451 4.27995 17.1992 4.31641L11.7852 5.84766C11.5664 5.92057 11.4023 5.85677 11.293 5.65625L8.77734 1.5L15.6133 0.625C15.832 0.606771 15.987 0.688802 16.0781 0.871094L17.4727 3.6875ZM1.47656 0.871094C1.56771 0.688802 1.72266 0.606771 1.94141 0.625L8.77734 1.5L6.26172 5.65625C6.15234 5.85677 5.98828 5.92057 5.76953 5.84766L0.355469 4.31641C0.209635 4.27995 0.109375 4.19792 0.0546875 4.07031C0 3.94271 0.00911458 3.8151 0.0820312 3.6875L1.47656 0.871094Z" fill="#B3B7BB"/>
</svg>
