<svg width="26" height="19" viewBox="0 0 26 19" fill="none" xmlns="http://www.w3.org/2000/svg">
  <path d="M21.5156 8.36719C22.2708 8.4974 22.9479 8.79688 23.5469 9.26562C24.1458 9.73438 24.6146 10.3203 24.9531 11.0234C25.3177 11.7266 25.5 12.4688 25.5 13.25C25.5 14.6302 25.0052 15.8151 24.0156 16.8047C23.0521 17.7682 21.8802 18.25 20.5 18.25H6.125C4.5625 18.25 3.23438 17.7031 2.14062 16.6094C1.04688 15.5156 0.5 14.1875 0.5 12.625C0.5 11.401 0.851562 10.3073 1.55469 9.34375C2.25781 8.38021 3.15625 7.70312 4.25 7.3125C4.25 7.18229 4.25 7.07812 4.25 7C4.25 5.28125 4.86198 3.8099 6.08594 2.58594C7.3099 1.36198 8.78125 0.75 10.5 0.75C11.6458 0.75 12.7005 1.03646 13.6641 1.60938C14.6276 2.18229 15.3828 2.9375 15.9297 3.875C16.5547 3.45833 17.2448 3.25 18 3.25C19.0417 3.25 19.9271 3.61458 20.6562 4.34375C21.3854 5.07292 21.75 5.95833 21.75 7C21.75 7.46875 21.6719 7.92448 21.5156 8.36719ZM15.8516 10.75C16.138 10.75 16.3333 10.6198 16.4375 10.3594C16.5417 10.099 16.5026 9.8776 16.3203 9.69531L12.1797 5.55469C11.8932 5.26823 11.6068 5.26823 11.3203 5.55469L7.17969 9.69531C6.9974 9.8776 6.95833 10.099 7.0625 10.3594C7.16667 10.6198 7.36198 10.75 7.64844 10.75H10.1875V15.125C10.1875 15.3073 10.2396 15.4635 10.3438 15.5938C10.474 15.6979 10.6302 15.75 10.8125 15.75H12.6875C12.8698 15.75 13.013 15.6979 13.1172 15.5938C13.2474 15.4635 13.3125 15.3073 13.3125 15.125V10.75H15.8516Z" fill="#F89739"/>
</svg>
