<svg width="18" height="16" viewBox="0 0 18 16" fill="none" xmlns="http://www.w3.org/2000/svg">
<mask id="mask0111111111111111" mask-type="alpha" maskUnits="userSpaceOnUse" x="0" y="0" width="10" height="16">
<rect x="0.5" width="9" height="16" fill="#C4C4C4"/>
</mask>
<g mask="url(#mask0111111111111111)">
<path d="M9.5 0L6.87363 5.26761L1 6.11214L5.25 10.2132L4.24726 16L9.5 13.2693L14.7527 16L13.75 10.2132L18 6.11214L12.1264 5.26761L9.5 0Z" fill="#333333"/>
</g>
<path opacity="0.5" d="M9.5 1.00851L7.27635 5.4684L7.17112 5.67947L6.93768 5.71303L1.97406 6.42671L5.56247 9.88936L5.73412 10.055L5.69339 10.29L4.84577 15.1817L9.29243 12.87L9.5 12.7621L9.70757 12.87L14.1542 15.1817L13.3066 10.29L13.2659 10.055L13.4375 9.88936L17.0259 6.42671L12.0623 5.71303L11.8289 5.67947L11.7236 5.4684L9.5 1.00851Z" stroke="#333333" stroke-width="0.9"/>
</svg>
