<svg width="17" height="17" viewBox="0 0 17 17" fill="none" xmlns="http://www.w3.org/2000/svg">
<path fill-rule="evenodd" clip-rule="evenodd" d="M10.134 1.64103L10.9376 4.12077C11.1519 4.80666 11.8484 5.28151 12.5984 5.28151H15.2771C16.9379 5.28151 17.6343 7.39193 16.295 8.34161L14.152 9.87167C13.5627 10.2938 13.2948 11.0852 13.5091 11.771L14.3127 14.2508C14.8485 15.8336 13.027 17.0999 11.6876 16.1502L9.54469 14.6201C8.95538 14.198 8.0982 14.198 7.50889 14.6201L5.36594 16.1502C3.97303 17.1526 2.15152 15.8336 2.68726 14.3036L3.49086 11.8238C3.70516 11.1379 3.49086 10.3465 2.84798 9.92443L0.705031 8.39438C-0.63431 7.44469 0.0621473 5.33427 1.72293 5.33427H4.40161C5.15165 5.33427 5.79453 4.85942 6.0624 4.17353L6.866 1.69379C7.34817 0.110975 9.59826 0.110975 10.134 1.64103Z" fill="white"/>
</svg>
