<svg width="12" height="12" viewBox="0 0 12 12" xmlns="http://www.w3.org/2000/svg">
<path d="M4.90061 6.01059L0.228039 1.33788C-0.0760441 1.03394 -0.0760441 0.542515 0.228039 0.238575C0.53198 -0.0653649 1.02341 -0.0653649 1.32735 0.238575L6.00006 4.91128L10.6726 0.238575C10.9767 -0.0653649 11.468 -0.0653649 11.7719 0.238575C12.076 0.542515 12.076 1.03394 11.7719 1.33788L7.09937 6.01059L11.7719 10.6833C12.076 10.9872 12.076 11.4787 11.7719 11.7826C11.6205 11.9342 11.4213 12.0104 11.2223 12.0104C11.0233 12.0104 10.8242 11.9342 10.6726 11.7826L6.00006 7.1099L1.32735 11.7826C1.17574 11.9342 0.976715 12.0104 0.777695 12.0104C0.578674 12.0104 0.379653 11.9342 0.228039 11.7826C-0.0760441 11.4787 -0.0760441 10.9872 0.228039 10.6833L4.90061 6.01059Z" />
</svg>
