<svg width="18" height="15" viewBox="0 0 18 15" fill="none" xmlns="http://www.w3.org/2000/svg">
  <path d="M8.91964 11.4643H8.35714V10.5H7.39286V9.9375L8.55804 8.77232L10.0848 10.2991L8.91964 11.4643ZM13.3393 4.23214C13.4297 4.32254 13.4196 4.47321 13.3292 4.56362L9.81362 8.07924C9.72321 8.16964 9.57255 8.17969 9.48214 8.08929C9.39174 7.99888 9.40179 7.84821 9.49219 7.75781L13.0078 4.24219C13.0982 4.15179 13.2489 4.14174 13.3393 4.23214ZM14.1429 10.1987C14.1429 10.0681 14.0625 9.95759 13.942 9.90737C13.8214 9.85714 13.6908 9.87723 13.5904 9.97768L12.9475 10.6205C12.8873 10.6808 12.8571 10.7612 12.8571 10.8415V12.1071C12.8571 12.9911 12.1339 13.7143 11.25 13.7143H2.89286C2.00893 13.7143 1.28571 12.9911 1.28571 12.1071V3.75C1.28571 2.86607 2.00893 2.14286 2.89286 2.14286H11.25C11.4007 2.14286 11.5513 2.16295 11.702 2.20312C11.8125 2.2433 11.933 2.21317 12.0234 2.12277L12.5156 1.63058C12.596 1.55022 12.6261 1.44978 12.606 1.33929C12.5859 1.23884 12.5156 1.14844 12.4252 1.10826C12.0536 0.937499 11.6518 0.857142 11.25 0.857142H2.89286C1.29576 0.857142 0 2.1529 0 3.75V12.1071C0 13.7042 1.29576 15 2.89286 15H11.25C12.8471 15 14.1429 13.7042 14.1429 12.1071V10.1987ZM13.1786 2.78571L6.42857 9.53571V12.4286H9.32143L16.0714 5.67857L13.1786 2.78571ZM17.6384 4.11161C18.01 3.73995 18.01 3.11719 17.6384 2.74554L16.1116 1.21875C15.74 0.847098 15.1172 0.847098 14.7455 1.21875L13.8214 2.14286L16.7143 5.03571L17.6384 4.11161Z"/>
</svg>
