<svg width="24" height="20" viewBox="0 0 24 20" fill="none" xmlns="http://www.w3.org/2000/svg">
  <path d="M23.2969 10.7969L15.4219 18.6719C15.0781 19.0156 14.6719 19.0938 14.2031 18.9062C13.7344 18.7188 13.5 18.375 13.5 17.875V13.375H7.125C6.8125 13.375 6.54688 13.2656 6.32812 13.0469C6.10938 12.8281 6 12.5625 6 12.25V7.75C6 7.4375 6.10938 7.17188 6.32812 6.95312C6.54688 6.73438 6.8125 6.625 7.125 6.625H13.5V2.125C13.5 1.625 13.7344 1.28125 14.2031 1.09375C14.6719 0.90625 15.0781 0.984375 15.4219 1.32812L23.2969 9.20312C23.5156 9.42188 23.625 9.6875 23.625 10C23.625 10.3125 23.5156 10.5781 23.2969 10.7969ZM9 18.4375C9 18.8125 8.8125 19 8.4375 19H4.5C3.25 19 2.1875 18.5625 1.3125 17.6875C0.4375 16.8125 0 15.75 0 14.5V5.5C0 4.25 0.4375 3.1875 1.3125 2.3125C2.1875 1.4375 3.25 1 4.5 1H8.4375C8.8125 1 9 1.1875 9 1.5625V3.4375C9 3.8125 8.8125 4 8.4375 4H4.5C4.09375 4 3.73438 4.15625 3.42188 4.46875C3.14062 4.75 3 5.09375 3 5.5V14.5C3 14.9062 3.14062 15.2656 3.42188 15.5781C3.73438 15.8594 4.09375 16 4.5 16H8.4375C8.8125 16 9 16.1875 9 16.5625V18.4375Z" />
</svg>
