<svg width="24" height="22" viewBox="0 0 24 22" fill="none" xmlns="http://www.w3.org/2000/svg">
  <path d="M6.98438 1.625V5.375C6.98438 5.6875 6.875 5.95312 6.65625 6.17188C6.4375 6.39062 6.17188 6.5 5.85938 6.5H1.125C0.8125 6.5 0.546875 6.39062 0.328125 6.17188C0.109375 5.95312 0 5.6875 0 5.375V1.625C0 1.3125 0.109375 1.04688 0.328125 0.828125C0.546875 0.609375 0.8125 0.5 1.125 0.5H5.85938C6.17188 0.5 6.4375 0.609375 6.65625 0.828125C6.875 1.04688 6.98438 1.3125 6.98438 1.625ZM15.5156 12.875C15.5156 13.0938 15.4531 13.2969 15.3281 13.4844C15.2344 13.6406 15.0938 13.7656 14.9062 13.8594C14.75 13.9531 14.5781 14 14.3906 14H9.60938C9.29688 14 9.03125 13.8906 8.8125 13.6719C8.59375 13.4531 8.48438 13.1875 8.48438 12.875V9.125C8.48438 8.8125 8.59375 8.54688 8.8125 8.32812C9.03125 8.10938 9.29688 8 9.60938 8H14.3906C14.7031 8 14.9688 8.10938 15.1875 8.32812C15.4062 8.54688 15.5156 8.8125 15.5156 9.125V12.875ZM17.0156 1.625C17.0156 1.3125 17.125 1.04688 17.3438 0.828125C17.5625 0.609375 17.8281 0.5 18.1406 0.5H22.875C23.1875 0.5 23.4531 0.609375 23.6719 0.828125C23.8906 1.04688 24 1.3125 24 1.625V5.375C24 5.6875 23.8906 5.95312 23.6719 6.17188C23.4531 6.39062 23.1875 6.5 22.875 6.5H18.1406C17.8281 6.5 17.5625 6.39062 17.3438 6.17188C17.125 5.95312 17.0156 5.6875 17.0156 5.375V1.625ZM15.5156 5.375C15.5156 5.53125 15.4844 5.6875 15.4219 5.84375C15.3594 5.96875 15.2656 6.07812 15.1406 6.17188C15.0469 6.26562 14.9375 6.34375 14.8125 6.40625C14.6875 6.46875 14.5469 6.5 14.3906 6.5H9.60938C9.29688 6.5 9.03125 6.39062 8.8125 6.17188C8.59375 5.95312 8.48438 5.6875 8.48438 5.375V1.625C8.48438 1.3125 8.59375 1.04688 8.8125 0.828125C9.03125 0.609375 9.29688 0.5 9.60938 0.5H14.3906C14.7031 0.5 14.9688 0.609375 15.1875 0.828125C15.4062 1.04688 15.5156 1.3125 15.5156 1.625V5.375ZM5.85938 8C6.17188 8 6.4375 8.10938 6.65625 8.32812C6.875 8.54688 6.98438 8.8125 6.98438 9.125V12.875C6.98438 13.1875 6.875 13.4531 6.65625 13.6719C6.4375 13.8906 6.17188 14 5.85938 14H1.125C0.8125 14 0.546875 13.8906 0.328125 13.6719C0.109375 13.4531 0 13.1875 0 12.875V9.125C0 8.8125 0.109375 8.54688 0.328125 8.32812C0.546875 8.10938 0.8125 8 1.125 8H5.85938ZM0 16.625C0 16.3125 0.109375 16.0469 0.328125 15.8281C0.546875 15.6094 0.8125 15.5 1.125 15.5H5.85938C6.17188 15.5 6.4375 15.6094 6.65625 15.8281C6.875 16.0469 6.98438 16.3125 6.98438 16.625V20.375C6.98438 20.6875 6.875 20.9531 6.65625 21.1719C6.4375 21.3906 6.17188 21.5 5.85938 21.5H1.125C0.8125 21.5 0.546875 21.3906 0.328125 21.1719C0.109375 20.9531 0 20.6875 0 20.375V16.625ZM18.1406 14C17.8281 14 17.5625 13.8906 17.3438 13.6719C17.125 13.4531 17.0156 13.1875 17.0156 12.875V9.125C17.0156 8.8125 17.125 8.54688 17.3438 8.32812C17.5625 8.10938 17.8281 8 18.1406 8H22.875C23.1875 8 23.4531 8.10938 23.6719 8.32812C23.8906 8.54688 24 8.8125 24 9.125V12.875C24 13.1875 23.8906 13.4531 23.6719 13.6719C23.4531 13.8906 23.1875 14 22.875 14H18.1406ZM18.1406 21.5C17.8281 21.5 17.5625 21.3906 17.3438 21.1719C17.125 20.9531 17.0156 20.6875 17.0156 20.375V16.625C17.0156 16.3125 17.125 16.0469 17.3438 15.8281C17.5625 15.6094 17.8281 15.5 18.1406 15.5H22.875C23.1875 15.5 23.4531 15.6094 23.6719 15.8281C23.8906 16.0469 24 16.3125 24 16.625V20.375C24 20.6875 23.8906 20.9531 23.6719 21.1719C23.4531 21.3906 23.1875 21.5 22.875 21.5H18.1406ZM8.48438 16.625C8.48438 16.3125 8.59375 16.0469 8.8125 15.8281C9.03125 15.6094 9.29688 15.5 9.60938 15.5H14.3906C14.7031 15.5 14.9688 15.6094 15.1875 15.8281C15.4062 16.0469 15.5156 16.3125 15.5156 16.625V20.375C15.5156 20.6875 15.4062 20.9531 15.1875 21.1719C14.9688 21.3906 14.7031 21.5 14.3906 21.5H9.60938C9.29688 21.5 9.03125 21.3906 8.8125 21.1719C8.59375 20.9531 8.48438 20.6875 8.48438 20.375V16.625Z" />
</svg>
