<svg width="16" height="16" viewBox="0 0 16 16"  xmlns="http://www.w3.org/2000/svg">
<path d="M13.4688 2.53125C14.9896 4.03125 15.75 5.85417 15.75 8C15.75 10.1458 14.9896 11.9792 13.4688 13.5C11.9688 15 10.1458 15.75 8 15.75C5.85417 15.75 4.02083 15 2.5 13.5C1 11.9792 0.25 10.1458 0.25 8C0.25 5.85417 1 4.03125 2.5 2.53125C4.02083 1.01042 5.85417 0.25 8 0.25C10.1458 0.25 11.9688 1.01042 13.4688 2.53125ZM7.09375 12.0938L12.8438 6.34375C13.0938 6.11458 13.0938 5.88542 12.8438 5.65625L12.1562 4.9375C11.9062 4.70833 11.6667 4.70833 11.4375 4.9375L6.75 9.625L4.5625 7.4375C4.33333 7.20833 4.09375 7.20833 3.84375 7.4375L3.15625 8.15625C2.90625 8.38542 2.90625 8.61458 3.15625 8.84375L6.40625 12.0938C6.63542 12.3438 6.86458 12.3438 7.09375 12.0938Z"/>
</svg>
